<svg width="41" height="32" viewBox="0 0 41 32" fill="none" xmlns="http://www.w3.org/2000/svg">
<path d="M0 6C0 2.68629 2.68629 0 6 0H35C38.3137 0 41 2.68629 41 6V26C41 29.3137 38.3137 32 35 32H6C2.68629 32 0 29.3137 0 26V6Z" fill="black" fill-opacity="0.04"/>
<path d="M13.9787 21H12.348L16.0121 10.8182H17.7869L21.451 21H19.8203L16.9418 12.6676H16.8622L13.9787 21ZM14.2521 17.0128H19.5419V18.3054H14.2521V17.0128ZM24.2885 10.8182V21H22.802V10.8182H24.2885ZM27.7749 10.8182V21H26.2884V10.8182H27.7749Z" fill="#111111"/>
</svg>
