<svg width="16" height="14" viewBox="0 0 16 14" fill="none" xmlns="http://www.w3.org/2000/svg">
<path d="M13.55 8.5H10.7C10.28 8.5 10.0699 8.5 9.90951 8.58175C9.76839 8.65365 9.65365 8.76839 9.58175 8.90951C9.5 9.06994 9.5 9.27996 9.5 9.7V11.8C9.5 12.22 9.5 12.4301 9.58175 12.5905C9.65365 12.7316 9.76839 12.8463 9.90951 12.9183C10.0699 13 10.28 13 10.7 13H13.55C13.97 13 14.1801 13 14.3405 12.9183C14.4816 12.8463 14.5963 12.7316 14.6683 12.5905C14.75 12.4301 14.75 12.22 14.75 11.8V9.7C14.75 9.27996 14.75 9.06994 14.6683 8.90951C14.5963 8.76839 14.4816 8.65365 14.3405 8.58175C14.1801 8.5 13.97 8.5 13.55 8.5Z" stroke="#111111" stroke-width="1.2" stroke-linecap="round" stroke-linejoin="round"/>
<path d="M5.3 1H2.45C2.02996 1 1.81994 1 1.65951 1.08175C1.51839 1.15365 1.40365 1.26839 1.33175 1.40951C1.25 1.56994 1.25 1.77996 1.25 2.2V4.3C1.25 4.72004 1.25 4.93006 1.33175 5.09049C1.40365 5.23161 1.51839 5.34635 1.65951 5.41825C1.81994 5.5 2.02996 5.5 2.45 5.5H5.3C5.72004 5.5 5.93006 5.5 6.09049 5.41825C6.23161 5.34635 6.34635 5.23161 6.41825 5.09049C6.5 4.93006 6.5 4.72004 6.5 4.3V2.2C6.5 1.77996 6.5 1.56994 6.41825 1.40951C6.34635 1.26839 6.23161 1.15365 6.09049 1.08175C5.93006 1 5.72004 1 5.3 1Z" stroke="#111111" stroke-width="1.2" stroke-linecap="round" stroke-linejoin="round"/>
<path d="M13.55 1H10.7C10.28 1 10.0699 1 9.90951 1.08175C9.76839 1.15365 9.65365 1.26839 9.58175 1.40951C9.5 1.56994 9.5 1.77996 9.5 2.2V4.3C9.5 4.72004 9.5 4.93006 9.58175 5.09049C9.65365 5.23161 9.76839 5.34635 9.90951 5.41825C10.0699 5.5 10.28 5.5 10.7 5.5H13.55C13.97 5.5 14.1801 5.5 14.3405 5.41825C14.4816 5.34635 14.5963 5.23161 14.6683 5.09049C14.75 4.93006 14.75 4.72004 14.75 4.3V2.2C14.75 1.77996 14.75 1.56994 14.6683 1.40951C14.5963 1.26839 14.4816 1.15365 14.3405 1.08175C14.1801 1 13.97 1 13.55 1Z" stroke="#111111" stroke-width="1.2" stroke-linecap="round" stroke-linejoin="round"/>
<path d="M5.3 8.5H2.45C2.02996 8.5 1.81994 8.5 1.65951 8.58175C1.51839 8.65365 1.40365 8.76839 1.33175 8.90951C1.25 9.06994 1.25 9.27996 1.25 9.7V11.8C1.25 12.22 1.25 12.4301 1.33175 12.5905C1.40365 12.7316 1.51839 12.8463 1.65951 12.9183C1.81994 13 2.02996 13 2.45 13H5.3C5.72004 13 5.93006 13 6.09049 12.9183C6.23161 12.8463 6.34635 12.7316 6.41825 12.5905C6.5 12.4301 6.5 12.22 6.5 11.8V9.7C6.5 9.27996 6.5 9.06994 6.41825 8.90951C6.34635 8.76839 6.23161 8.65365 6.09049 8.58175C5.93006 8.5 5.72004 8.5 5.3 8.5Z" stroke="#111111" stroke-width="1.2" stroke-linecap="round" stroke-linejoin="round"/>
</svg>
