<svg width="32" height="32" viewBox="0 0 32 32" fill="none" xmlns="http://www.w3.org/2000/svg">
<path d="M21.55 17.5H18.7C18.28 17.5 18.0699 17.5 17.9095 17.5817C17.7684 17.6537 17.6537 17.7684 17.5817 17.9095C17.5 18.0699 17.5 18.28 17.5 18.7V20.8C17.5 21.22 17.5 21.4301 17.5817 21.5905C17.6537 21.7316 17.7684 21.8463 17.9095 21.9183C18.0699 22 18.28 22 18.7 22H21.55C21.97 22 22.1801 22 22.3405 21.9183C22.4816 21.8463 22.5963 21.7316 22.6683 21.5905C22.75 21.4301 22.75 21.22 22.75 20.8V18.7C22.75 18.28 22.75 18.0699 22.6683 17.9095C22.5963 17.7684 22.4816 17.6537 22.3405 17.5817C22.1801 17.5 21.97 17.5 21.55 17.5Z" stroke="#111111" stroke-width="1.2" stroke-linecap="round" stroke-linejoin="round"/>
<path d="M13.3 10H10.45C10.03 10 9.81994 10 9.65951 10.0817C9.51839 10.1537 9.40365 10.2684 9.33175 10.4095C9.25 10.5699 9.25 10.78 9.25 11.2V13.3C9.25 13.72 9.25 13.9301 9.33175 14.0905C9.40365 14.2316 9.51839 14.3463 9.65951 14.4183C9.81994 14.5 10.03 14.5 10.45 14.5H13.3C13.72 14.5 13.9301 14.5 14.0905 14.4183C14.2316 14.3463 14.3463 14.2316 14.4183 14.0905C14.5 13.9301 14.5 13.72 14.5 13.3V11.2C14.5 10.78 14.5 10.5699 14.4183 10.4095C14.3463 10.2684 14.2316 10.1537 14.0905 10.0817C13.9301 10 13.72 10 13.3 10Z" stroke="#111111" stroke-width="1.2" stroke-linecap="round" stroke-linejoin="round"/>
<path d="M21.55 10H18.7C18.28 10 18.0699 10 17.9095 10.0817C17.7684 10.1537 17.6537 10.2684 17.5817 10.4095C17.5 10.5699 17.5 10.78 17.5 11.2V13.3C17.5 13.72 17.5 13.9301 17.5817 14.0905C17.6537 14.2316 17.7684 14.3463 17.9095 14.4183C18.0699 14.5 18.28 14.5 18.7 14.5H21.55C21.97 14.5 22.1801 14.5 22.3405 14.4183C22.4816 14.3463 22.5963 14.2316 22.6683 14.0905C22.75 13.9301 22.75 13.72 22.75 13.3V11.2C22.75 10.78 22.75 10.5699 22.6683 10.4095C22.5963 10.2684 22.4816 10.1537 22.3405 10.0817C22.1801 10 21.97 10 21.55 10Z" stroke="#111111" stroke-width="1.2" stroke-linecap="round" stroke-linejoin="round"/>
<path d="M13.3 17.5H10.45C10.03 17.5 9.81994 17.5 9.65951 17.5817C9.51839 17.6537 9.40365 17.7684 9.33175 17.9095C9.25 18.0699 9.25 18.28 9.25 18.7V20.8C9.25 21.22 9.25 21.4301 9.33175 21.5905C9.40365 21.7316 9.51839 21.8463 9.65951 21.9183C9.81994 22 10.03 22 10.45 22H13.3C13.72 22 13.9301 22 14.0905 21.9183C14.2316 21.8463 14.3463 21.7316 14.4183 21.5905C14.5 21.4301 14.5 21.22 14.5 20.8V18.7C14.5 18.28 14.5 18.0699 14.4183 17.9095C14.3463 17.7684 14.2316 17.6537 14.0905 17.5817C13.9301 17.5 13.72 17.5 13.3 17.5Z" stroke="#111111" stroke-width="1.2" stroke-linecap="round" stroke-linejoin="round"/>
</svg>
