<svg width="18" height="14" viewBox="0 0 18 14" fill="none" xmlns="http://www.w3.org/2000/svg">
<path d="M1.875 7H4.41147C4.92538 7 5.39518 7.29035 5.625 7.75C5.85482 8.20965 6.32462 8.5 6.83853 8.5H11.1615C11.6754 8.5 12.1452 8.20965 12.375 7.75C12.6048 7.29035 13.0746 7 13.5885 7H16.125M6.72492 1H11.2751C12.0827 1 12.4866 1 12.8431 1.12297C13.1584 1.23172 13.4455 1.4092 13.6838 1.64256C13.9532 1.90645 14.1338 2.26765 14.495 2.99003L16.1199 6.23988C16.2617 6.52337 16.3326 6.66511 16.3825 6.81366C16.4269 6.94559 16.459 7.08135 16.4783 7.2192C16.5 7.37442 16.5 7.53289 16.5 7.84984V9.4C16.5 10.6601 16.5 11.2902 16.2548 11.7715C16.039 12.1948 15.6948 12.539 15.2715 12.7548C14.7902 13 14.1601 13 12.9 13H5.1C3.83988 13 3.20982 13 2.72852 12.7548C2.30516 12.539 1.96095 12.1948 1.74524 11.7715C1.5 11.2902 1.5 10.6601 1.5 9.4V7.84984C1.5 7.53289 1.5 7.37442 1.52173 7.2192C1.54103 7.08135 1.57308 6.94559 1.61747 6.81366C1.66745 6.66511 1.73832 6.52336 1.88006 6.23988L3.50498 2.99003C3.86618 2.26764 4.04678 1.90645 4.31621 1.64256C4.55447 1.4092 4.84164 1.23172 5.15692 1.12297C5.51344 1 5.91727 1 6.72492 1Z" stroke="#111111" stroke-width="1.2" stroke-linecap="round" stroke-linejoin="round"/>
</svg>
