<svg width="20" height="20" viewBox="0 0 20 20" fill="none" xmlns="http://www.w3.org/2000/svg">
<path d="M9.82273 3.64335C9.73159 3.40637 9.5039 3.25 9.25 3.25C8.99609 3.25 8.76841 3.40637 8.67726 3.64335L7.44266 6.85334C7.25832 7.33262 7.20039 7.47073 7.12116 7.58216C7.04165 7.69397 6.94397 7.79166 6.83216 7.87116C6.72073 7.95039 6.58261 8.00832 6.10334 8.19266L2.89335 9.42726C2.65637 9.51841 2.5 9.74609 2.5 10C2.5 10.2539 2.65637 10.4816 2.89335 10.5727L6.10334 11.8073C6.58262 11.9917 6.72073 12.0496 6.83216 12.1288C6.94397 12.2083 7.04166 12.306 7.12116 12.4178C7.20039 12.5293 7.25832 12.6674 7.44266 13.1467L8.67727 16.3566C8.76841 16.5936 8.9961 16.75 9.25 16.75C9.50391 16.75 9.73159 16.5936 9.82274 16.3566L11.0573 13.1467C11.2417 12.6674 11.2996 12.5293 11.3788 12.4178C11.4583 12.306 11.556 12.2083 11.6678 12.1288C11.7793 12.0496 11.9174 11.9917 12.3967 11.8073L15.6066 10.5727C15.8436 10.4816 16 10.2539 16 10C16 9.74609 15.8436 9.51841 15.6066 9.42726L12.3967 8.19266C11.9174 8.00832 11.7793 7.95039 11.6678 7.87116C11.556 7.79166 11.4583 7.69397 11.3788 7.58216C11.2996 7.47073 11.2417 7.33262 11.0573 6.85334L9.82273 3.64335Z" fill="#111111"/>
<path d="M15.4409 1.88112C15.4105 1.80212 15.3346 1.75 15.25 1.75C15.1654 1.75 15.0895 1.80212 15.0591 1.88112L14.6476 2.95111C14.5861 3.11087 14.5668 3.15691 14.5404 3.19405C14.5139 3.23132 14.4813 3.26389 14.4441 3.29039C14.4069 3.3168 14.3609 3.33611 14.2011 3.39755L13.1311 3.80909C13.0521 3.83947 13 3.91536 13 4C13 4.08464 13.0521 4.16053 13.1311 4.19091L14.2011 4.60245C14.3609 4.66389 14.4069 4.6832 14.4441 4.70961C14.4813 4.73612 14.5139 4.76868 14.5404 4.80595C14.5668 4.84309 14.5861 4.88913 14.6476 5.04889L15.0591 6.11888C15.0895 6.19788 15.1654 6.25 15.25 6.25C15.3346 6.25 15.4105 6.19788 15.4409 6.11888L15.8524 5.04889C15.9139 4.88913 15.9332 4.84309 15.9596 4.80595C15.9861 4.76868 16.0187 4.73612 16.0559 4.70961C16.0931 4.6832 16.1391 4.66389 16.2989 4.60245L17.3689 4.19091C17.4479 4.16053 17.5 4.08464 17.5 4C17.5 3.91536 17.4479 3.83947 17.3689 3.80909L16.2989 3.39755C16.1391 3.33611 16.0931 3.3168 16.0559 3.29039C16.0187 3.26389 15.9861 3.23132 15.9596 3.19405C15.9332 3.15691 15.9139 3.11087 15.8524 2.95111L15.4409 1.88112Z" fill="#111111"/>
</svg>
