<svg width="30" height="20" viewBox="0 0 30 20" fill="none" xmlns="http://www.w3.org/2000/svg">
<path fill-rule="evenodd" clip-rule="evenodd" d="M5.47355 16.14C5.47355 16.14 5.46926 16.0351 5.46736 15.9817C5.46546 15.9284 5.5202 6.91281 5.5202 6.91281C5.56602 5.34942 5.81337 3.8088 6.4543 2.58433C7.11119 1.32938 8.18129 0.414377 9.79021 0.168094C12.8646 -0.302509 18.4176 0.107072 22.8127 2.79225C25.0242 4.14333 26.9552 6.07921 28.1115 8.77635C30.1528 14.1489 28.8492 19.1489 28.8492 19.1489C28.8492 19.1489 28.7083 19.7795 28.6911 19.8665C28.6738 19.9535 28.6234 19.9772 28.5347 19.9772H23.5341C23.4315 19.9772 23.3483 19.894 23.3483 19.7913V19.0168C23.3483 18.0138 22.891 17.2855 22.1792 16.7889C21.4479 16.2786 20.4364 16.0108 19.3893 16.0201C18.3426 16.0294 17.3268 16.3152 16.5906 16.8332C15.8711 17.3395 15.4141 18.061 15.4141 19.0168V19.7913C15.4141 19.894 15.3309 19.9772 15.2282 19.9772L10.4124 19.9823C10.2943 19.9823 10.2123 19.8686 10.2366 19.7531L10.343 19.2473C10.5327 18.3452 10.7066 16.5979 10.7898 15.2216C10.8023 15.0148 10.5083 14.95 10.4185 15.1367C8.71915 18.6667 6.59711 19.4085 5.6351 19.7449C5.57444 19.7661 5.5184 19.7856 5.46736 19.8042C3.64819 20.4664 0.826271 19.3778 0.0155036 17.6061C-0.0308827 17.5048 0.0315288 17.39 0.140082 17.3647L1.55321 17.0356C1.64476 17.0142 1.73754 17.0651 1.77246 17.1524C2.23437 18.307 3.25167 18.6763 4.17638 18.4453C4.81863 18.2115 5.05745 17.7961 5.29102 17.2971C5.45004 16.9574 5.47355 16.14 5.47355 16.14ZM8.97911 8.36254C9.59483 8.36254 10.094 7.86334 10.094 7.24754C10.094 6.63173 9.59483 6.13253 8.97911 6.13253C8.36339 6.13253 7.86425 6.63173 7.86425 7.24754C7.86425 7.86334 8.36339 8.36254 8.97911 8.36254Z" fill="#111111"/>
</svg>
