<svg width="46" height="20" viewBox="0 0 46 20" fill="none" xmlns="http://www.w3.org/2000/svg">
<path d="M1.11861 15V4.81818H4.74787C5.54001 4.81818 6.19626 4.96236 6.71662 5.25071C7.23698 5.53906 7.62642 5.93347 7.88494 6.43395C8.14347 6.93111 8.27273 7.49124 8.27273 8.11435C8.27273 8.74077 8.14181 9.30421 7.87997 9.80469C7.62145 10.3018 7.23035 10.6963 6.70668 10.9879C6.18632 11.2763 5.53172 11.4205 4.7429 11.4205H2.24716V10.1179H4.60369C5.10417 10.1179 5.51018 10.0317 5.82173 9.85938C6.13329 9.68371 6.36198 9.44508 6.50781 9.14347C6.65365 8.84186 6.72656 8.49882 6.72656 8.11435C6.72656 7.72988 6.65365 7.38849 6.50781 7.0902C6.36198 6.7919 6.13163 6.55824 5.81676 6.3892C5.50521 6.22017 5.09422 6.13565 4.58381 6.13565H2.65483V15H1.11861ZM13.1499 15.1541C12.3975 15.1541 11.7495 14.9934 11.206 14.6719C10.6657 14.3471 10.2481 13.8913 9.95312 13.3047C9.66146 12.7147 9.51562 12.0237 9.51562 11.2315C9.51562 10.4493 9.66146 9.75994 9.95312 9.16335C10.2481 8.56676 10.6591 8.10109 11.1861 7.76633C11.7164 7.43158 12.3362 7.2642 13.0455 7.2642C13.4763 7.2642 13.8939 7.33546 14.2983 7.47798C14.7027 7.6205 15.0656 7.84422 15.3871 8.14915C15.7086 8.45407 15.9621 8.85014 16.1477 9.33736C16.3333 9.82126 16.4261 10.4096 16.4261 11.1023V11.6293H10.3558V10.5156H14.9695C14.9695 10.1245 14.8899 9.77817 14.7308 9.47656C14.5717 9.17164 14.348 8.93134 14.0597 8.75568C13.7746 8.58002 13.4399 8.49219 13.0554 8.49219C12.6378 8.49219 12.2732 8.59493 11.9616 8.80043C11.6534 9.0026 11.4148 9.26776 11.2457 9.59588C11.08 9.92069 10.9972 10.2737 10.9972 10.6548V11.5249C10.9972 12.0353 11.0866 12.4695 11.2656 12.8274C11.4479 13.1854 11.7015 13.4588 12.0263 13.6477C12.3511 13.8333 12.7306 13.9261 13.1648 13.9261C13.4465 13.9261 13.7034 13.8864 13.9354 13.8068C14.1674 13.724 14.3679 13.6013 14.5369 13.4389C14.706 13.2765 14.8352 13.076 14.9247 12.8374L16.3317 13.0909C16.219 13.5052 16.0168 13.8681 15.7251 14.1797C15.4368 14.4879 15.0739 14.7282 14.6364 14.9006C14.2022 15.0696 13.7067 15.1541 13.1499 15.1541ZM21.2921 15.1541C20.5762 15.1541 19.9514 14.9901 19.4178 14.6619C18.8842 14.3338 18.4699 13.8748 18.1749 13.2848C17.8799 12.6948 17.7324 12.0054 17.7324 11.2166C17.7324 10.4245 17.8799 9.73177 18.1749 9.13849C18.4699 8.54522 18.8842 8.08452 19.4178 7.75639C19.9514 7.42827 20.5762 7.2642 21.2921 7.2642C22.008 7.2642 22.6328 7.42827 23.1664 7.75639C23.7 8.08452 24.1143 8.54522 24.4093 9.13849C24.7042 9.73177 24.8517 10.4245 24.8517 11.2166C24.8517 12.0054 24.7042 12.6948 24.4093 13.2848C24.1143 13.8748 23.7 14.3338 23.1664 14.6619C22.6328 14.9901 22.008 15.1541 21.2921 15.1541ZM21.2971 13.9062C21.7611 13.9062 22.1455 13.7836 22.4505 13.5384C22.7554 13.2931 22.9808 12.9666 23.1266 12.5589C23.2757 12.1513 23.3503 11.7022 23.3503 11.2116C23.3503 10.7244 23.2757 10.277 23.1266 9.86932C22.9808 9.45833 22.7554 9.12855 22.4505 8.87997C22.1455 8.63139 21.7611 8.5071 21.2971 8.5071C20.8297 8.5071 20.4419 8.63139 20.1337 8.87997C19.8288 9.12855 19.6017 9.45833 19.4526 9.86932C19.3068 10.277 19.2338 10.7244 19.2338 11.2116C19.2338 11.7022 19.3068 12.1513 19.4526 12.5589C19.6017 12.9666 19.8288 13.2931 20.1337 13.5384C20.4419 13.7836 20.8297 13.9062 21.2971 13.9062ZM26.511 17.8636V7.36364H27.9627V8.60156H28.087C28.1732 8.44247 28.2975 8.25852 28.4599 8.04972C28.6223 7.84091 28.8477 7.65862 29.136 7.50284C29.4244 7.34375 29.8055 7.2642 30.2795 7.2642C30.896 7.2642 31.4461 7.41998 31.93 7.73153C32.4139 8.04309 32.7934 8.49219 33.0685 9.07884C33.3469 9.66548 33.4862 10.3714 33.4862 11.1967C33.4862 12.022 33.3486 12.7296 33.0735 13.3196C32.7984 13.9062 32.4206 14.3587 31.94 14.6768C31.4594 14.9917 30.9109 15.1491 30.2944 15.1491C29.8304 15.1491 29.4509 15.0713 29.1559 14.9155C28.8642 14.7597 28.6355 14.5774 28.4698 14.3686C28.3041 14.1598 28.1765 13.9742 28.087 13.8118H27.9975V17.8636H26.511ZM27.9677 11.1818C27.9677 11.7187 28.0456 12.1894 28.2013 12.5938C28.3571 12.9981 28.5825 13.3146 28.8775 13.5433C29.1725 13.7687 29.5337 13.8814 29.9613 13.8814C30.4054 13.8814 30.7766 13.7637 31.0749 13.5284C31.3732 13.2898 31.5986 12.9666 31.7511 12.5589C31.9068 12.1513 31.9847 11.6922 31.9847 11.1818C31.9847 10.678 31.9085 10.2256 31.756 9.82457C31.6069 9.42353 31.3815 9.10701 31.0799 8.875C30.7816 8.64299 30.4087 8.52699 29.9613 8.52699C29.5304 8.52699 29.1658 8.63802 28.8675 8.86009C28.5726 9.08215 28.3488 9.39205 28.1964 9.78977C28.0439 10.1875 27.9677 10.6515 27.9677 11.1818ZM36.6381 4.81818V15H35.1516V4.81818H36.6381ZM41.9292 15.1541C41.1768 15.1541 40.5288 14.9934 39.9853 14.6719C39.445 14.3471 39.0274 13.8913 38.7324 13.3047C38.4408 12.7147 38.2949 12.0237 38.2949 11.2315C38.2949 10.4493 38.4408 9.75994 38.7324 9.16335C39.0274 8.56676 39.4384 8.10109 39.9654 7.76633C40.4957 7.43158 41.1155 7.2642 41.8248 7.2642C42.2556 7.2642 42.6732 7.33546 43.0776 7.47798C43.4819 7.6205 43.8449 7.84422 44.1664 8.14915C44.4879 8.45407 44.7414 8.85014 44.927 9.33736C45.1126 9.82126 45.2054 10.4096 45.2054 11.1023V11.6293H39.1351V10.5156H43.7488C43.7488 10.1245 43.6692 9.77817 43.5101 9.47656C43.351 9.17164 43.1273 8.93134 42.839 8.75568C42.5539 8.58002 42.2192 8.49219 41.8347 8.49219C41.4171 8.49219 41.0525 8.59493 40.7409 8.80043C40.4327 9.0026 40.1941 9.26776 40.025 9.59588C39.8593 9.92069 39.7765 10.2737 39.7765 10.6548V11.5249C39.7765 12.0353 39.8659 12.4695 40.0449 12.8274C40.2272 13.1854 40.4808 13.4588 40.8056 13.6477C41.1304 13.8333 41.5099 13.9261 41.9441 13.9261C42.2258 13.9261 42.4827 13.8864 42.7147 13.8068C42.9467 13.724 43.1472 13.6013 43.3162 13.4389C43.4853 13.2765 43.6145 13.076 43.704 12.8374L45.111 13.0909C44.9983 13.5052 44.7961 13.8681 44.5044 14.1797C44.2161 14.4879 43.8532 14.7282 43.4157 14.9006C42.9815 15.0696 42.486 15.1541 41.9292 15.1541Z" fill="#767676"/>
</svg>
