<svg width="57" height="32" viewBox="0 0 57 32" fill="none" xmlns="http://www.w3.org/2000/svg">
<path d="M0.5 6C0.5 2.96243 2.96243 0.5 6 0.5H51C54.0376 0.5 56.5 2.96243 56.5 6V26C56.5 29.0376 54.0376 31.5 51 31.5H6C2.96243 31.5 0.5 29.0376 0.5 26V6Z" fill="white"/>
<path d="M0.5 6C0.5 2.96243 2.96243 0.5 6 0.5H51C54.0376 0.5 56.5 2.96243 56.5 6V26C56.5 29.0376 54.0376 31.5 51 31.5H6C2.96243 31.5 0.5 29.0376 0.5 26V6Z" stroke="#E9E9E9"/>
<path d="M18.6719 13.4929C18.6188 13.0223 18.4001 12.6577 18.0156 12.3991C17.6312 12.1373 17.1473 12.0064 16.5639 12.0064C16.1463 12.0064 15.785 12.0727 15.4801 12.2053C15.1752 12.3345 14.9382 12.5135 14.7692 12.7422C14.6035 12.9676 14.5206 13.2244 14.5206 13.5128C14.5206 13.7547 14.5769 13.9635 14.6896 14.1392C14.8056 14.3149 14.9564 14.4624 15.142 14.5817C15.331 14.6977 15.5331 14.7955 15.7486 14.875C15.964 14.9512 16.1712 15.0142 16.37 15.0639L17.3643 15.3224C17.6892 15.402 18.0223 15.5097 18.3636 15.6456C18.705 15.7815 19.0215 15.9605 19.3132 16.1825C19.6049 16.4046 19.8402 16.6797 20.0192 17.0078C20.2015 17.3359 20.2926 17.7287 20.2926 18.1861C20.2926 18.7628 20.1435 19.2749 19.8452 19.7223C19.5502 20.1697 19.121 20.5227 18.5575 20.7812C17.9974 21.0398 17.3196 21.169 16.5241 21.169C15.7618 21.169 15.1023 21.0481 14.5455 20.8061C13.9886 20.5642 13.5528 20.2211 13.2379 19.777C12.9231 19.3295 12.7491 18.7992 12.7159 18.1861H14.2571C14.2869 18.554 14.4063 18.8606 14.6151 19.1058C14.8272 19.3478 15.0973 19.5284 15.4254 19.6477C15.7569 19.7637 16.1198 19.8217 16.5142 19.8217C16.9484 19.8217 17.3345 19.7538 17.6726 19.6179C18.014 19.4787 18.2824 19.2865 18.478 19.0412C18.6735 18.7926 18.7713 18.5026 18.7713 18.1712C18.7713 17.8696 18.6851 17.6226 18.5128 17.4304C18.3438 17.2382 18.1134 17.0791 17.8217 16.9531C17.5334 16.8272 17.2069 16.7161 16.8423 16.62L15.6392 16.2919C14.8239 16.0698 14.1776 15.7434 13.7003 15.3125C13.2263 14.8816 12.9893 14.3116 12.9893 13.6023C12.9893 13.0156 13.1484 12.5036 13.4666 12.0661C13.7848 11.6286 14.2157 11.2888 14.7592 11.0469C15.3028 10.8016 15.916 10.679 16.5987 10.679C17.2881 10.679 17.8963 10.8 18.4233 11.0419C18.9536 11.2839 19.3712 11.617 19.6761 12.0412C19.9811 12.4621 20.1402 12.946 20.1534 13.4929H18.6719ZM24.2314 21.169C23.7475 21.169 23.31 21.0795 22.9189 20.9006C22.5278 20.7183 22.2179 20.4548 21.9892 20.1101C21.7638 19.7654 21.6511 19.3428 21.6511 18.8423C21.6511 18.4115 21.734 18.0568 21.8997 17.7784C22.0654 17.5 22.2891 17.2796 22.5708 17.1172C22.8526 16.9548 23.1674 16.8321 23.5154 16.7493C23.8635 16.6664 24.2181 16.6035 24.5794 16.5604C25.0368 16.5073 25.408 16.4643 25.693 16.4311C25.978 16.3946 26.1852 16.3366 26.3145 16.2571C26.4437 16.1776 26.5083 16.0483 26.5083 15.8693V15.8345C26.5083 15.4003 26.3857 15.0639 26.1404 14.8253C25.8985 14.5866 25.5372 14.4673 25.0566 14.4673C24.5562 14.4673 24.1618 14.5784 23.8734 14.8004C23.5884 15.0192 23.3912 15.2628 23.2818 15.5312L21.8848 15.2131C22.0505 14.7491 22.2924 14.3745 22.6106 14.0895C22.9321 13.8011 23.3017 13.5923 23.7193 13.4631C24.1369 13.3305 24.5761 13.2642 25.0368 13.2642C25.3417 13.2642 25.6648 13.3007 26.0062 13.3736C26.3509 13.4432 26.6724 13.5724 26.9707 13.7614C27.2723 13.9503 27.5192 14.2204 27.7115 14.5717C27.9037 14.9197 27.9998 15.3722 27.9998 15.929V21H26.5481V19.956H26.4885C26.3923 20.1482 26.2482 20.3371 26.0559 20.5227C25.8637 20.7083 25.6168 20.8625 25.3152 20.9851C25.0136 21.1077 24.6523 21.169 24.2314 21.169ZM24.5545 19.9759C24.9655 19.9759 25.3168 19.8946 25.6085 19.7322C25.9035 19.5698 26.1272 19.3577 26.2797 19.0959C26.4354 18.8307 26.5133 18.5473 26.5133 18.2457V17.2614C26.4603 17.3144 26.3575 17.3641 26.2051 17.4105C26.0559 17.4536 25.8852 17.4917 25.693 17.5249C25.5008 17.5547 25.3135 17.5829 25.1312 17.6094C24.9489 17.6326 24.7965 17.6525 24.6738 17.669C24.3855 17.7055 24.122 17.7668 23.8833 17.853C23.648 17.9392 23.4591 18.0634 23.3166 18.2259C23.1774 18.3849 23.1078 18.5971 23.1078 18.8622C23.1078 19.2301 23.2437 19.5085 23.5154 19.6974C23.7872 19.883 24.1336 19.9759 24.5545 19.9759ZM36.239 13.3636L33.4698 21H31.8789L29.1048 13.3636H30.7006L32.6346 19.2401H32.7141L34.6431 13.3636H36.239ZM40.6674 21.1541C39.9151 21.1541 39.2671 20.9934 38.7235 20.6719C38.1833 20.3471 37.7657 19.8913 37.4707 19.3047C37.179 18.7147 37.0332 18.0237 37.0332 17.2315C37.0332 16.4493 37.179 15.7599 37.4707 15.1634C37.7657 14.5668 38.1767 14.1011 38.7037 13.7663C39.234 13.4316 39.8538 13.2642 40.563 13.2642C40.9939 13.2642 41.4115 13.3355 41.8159 13.478C42.2202 13.6205 42.5832 13.8442 42.9047 14.1491C43.2261 14.4541 43.4797 14.8501 43.6653 15.3374C43.8509 15.8213 43.9437 16.4096 43.9437 17.1023V17.6293H37.8734V16.5156H42.487C42.487 16.1245 42.4075 15.7782 42.2484 15.4766C42.0893 15.1716 41.8656 14.9313 41.5772 14.7557C41.2922 14.58 40.9574 14.4922 40.573 14.4922C40.1554 14.4922 39.7908 14.5949 39.4792 14.8004C39.171 15.0026 38.9324 15.2678 38.7633 15.5959C38.5976 15.9207 38.5147 16.2737 38.5147 16.6548V17.5249C38.5147 18.0353 38.6042 18.4695 38.7832 18.8274C38.9655 19.1854 39.219 19.4588 39.5439 19.6477C39.8687 19.8333 40.2482 19.9261 40.6824 19.9261C40.9641 19.9261 41.2209 19.8864 41.4529 19.8068C41.685 19.724 41.8855 19.6013 42.0545 19.4389C42.2235 19.2765 42.3528 19.076 42.4423 18.8374L43.8493 19.0909C43.7366 19.5052 43.5344 19.8681 43.2427 20.1797C42.9544 20.4879 42.5914 20.7282 42.1539 20.9006C41.7198 21.0696 41.2243 21.1541 40.6674 21.1541Z" fill="#111111"/>
</svg>
