<svg width="81" height="13" viewBox="0 0 81 13" fill="none" xmlns="http://www.w3.org/2000/svg">
<path d="M0.875 9.72727V8.30682L5.90341 0.363636H7.02273V2.45455H6.3125L2.71591 8.14773V8.23864H9.60795V9.72727H0.875ZM6.39205 12V9.29545L6.40341 8.64773V0.363636H8.06818V12H6.39205ZM22.3281 3.42045C22.2675 2.88258 22.0175 2.46591 21.5781 2.17045C21.1387 1.87121 20.5857 1.72159 19.919 1.72159C19.4418 1.72159 19.0289 1.79735 18.6804 1.94886C18.3319 2.09659 18.0611 2.30114 17.8679 2.5625C17.6785 2.82008 17.5838 3.11364 17.5838 3.44318C17.5838 3.7197 17.6482 3.95833 17.777 4.15909C17.9096 4.35985 18.0819 4.52841 18.294 4.66477C18.5099 4.79735 18.741 4.90909 18.9872 5C19.2334 5.08712 19.4702 5.15909 19.6974 5.21591L20.8338 5.51136C21.205 5.60227 21.5857 5.72538 21.9759 5.88068C22.366 6.03598 22.7277 6.24053 23.0611 6.49432C23.3944 6.74811 23.6634 7.0625 23.8679 7.4375C24.0762 7.8125 24.1804 8.26136 24.1804 8.78409C24.1804 9.44318 24.0099 10.0284 23.669 10.5398C23.3319 11.0511 22.8414 11.4545 22.1974 11.75C21.5573 12.0455 20.7827 12.1932 19.8736 12.1932C19.0024 12.1932 18.2486 12.0549 17.6122 11.7784C16.9759 11.5019 16.4777 11.1098 16.1179 10.6023C15.758 10.0909 15.5592 9.48485 15.5213 8.78409H17.2827C17.3168 9.20455 17.4531 9.55492 17.6918 9.83523C17.9342 10.1117 18.2429 10.3182 18.6179 10.4545C18.9967 10.5871 19.4115 10.6534 19.8622 10.6534C20.3584 10.6534 20.7997 10.5758 21.1861 10.4205C21.5762 10.2614 21.883 10.0417 22.1065 9.76136C22.33 9.47727 22.4418 9.14583 22.4418 8.76705C22.4418 8.42235 22.3433 8.14015 22.1463 7.92045C21.9531 7.70076 21.6899 7.51894 21.3565 7.375C21.027 7.23106 20.6539 7.10417 20.2372 6.99432L18.8622 6.61932C17.9304 6.36553 17.1918 5.99242 16.6463 5.5C16.1046 5.00758 15.8338 4.35606 15.8338 3.54545C15.8338 2.875 16.0156 2.28977 16.3793 1.78977C16.7429 1.28977 17.2353 0.901515 17.8565 0.625C18.4777 0.344697 19.1785 0.204545 19.9588 0.204545C20.7467 0.204545 21.4418 0.342803 22.044 0.619318C22.6501 0.895833 23.1274 1.27652 23.4759 1.76136C23.8243 2.24242 24.0062 2.79545 24.0213 3.42045H22.3281ZM29.9034 12.1761C29.0436 12.1761 28.303 11.9924 27.6818 11.625C27.0644 11.2538 26.5871 10.733 26.25 10.0625C25.9167 9.38826 25.75 8.59848 25.75 7.69318C25.75 6.79924 25.9167 6.01136 26.25 5.32955C26.5871 4.64773 27.0568 4.11553 27.6591 3.73295C28.2652 3.35038 28.9735 3.15909 29.7841 3.15909C30.2765 3.15909 30.7538 3.24053 31.2159 3.40341C31.678 3.56629 32.0928 3.82197 32.4602 4.17045C32.8277 4.51894 33.1174 4.97159 33.3295 5.52841C33.5417 6.08144 33.6477 6.75379 33.6477 7.54545V8.14773H26.7102V6.875H31.983C31.983 6.42803 31.892 6.0322 31.7102 5.6875C31.5284 5.33902 31.2727 5.06439 30.9432 4.86364C30.6174 4.66288 30.2348 4.5625 29.7955 4.5625C29.3182 4.5625 28.9015 4.67992 28.5455 4.91477C28.1932 5.14583 27.9205 5.44886 27.7273 5.82386C27.5379 6.19508 27.4432 6.59848 27.4432 7.03409V8.02841C27.4432 8.61174 27.5455 9.10795 27.75 9.51705C27.9583 9.92614 28.2481 10.2386 28.6193 10.4545C28.9905 10.6667 29.4242 10.7727 29.9205 10.7727C30.2424 10.7727 30.536 10.7273 30.8011 10.6364C31.0663 10.5417 31.2955 10.4015 31.4886 10.2159C31.6818 10.0303 31.8295 9.80114 31.9318 9.52841L33.5398 9.81818C33.411 10.2917 33.1799 10.7064 32.8466 11.0625C32.517 11.4148 32.1023 11.6894 31.6023 11.8864C31.1061 12.0795 30.5398 12.1761 29.9034 12.1761ZM37.2315 0.363636V12H35.5327V0.363636H37.2315ZM43.2784 12.1761C42.4186 12.1761 41.678 11.9924 41.0568 11.625C40.4394 11.2538 39.9621 10.733 39.625 10.0625C39.2917 9.38826 39.125 8.59848 39.125 7.69318C39.125 6.79924 39.2917 6.01136 39.625 5.32955C39.9621 4.64773 40.4318 4.11553 41.0341 3.73295C41.6402 3.35038 42.3485 3.15909 43.1591 3.15909C43.6515 3.15909 44.1288 3.24053 44.5909 3.40341C45.053 3.56629 45.4678 3.82197 45.8352 4.17045C46.2027 4.51894 46.4924 4.97159 46.7045 5.52841C46.9167 6.08144 47.0227 6.75379 47.0227 7.54545V8.14773H40.0852V6.875H45.358C45.358 6.42803 45.267 6.0322 45.0852 5.6875C44.9034 5.33902 44.6477 5.06439 44.3182 4.86364C43.9924 4.66288 43.6098 4.5625 43.1705 4.5625C42.6932 4.5625 42.2765 4.67992 41.9205 4.91477C41.5682 5.14583 41.2955 5.44886 41.1023 5.82386C40.9129 6.19508 40.8182 6.59848 40.8182 7.03409V8.02841C40.8182 8.61174 40.9205 9.10795 41.125 9.51705C41.3333 9.92614 41.6231 10.2386 41.9943 10.4545C42.3655 10.6667 42.7992 10.7727 43.2955 10.7727C43.6174 10.7727 43.911 10.7273 44.1761 10.6364C44.4413 10.5417 44.6705 10.4015 44.8636 10.2159C45.0568 10.0303 45.2045 9.80114 45.3068 9.52841L46.9148 9.81818C46.786 10.2917 46.5549 10.7064 46.2216 11.0625C45.892 11.4148 45.4773 11.6894 44.9773 11.8864C44.4811 12.0795 43.9148 12.1761 43.2784 12.1761ZM52.5838 12.1761C51.7391 12.1761 51.0118 11.9848 50.402 11.6023C49.7959 11.2159 49.33 10.6837 49.0043 10.0057C48.6785 9.32765 48.5156 8.55114 48.5156 7.67614C48.5156 6.78977 48.6823 6.00758 49.0156 5.32955C49.349 4.64773 49.8187 4.11553 50.4247 3.73295C51.0308 3.35038 51.7448 3.15909 52.5668 3.15909C53.2296 3.15909 53.8205 3.2822 54.3395 3.52841C54.8584 3.77083 55.277 4.11174 55.5952 4.55114C55.9171 4.99053 56.1084 5.50379 56.169 6.09091H54.5156C54.4247 5.68182 54.2164 5.32955 53.8906 5.03409C53.5687 4.73864 53.1368 4.59091 52.5952 4.59091C52.1217 4.59091 51.7069 4.71591 51.3509 4.96591C50.9986 5.21212 50.724 5.56439 50.527 6.02273C50.33 6.47727 50.2315 7.01515 50.2315 7.63636C50.2315 8.27273 50.3281 8.82197 50.5213 9.28409C50.7145 9.74621 50.9872 10.1042 51.3395 10.358C51.6955 10.6117 52.1141 10.7386 52.5952 10.7386C52.9171 10.7386 53.2088 10.6799 53.4702 10.5625C53.7353 10.4413 53.9569 10.2689 54.1349 10.0455C54.3168 9.82197 54.4437 9.55303 54.5156 9.23864H56.169C56.1084 9.80303 55.9247 10.3068 55.6179 10.75C55.3111 11.1932 54.9001 11.5417 54.3849 11.7955C53.8736 12.0492 53.2732 12.1761 52.5838 12.1761ZM62.0597 3.27273V4.63636H57.2926V3.27273H62.0597ZM58.571 1.18182H60.2699V9.4375C60.2699 9.76705 60.3191 10.0152 60.4176 10.1818C60.5161 10.3447 60.643 10.4564 60.7983 10.517C60.9574 10.5739 61.1297 10.6023 61.3153 10.6023C61.4517 10.6023 61.571 10.5928 61.6733 10.5739C61.7756 10.5549 61.8551 10.5398 61.9119 10.5284L62.2188 11.9318C62.1203 11.9697 61.9801 12.0076 61.7983 12.0455C61.6165 12.0871 61.3892 12.1098 61.1165 12.1136C60.6695 12.1212 60.2528 12.0417 59.8665 11.875C59.4801 11.7083 59.1676 11.4508 58.929 11.1023C58.6903 10.7538 58.571 10.3163 58.571 9.78977V1.18182ZM67.6065 12.1761C66.7467 12.1761 66.0062 11.9924 65.3849 11.625C64.7675 11.2538 64.2902 10.733 63.9531 10.0625C63.6198 9.38826 63.4531 8.59848 63.4531 7.69318C63.4531 6.79924 63.6198 6.01136 63.9531 5.32955C64.2902 4.64773 64.7599 4.11553 65.3622 3.73295C65.9683 3.35038 66.6766 3.15909 67.4872 3.15909C67.9796 3.15909 68.4569 3.24053 68.919 3.40341C69.3812 3.56629 69.7959 3.82197 70.1634 4.17045C70.5308 4.51894 70.8205 4.97159 71.0327 5.52841C71.2448 6.08144 71.3509 6.75379 71.3509 7.54545V8.14773H64.4134V6.875H69.6861C69.6861 6.42803 69.5952 6.0322 69.4134 5.6875C69.2315 5.33902 68.9759 5.06439 68.6463 4.86364C68.3205 4.66288 67.938 4.5625 67.4986 4.5625C67.0213 4.5625 66.6046 4.67992 66.2486 4.91477C65.8963 5.14583 65.6236 5.44886 65.4304 5.82386C65.241 6.19508 65.1463 6.59848 65.1463 7.03409V8.02841C65.1463 8.61174 65.2486 9.10795 65.4531 9.51705C65.6615 9.92614 65.9512 10.2386 66.3224 10.4545C66.6937 10.6667 67.1274 10.7727 67.6236 10.7727C67.9455 10.7727 68.2391 10.7273 68.5043 10.6364C68.7694 10.5417 68.9986 10.4015 69.1918 10.2159C69.3849 10.0303 69.5327 9.80114 69.6349 9.52841L71.2429 9.81818C71.1141 10.2917 70.883 10.7064 70.5497 11.0625C70.2202 11.4148 69.8054 11.6894 69.3054 11.8864C68.8092 12.0795 68.2429 12.1761 67.6065 12.1761ZM76.5028 12.1705C75.7983 12.1705 75.1695 11.9905 74.6165 11.6307C74.0672 11.267 73.6354 10.75 73.321 10.0795C73.0104 9.4053 72.8551 8.59659 72.8551 7.65341C72.8551 6.71023 73.0123 5.90341 73.3267 5.23295C73.6449 4.5625 74.0805 4.04924 74.6335 3.69318C75.1866 3.33712 75.8134 3.15909 76.5142 3.15909C77.0559 3.15909 77.4915 3.25 77.821 3.43182C78.1544 3.60985 78.4119 3.81818 78.5938 4.05682C78.7794 4.29545 78.9233 4.50568 79.0256 4.6875H79.1278V0.363636H80.8267V12H79.1676V10.642H79.0256C78.9233 10.8277 78.7756 11.0398 78.5824 11.2784C78.393 11.517 78.1316 11.7254 77.7983 11.9034C77.465 12.0814 77.0331 12.1705 76.5028 12.1705ZM76.8778 10.7216C77.3665 10.7216 77.7794 10.5928 78.1165 10.3352C78.4574 10.0739 78.715 9.71212 78.8892 9.25C79.0672 8.78788 79.1562 8.25 79.1562 7.63636C79.1562 7.0303 79.0691 6.5 78.8949 6.04545C78.7206 5.59091 78.465 5.23674 78.1278 4.98295C77.7907 4.72917 77.3741 4.60227 76.8778 4.60227C76.3665 4.60227 75.9403 4.73485 75.5994 5C75.2585 5.26515 75.0009 5.62689 74.8267 6.08523C74.6563 6.54356 74.571 7.06061 74.571 7.63636C74.571 8.2197 74.6581 8.74432 74.8324 9.21023C75.0066 9.67614 75.2642 10.0455 75.6051 10.3182C75.9498 10.5871 76.3741 10.7216 76.8778 10.7216Z" fill="#111111"/>
</svg>
