<svg width="94" height="32" viewBox="0 0 94 32" fill="none" xmlns="http://www.w3.org/2000/svg">
<path d="M8.61648 12.1406V10.8182H16.4964V12.1406H13.3196V21H11.7884V12.1406H8.61648ZM19.6049 16.4659V21H18.1184V10.8182H19.585V14.6065H19.6795C19.8585 14.1955 20.1319 13.8691 20.4998 13.6271C20.8677 13.3852 21.3483 13.2642 21.9416 13.2642C22.4653 13.2642 22.9226 13.3719 23.3137 13.5874C23.7082 13.8028 24.0131 14.1243 24.2285 14.5518C24.4473 14.9761 24.5566 15.5064 24.5566 16.1428V21H23.0701V16.3217C23.0701 15.7616 22.926 15.3274 22.6376 15.0192C22.3493 14.7076 21.9482 14.5518 21.4345 14.5518C21.0832 14.5518 20.7683 14.6264 20.4899 14.7756C20.2148 14.9247 19.9977 15.1435 19.8386 15.4318C19.6828 15.7169 19.6049 16.0616 19.6049 16.4659ZM26.5403 21V13.3636H28.0268V21H26.5403ZM27.291 12.1854C27.0325 12.1854 26.8104 12.0992 26.6248 11.9268C26.4425 11.7512 26.3514 11.5424 26.3514 11.3004C26.3514 11.0552 26.4425 10.8464 26.6248 10.674C26.8104 10.4983 27.0325 10.4105 27.291 10.4105C27.5495 10.4105 27.7699 10.4983 27.9522 10.674C28.1378 10.8464 28.2306 11.0552 28.2306 11.3004C28.2306 11.5424 28.1378 11.7512 27.9522 11.9268C27.7699 12.0992 27.5495 12.1854 27.291 12.1854ZM35.7489 15.228L34.4016 15.4666C34.3453 15.2943 34.2558 15.1302 34.1332 14.9744C34.0138 14.8187 33.8514 14.6911 33.646 14.5916C33.4405 14.4922 33.1836 14.4425 32.8754 14.4425C32.4544 14.4425 32.1031 14.5369 31.8214 14.7259C31.5397 14.9115 31.3988 15.1518 31.3988 15.4467C31.3988 15.7019 31.4933 15.9074 31.6822 16.0632C31.8711 16.219 32.176 16.3466 32.5969 16.446L33.81 16.7244C34.5127 16.8868 35.0363 17.1371 35.381 17.4751C35.7257 17.8132 35.8981 18.2524 35.8981 18.7926C35.8981 19.25 35.7655 19.6577 35.5004 20.0156C35.2385 20.3703 34.8723 20.6487 34.4016 20.8509C33.9343 21.053 33.3924 21.1541 32.7759 21.1541C31.9208 21.1541 31.2231 20.9718 30.6829 20.6072C30.1426 20.2393 29.8112 19.7173 29.6886 19.0412L31.1254 18.8224C31.2148 19.197 31.3988 19.4804 31.6772 19.6726C31.9556 19.8615 32.3185 19.956 32.766 19.956C33.2532 19.956 33.6426 19.8549 33.9343 19.6527C34.226 19.4472 34.3718 19.197 34.3718 18.902C34.3718 18.6634 34.2823 18.4628 34.1033 18.3004C33.9277 18.138 33.6576 18.0154 33.293 17.9325L32.0004 17.6491C31.2878 17.4867 30.7608 17.2282 30.4194 16.8736C30.0813 16.5189 29.9123 16.0698 29.9123 15.5263C29.9123 15.0755 30.0382 14.6811 30.2901 14.343C30.542 14.005 30.89 13.7415 31.3342 13.5526C31.7783 13.3603 32.2871 13.2642 32.8604 13.2642C33.6857 13.2642 34.3353 13.4432 34.8093 13.8011C35.2833 14.1558 35.5965 14.6314 35.7489 15.228ZM41.2376 23.8636V13.3636H42.6893V14.6016H42.8136C42.8997 14.4425 43.024 14.2585 43.1864 14.0497C43.3488 13.8409 43.5742 13.6586 43.8626 13.5028C44.1509 13.3438 44.5321 13.2642 45.006 13.2642C45.6225 13.2642 46.1727 13.42 46.6566 13.7315C47.1405 14.0431 47.52 14.4922 47.7951 15.0788C48.0735 15.6655 48.2127 16.3714 48.2127 17.1967C48.2127 18.022 48.0752 18.7296 47.8001 19.3196C47.525 19.9062 47.1471 20.3587 46.6665 20.6768C46.186 20.9917 45.6374 21.1491 45.021 21.1491C44.5569 21.1491 44.1774 21.0713 43.8825 20.9155C43.5908 20.7597 43.3621 20.5774 43.1964 20.3686C43.0307 20.1598 42.9031 19.9742 42.8136 19.8118H42.7241V23.8636H41.2376ZM42.6942 17.1818C42.6942 17.7187 42.7721 18.1894 42.9279 18.5938C43.0837 18.9981 43.3091 19.3146 43.604 19.5433C43.899 19.7687 44.2603 19.8814 44.6879 19.8814C45.132 19.8814 45.5032 19.7637 45.8015 19.5284C46.0998 19.2898 46.3252 18.9666 46.4776 18.5589C46.6334 18.1513 46.7113 17.6922 46.7113 17.1818C46.7113 16.678 46.6351 16.2256 46.4826 15.8246C46.3335 15.4235 46.1081 15.107 45.8065 14.875C45.5082 14.643 45.1353 14.527 44.6879 14.527C44.257 14.527 43.8924 14.638 43.5941 14.8601C43.2991 15.0821 43.0754 15.392 42.9229 15.7898C42.7705 16.1875 42.6942 16.6515 42.6942 17.1818ZM52.1005 21.169C51.6166 21.169 51.1791 21.0795 50.788 20.9006C50.3969 20.7183 50.087 20.4548 49.8583 20.1101C49.6329 19.7654 49.5202 19.3428 49.5202 18.8423C49.5202 18.4115 49.6031 18.0568 49.7688 17.7784C49.9345 17.5 50.1583 17.2796 50.44 17.1172C50.7217 16.9548 51.0366 16.8321 51.3846 16.7493C51.7326 16.6664 52.0872 16.6035 52.4485 16.5604C52.9059 16.5073 53.2771 16.4643 53.5621 16.4311C53.8472 16.3946 54.0543 16.3366 54.1836 16.2571C54.3129 16.1776 54.3775 16.0483 54.3775 15.8693V15.8345C54.3775 15.4003 54.2549 15.0639 54.0096 14.8253C53.7676 14.5866 53.4064 14.4673 52.9258 14.4673C52.4253 14.4673 52.0309 14.5784 51.7425 14.8004C51.4575 15.0192 51.2603 15.2628 51.1509 15.5312L49.7539 15.2131C49.9196 14.7491 50.1616 14.3745 50.4798 14.0895C50.8013 13.8011 51.1708 13.5923 51.5884 13.4631C52.006 13.3305 52.4452 13.2642 52.9059 13.2642C53.2108 13.2642 53.534 13.3007 53.8754 13.3736C54.2201 13.4432 54.5415 13.5724 54.8398 13.7614C55.1415 13.9503 55.3884 14.2204 55.5806 14.5717C55.7728 14.9197 55.869 15.3722 55.869 15.929V21H54.4173V19.956H54.3576C54.2615 20.1482 54.1173 20.3371 53.9251 20.5227C53.7328 20.7083 53.4859 20.8625 53.1843 20.9851C52.8827 21.1077 52.5214 21.169 52.1005 21.169ZM52.4237 19.9759C52.8346 19.9759 53.186 19.8946 53.4776 19.7322C53.7726 19.5698 53.9963 19.3577 54.1488 19.0959C54.3046 18.8307 54.3825 18.5473 54.3825 18.2457V17.2614C54.3294 17.3144 54.2267 17.3641 54.0742 17.4105C53.9251 17.4536 53.7544 17.4917 53.5621 17.5249C53.3699 17.5547 53.1826 17.5829 53.0004 17.6094C52.8181 17.6326 52.6656 17.6525 52.543 17.669C52.2546 17.7055 51.9911 17.7668 51.7525 17.853C51.5172 17.9392 51.3282 18.0634 51.1857 18.2259C51.0465 18.3849 50.9769 18.5971 50.9769 18.8622C50.9769 19.2301 51.1128 19.5085 51.3846 19.6974C51.6564 19.883 52.0027 19.9759 52.4237 19.9759ZM61.0506 24.0227C60.4441 24.0227 59.9221 23.9432 59.4846 23.7841C59.0504 23.625 58.6957 23.4145 58.4206 23.1527C58.1455 22.8909 57.94 22.6042 57.8042 22.2926L59.0819 21.7656C59.1713 21.9115 59.2907 22.0656 59.4398 22.228C59.5923 22.3937 59.7978 22.5346 60.0563 22.6506C60.3181 22.7666 60.6545 22.8246 61.0655 22.8246C61.629 22.8246 62.0946 22.687 62.4625 22.4119C62.8304 22.1402 63.0144 21.706 63.0144 21.1094V19.608H62.9199C62.8304 19.7704 62.7012 19.951 62.5321 20.1499C62.3664 20.3487 62.1377 20.5211 61.8461 20.6669C61.5544 20.8127 61.1749 20.8857 60.7076 20.8857C60.1043 20.8857 59.5608 20.7448 59.0769 20.4631C58.5963 20.178 58.2151 19.7588 57.9334 19.2053C57.655 18.6484 57.5158 17.964 57.5158 17.152C57.5158 16.34 57.6533 15.6439 57.9284 15.0639C58.2069 14.4839 58.588 14.0398 59.0719 13.7315C59.5558 13.42 60.1043 13.2642 60.7175 13.2642C61.1915 13.2642 61.5743 13.3438 61.8659 13.5028C62.1576 13.6586 62.3846 13.8409 62.5471 14.0497C62.7128 14.2585 62.8404 14.4425 62.9299 14.6016H63.0392V13.3636H64.4959V21.169C64.4959 21.8253 64.3435 22.3639 64.0385 22.7848C63.7336 23.2057 63.321 23.5173 62.8006 23.7195C62.2836 23.9216 61.7002 24.0227 61.0506 24.0227ZM61.0357 19.6527C61.4632 19.6527 61.8245 19.5533 62.1195 19.3544C62.4178 19.1522 62.6432 18.8639 62.7956 18.4893C62.9514 18.1115 63.0293 17.6591 63.0293 17.1321C63.0293 16.6184 62.9531 16.166 62.8006 15.7749C62.6481 15.3838 62.4244 15.0788 62.1294 14.8601C61.8345 14.638 61.4699 14.527 61.0357 14.527C60.5882 14.527 60.2154 14.643 59.9171 14.875C59.6188 15.1037 59.3934 15.4152 59.2409 15.8097C59.0918 16.2041 59.0172 16.6449 59.0172 17.1321C59.0172 17.6326 59.0935 18.0717 59.2459 18.4496C59.3984 18.8274 59.6238 19.1224 59.9221 19.3345C60.2237 19.5466 60.5949 19.6527 61.0357 19.6527ZM69.7807 21.1541C69.0283 21.1541 68.3804 20.9934 67.8368 20.6719C67.2966 20.3471 66.879 19.8913 66.584 19.3047C66.2923 18.7147 66.1465 18.0237 66.1465 17.2315C66.1465 16.4493 66.2923 15.7599 66.584 15.1634C66.879 14.5668 67.29 14.1011 67.8169 13.7663C68.3472 13.4316 68.967 13.2642 69.6763 13.2642C70.1072 13.2642 70.5248 13.3355 70.9292 13.478C71.3335 13.6205 71.6964 13.8442 72.0179 14.1491C72.3394 14.4541 72.593 14.8501 72.7786 15.3374C72.9642 15.8213 73.057 16.4096 73.057 17.1023V17.6293H66.9867V16.5156H71.6003C71.6003 16.1245 71.5208 15.7782 71.3617 15.4766C71.2026 15.1716 70.9789 14.9313 70.6905 14.7557C70.4055 14.58 70.0707 14.4922 69.6863 14.4922C69.2686 14.4922 68.9041 14.5949 68.5925 14.8004C68.2843 15.0026 68.0456 15.2678 67.8766 15.5959C67.7109 15.9207 67.628 16.2737 67.628 16.6548V17.5249C67.628 18.0353 67.7175 18.4695 67.8965 18.8274C68.0788 19.1854 68.3323 19.4588 68.6571 19.6477C68.9819 19.8333 69.3614 19.9261 69.7956 19.9261C70.0774 19.9261 70.3342 19.8864 70.5662 19.8068C70.7982 19.724 70.9988 19.6013 71.1678 19.4389C71.3368 19.2765 71.4661 19.076 71.5556 18.8374L72.9625 19.0909C72.8498 19.5052 72.6477 19.8681 72.356 20.1797C72.0676 20.4879 71.7047 20.7282 71.2672 20.9006C70.833 21.0696 70.3375 21.1541 69.7807 21.1541Z" fill="#111111"/>
<path d="M79.5 15.167L82 17.667L84.5 15.167" stroke="#767676" stroke-linecap="round" stroke-linejoin="round"/>
</svg>
