<svg width="16" height="17" viewBox="0 0 16 17" fill="none" xmlns="http://www.w3.org/2000/svg">
<path d="M1.25 4.5H14.75M13.25 4.5L12.724 12.3895C12.6451 13.5732 12.6057 14.165 12.35 14.6138C12.1249 15.0088 11.7854 15.3265 11.3762 15.5248C10.9115 15.75 10.3183 15.75 9.13201 15.75H6.86799C5.68168 15.75 5.08852 15.75 4.62375 15.5248C4.21457 15.3265 3.87507 15.0088 3.64999 14.6138C3.39433 14.165 3.35488 13.5732 3.27596 12.3895L2.75 4.5M6.5 7.875V11.625M9.5 7.875V11.625M11 4.5V3.9C11 3.05992 11 2.63988 10.8365 2.31901C10.6927 2.03677 10.4632 1.8073 10.181 1.66349C9.86012 1.5 9.44008 1.5 8.6 1.5H7.4C6.55992 1.5 6.13988 1.5 5.81901 1.66349C5.53677 1.8073 5.3073 2.03677 5.16349 2.31901C5 2.63988 5 3.05992 5 3.9V4.5" stroke="#111111" stroke-width="1.2" stroke-linecap="round" stroke-linejoin="round"/>
</svg>
