<svg width="102" height="32" viewBox="0 0 102 32" fill="none" xmlns="http://www.w3.org/2000/svg">
<path d="M0.5 6C0.5 2.96243 2.96243 0.5 6 0.5H96C99.0376 0.5 101.5 2.96243 101.5 6V26C101.5 29.0376 99.0376 31.5 96 31.5H6C2.96243 31.5 0.5 29.0376 0.5 26V6Z" fill="white"/>
<path d="M0.5 6C0.5 2.96243 2.96243 0.5 6 0.5H96C99.0376 0.5 101.5 2.96243 101.5 6V26C101.5 29.0376 99.0376 31.5 96 31.5H6C2.96243 31.5 0.5 29.0376 0.5 26V6Z" stroke="#E9E9E9"/>
<path d="M13.9787 21H12.348L16.0121 10.8182H17.7869L21.451 21H19.8203L16.9418 12.6676H16.8622L13.9787 21ZM14.2521 17.0128H19.5419V18.3054H14.2521V17.0128ZM25.5376 21.1491C24.9212 21.1491 24.371 20.9917 23.8871 20.6768C23.4065 20.3587 23.0286 19.9062 22.7536 19.3196C22.4818 18.7296 22.3459 18.022 22.3459 17.1967C22.3459 16.3714 22.4834 15.6655 22.7585 15.0788C23.0369 14.4922 23.4181 14.0431 23.902 13.7315C24.3859 13.42 24.9344 13.2642 25.5476 13.2642C26.0215 13.2642 26.4027 13.3438 26.6911 13.5028C26.9827 13.6586 27.2081 13.8409 27.3672 14.0497C27.5296 14.2585 27.6555 14.4425 27.745 14.6016H27.8345V10.8182H29.321V21H27.8693V19.8118H27.745C27.6555 19.9742 27.5263 20.1598 27.3572 20.3686C27.1915 20.5774 26.9628 20.7597 26.6712 20.9155C26.3795 21.0713 26.0017 21.1491 25.5376 21.1491ZM25.8658 19.8814C26.2933 19.8814 26.6546 19.7687 26.9496 19.5433C27.2479 19.3146 27.4732 18.9981 27.6257 18.5938C27.7815 18.1894 27.8594 17.7187 27.8594 17.1818C27.8594 16.6515 27.7831 16.1875 27.6307 15.7898C27.4782 15.392 27.2545 15.0821 26.9595 14.8601C26.6645 14.638 26.3 14.527 25.8658 14.527C25.4183 14.527 25.0455 14.643 24.7472 14.875C24.4489 15.107 24.2235 15.4235 24.071 15.8246C23.9219 16.2256 23.8473 16.678 23.8473 17.1818C23.8473 17.6922 23.9235 18.1513 24.076 18.5589C24.2285 18.9666 24.4538 19.2898 24.7521 19.5284C25.0537 19.7637 25.425 19.8814 25.8658 19.8814ZM34.3013 21.1491C33.6848 21.1491 33.1346 20.9917 32.6507 20.6768C32.1702 20.3587 31.7923 19.9062 31.5172 19.3196C31.2454 18.7296 31.1096 18.022 31.1096 17.1967C31.1096 16.3714 31.2471 15.6655 31.5222 15.0788C31.8006 14.4922 32.1818 14.0431 32.6657 13.7315C33.1496 13.42 33.6981 13.2642 34.3113 13.2642C34.7852 13.2642 35.1664 13.3438 35.4547 13.5028C35.7464 13.6586 35.9718 13.8409 36.1309 14.0497C36.2933 14.2585 36.4192 14.4425 36.5087 14.6016H36.5982V10.8182H38.0847V21H36.633V19.8118H36.5087C36.4192 19.9742 36.29 20.1598 36.1209 20.3686C35.9552 20.5774 35.7265 20.7597 35.4348 20.9155C35.1432 21.0713 34.7653 21.1491 34.3013 21.1491ZM34.6294 19.8814C35.057 19.8814 35.4183 19.7687 35.7132 19.5433C36.0115 19.3146 36.2369 18.9981 36.3894 18.5938C36.5452 18.1894 36.623 17.7187 36.623 17.1818C36.623 16.6515 36.5468 16.1875 36.3944 15.7898C36.2419 15.392 36.0182 15.0821 35.7232 14.8601C35.4282 14.638 35.0636 14.527 34.6294 14.527C34.182 14.527 33.8091 14.643 33.5108 14.875C33.2125 15.107 32.9872 15.4235 32.8347 15.8246C32.6855 16.2256 32.611 16.678 32.611 17.1818C32.611 17.6922 32.6872 18.1513 32.8397 18.5589C32.9921 18.9666 33.2175 19.2898 33.5158 19.5284C33.8174 19.7637 34.1886 19.8814 34.6294 19.8814ZM43.9114 23.8636V13.3636H45.3631V14.6016H45.4874C45.5736 14.4425 45.6979 14.2585 45.8603 14.0497C46.0227 13.8409 46.248 13.6586 46.5364 13.5028C46.8248 13.3438 47.2059 13.2642 47.6799 13.2642C48.2963 13.2642 48.8465 13.42 49.3304 13.7315C49.8143 14.0431 50.1938 14.4922 50.4689 15.0788C50.7473 15.6655 50.8865 16.3714 50.8865 17.1967C50.8865 18.022 50.749 18.7296 50.4739 19.3196C50.1988 19.9062 49.821 20.3587 49.3404 20.6768C48.8598 20.9917 48.3113 21.1491 47.6948 21.1491C47.2308 21.1491 46.8513 21.0713 46.5563 20.9155C46.2646 20.7597 46.0359 20.5774 45.8702 20.3686C45.7045 20.1598 45.5769 19.9742 45.4874 19.8118H45.3979V23.8636H43.9114ZM45.3681 17.1818C45.3681 17.7187 45.446 18.1894 45.6017 18.5938C45.7575 18.9981 45.9829 19.3146 46.2779 19.5433C46.5729 19.7687 46.9341 19.8814 47.3617 19.8814C47.8058 19.8814 48.177 19.7637 48.4753 19.5284C48.7736 19.2898 48.999 18.9666 49.1515 18.5589C49.3072 18.1513 49.3851 17.6922 49.3851 17.1818C49.3851 16.678 49.3089 16.2256 49.1564 15.8246C49.0073 15.4235 48.7819 15.107 48.4803 14.875C48.182 14.643 47.8091 14.527 47.3617 14.527C46.9308 14.527 46.5662 14.638 46.2679 14.8601C45.973 15.0821 45.7492 15.392 45.5968 15.7898C45.4443 16.1875 45.3681 16.6515 45.3681 17.1818ZM54.0385 16.4659V21H52.552V10.8182H54.0186V14.6065H54.1131C54.2921 14.1955 54.5655 13.8691 54.9334 13.6271C55.3013 13.3852 55.7819 13.2642 56.3752 13.2642C56.8989 13.2642 57.3562 13.3719 57.7473 13.5874C58.1417 13.8028 58.4467 14.1243 58.6621 14.5518C58.8809 14.9761 58.9902 15.5064 58.9902 16.1428V21H57.5037V16.3217C57.5037 15.7616 57.3596 15.3274 57.0712 15.0192C56.7828 14.7076 56.3818 14.5518 55.8681 14.5518C55.5167 14.5518 55.2019 14.6264 54.9235 14.7756C54.6484 14.9247 54.4313 15.1435 54.2722 15.4318C54.1164 15.7169 54.0385 16.0616 54.0385 16.4659ZM64.1905 21.1541C63.4746 21.1541 62.8498 20.9901 62.3162 20.6619C61.7826 20.3338 61.3683 19.8748 61.0733 19.2848C60.7783 18.6948 60.6309 18.0054 60.6309 17.2166C60.6309 16.4245 60.7783 15.7318 61.0733 15.1385C61.3683 14.5452 61.7826 14.0845 62.3162 13.7564C62.8498 13.4283 63.4746 13.2642 64.1905 13.2642C64.9064 13.2642 65.5312 13.4283 66.0648 13.7564C66.5984 14.0845 67.0127 14.5452 67.3077 15.1385C67.6027 15.7318 67.7502 16.4245 67.7502 17.2166C67.7502 18.0054 67.6027 18.6948 67.3077 19.2848C67.0127 19.8748 66.5984 20.3338 66.0648 20.6619C65.5312 20.9901 64.9064 21.1541 64.1905 21.1541ZM64.1955 19.9062C64.6595 19.9062 65.044 19.7836 65.3489 19.5384C65.6538 19.2931 65.8792 18.9666 66.025 18.5589C66.1742 18.1513 66.2488 17.7022 66.2488 17.2116C66.2488 16.7244 66.1742 16.277 66.025 15.8693C65.8792 15.4583 65.6538 15.1286 65.3489 14.88C65.044 14.6314 64.6595 14.5071 64.1955 14.5071C63.7282 14.5071 63.3404 14.6314 63.0321 14.88C62.7272 15.1286 62.5002 15.4583 62.351 15.8693C62.2052 16.277 62.1323 16.7244 62.1323 17.2116C62.1323 17.7022 62.2052 18.1513 62.351 18.5589C62.5002 18.9666 62.7272 19.2931 63.0321 19.5384C63.3404 19.7836 63.7282 19.9062 64.1955 19.9062ZM72.9741 13.3636V14.5568H68.8029V13.3636H72.9741ZM69.9215 11.5341H71.408V18.7578C71.408 19.0462 71.4511 19.2633 71.5373 19.4091C71.6235 19.5516 71.7345 19.6494 71.8704 19.7024C72.0096 19.7521 72.1604 19.777 72.3228 19.777C72.4421 19.777 72.5465 19.7687 72.636 19.7521C72.7255 19.7356 72.7951 19.7223 72.8448 19.7124L73.1133 20.9403C73.0271 20.9735 72.9045 21.0066 72.7454 21.0398C72.5863 21.0762 72.3874 21.0961 72.1488 21.0994C71.7577 21.1061 71.3931 21.0365 71.055 20.8906C70.717 20.7448 70.4435 20.5194 70.2347 20.2145C70.0259 19.9096 69.9215 19.5268 69.9215 19.0661V11.5341ZM77.753 21.1541C77.0371 21.1541 76.4123 20.9901 75.8787 20.6619C75.3451 20.3338 74.9308 19.8748 74.6358 19.2848C74.3408 18.6948 74.1934 18.0054 74.1934 17.2166C74.1934 16.4245 74.3408 15.7318 74.6358 15.1385C74.9308 14.5452 75.3451 14.0845 75.8787 13.7564C76.4123 13.4283 77.0371 13.2642 77.753 13.2642C78.4689 13.2642 79.0937 13.4283 79.6273 13.7564C80.1609 14.0845 80.5752 14.5452 80.8702 15.1385C81.1652 15.7318 81.3127 16.4245 81.3127 17.2166C81.3127 18.0054 81.1652 18.6948 80.8702 19.2848C80.5752 19.8748 80.1609 20.3338 79.6273 20.6619C79.0937 20.9901 78.4689 21.1541 77.753 21.1541ZM77.758 19.9062C78.222 19.9062 78.6065 19.7836 78.9114 19.5384C79.2163 19.2931 79.4417 18.9666 79.5875 18.5589C79.7367 18.1513 79.8113 17.7022 79.8113 17.2116C79.8113 16.7244 79.7367 16.277 79.5875 15.8693C79.4417 15.4583 79.2163 15.1286 78.9114 14.88C78.6065 14.6314 78.222 14.5071 77.758 14.5071C77.2907 14.5071 76.9029 14.6314 76.5946 14.88C76.2897 15.1286 76.0627 15.4583 75.9135 15.8693C75.7677 16.277 75.6948 16.7244 75.6948 17.2116C75.6948 17.7022 75.7677 18.1513 75.9135 18.5589C76.0627 18.9666 76.2897 19.2931 76.5946 19.5384C76.9029 19.7836 77.2907 19.9062 77.758 19.9062ZM88.6942 15.228L87.3469 15.4666C87.2906 15.2943 87.2011 15.1302 87.0785 14.9744C86.9592 14.8187 86.7968 14.6911 86.5913 14.5916C86.3858 14.4922 86.1289 14.4425 85.8207 14.4425C85.3997 14.4425 85.0484 14.5369 84.7667 14.7259C84.485 14.9115 84.3441 15.1518 84.3441 15.4467C84.3441 15.7019 84.4386 15.9074 84.6275 16.0632C84.8164 16.219 85.1213 16.3466 85.5423 16.446L86.7553 16.7244C87.458 16.8868 87.9817 17.1371 88.3263 17.4751C88.671 17.8132 88.8434 18.2524 88.8434 18.7926C88.8434 19.25 88.7108 19.6577 88.4457 20.0156C88.1838 20.3703 87.8176 20.6487 87.3469 20.8509C86.8796 21.053 86.3377 21.1541 85.7212 21.1541C84.8661 21.1541 84.1684 20.9718 83.6282 20.6072C83.0879 20.2393 82.7565 19.7173 82.6339 19.0412L84.0707 18.8224C84.1602 19.197 84.3441 19.4804 84.6225 19.6726C84.9009 19.8615 85.2638 19.956 85.7113 19.956C86.1985 19.956 86.5879 19.8549 86.8796 19.6527C87.1713 19.4472 87.3171 19.197 87.3171 18.902C87.3171 18.6634 87.2276 18.4628 87.0487 18.3004C86.873 18.138 86.6029 18.0154 86.2383 17.9325L84.9457 17.6491C84.2331 17.4867 83.7061 17.2282 83.3647 16.8736C83.0266 16.5189 82.8576 16.0698 82.8576 15.5263C82.8576 15.0755 82.9835 14.6811 83.2354 14.343C83.4873 14.005 83.8353 13.7415 84.2795 13.5526C84.7236 13.3603 85.2324 13.2642 85.8058 13.2642C86.631 13.2642 87.2807 13.4432 87.7546 13.8011C88.2286 14.1558 88.5418 14.6314 88.6942 15.228Z" fill="#111111"/>
</svg>
