<svg width="18" height="14" viewBox="0 0 18 14" fill="none" xmlns="http://www.w3.org/2000/svg">
<path d="M11.7 13C13.3802 13 14.2202 13 14.862 12.673C15.4265 12.3854 15.8854 11.9265 16.173 11.362C16.5 10.7202 16.5 9.88016 16.5 8.2V7.48822C16.5 6.75445 16.5 6.38757 16.4171 6.0423C16.3436 5.7362 16.2224 5.44356 16.0579 5.17515C15.8724 4.8724 15.613 4.61297 15.0941 4.09411L13.4059 2.40589C12.887 1.88703 12.6276 1.6276 12.3249 1.44208C12.0564 1.27759 11.7638 1.15638 11.4577 1.08289C11.1124 1 10.7455 1 10.0118 1H6.3C4.61984 1 3.77976 1 3.13803 1.32698C2.57354 1.6146 2.1146 2.07354 1.82698 2.63803C1.5 3.27976 1.5 4.11984 1.5 5.8V8.2C1.5 9.88016 1.5 10.7202 1.82698 11.362C2.1146 11.9265 2.57354 12.3854 3.13803 12.673C3.77976 13 4.61984 13 6.3 13H11.7Z" stroke="#111111" stroke-width="1.2" stroke-linecap="round" stroke-linejoin="round"/>
</svg>
