<svg width="78" height="32" viewBox="0 0 78 32" fill="none" xmlns="http://www.w3.org/2000/svg">
<path d="M13.1186 21V10.8182H19.4325V12.1406H14.6548V15.2429H18.9801V16.5604H14.6548V21H13.1186ZM22.6889 10.8182V21H21.2024V10.8182H22.6889ZM26.911 21.169C26.4271 21.169 25.9896 21.0795 25.5985 20.9006C25.2074 20.7183 24.8975 20.4548 24.6689 20.1101C24.4435 19.7654 24.3308 19.3428 24.3308 18.8423C24.3308 18.4115 24.4136 18.0568 24.5794 17.7784C24.7451 17.5 24.9688 17.2796 25.2505 17.1172C25.5323 16.9548 25.8471 16.8321 26.1951 16.7493C26.5431 16.6664 26.8978 16.6035 27.2591 16.5604C27.7164 16.5073 28.0877 16.4643 28.3727 16.4311C28.6577 16.3946 28.8649 16.3366 28.9941 16.2571C29.1234 16.1776 29.188 16.0483 29.188 15.8693V15.8345C29.188 15.4003 29.0654 15.0639 28.8201 14.8253C28.5782 14.5866 28.2169 14.4673 27.7363 14.4673C27.2359 14.4673 26.8414 14.5784 26.5531 14.8004C26.2681 15.0192 26.0708 15.2628 25.9615 15.5312L24.5645 15.2131C24.7302 14.7491 24.9721 14.3745 25.2903 14.0895C25.6118 13.8011 25.9814 13.5923 26.399 13.4631C26.8166 13.3305 27.2557 13.2642 27.7164 13.2642C28.0214 13.2642 28.3445 13.3007 28.6859 13.3736C29.0306 13.4432 29.3521 13.5724 29.6504 13.7614C29.952 13.9503 30.1989 14.2204 30.3912 14.5717C30.5834 14.9197 30.6795 15.3722 30.6795 15.929V21H29.2278V19.956H29.1681C29.072 20.1482 28.9279 20.3371 28.7356 20.5227C28.5434 20.7083 28.2965 20.8625 27.9949 20.9851C27.6932 21.1077 27.332 21.169 26.911 21.169ZM27.2342 19.9759C27.6452 19.9759 27.9965 19.8946 28.2882 19.7322C28.5832 19.5698 28.8069 19.3577 28.9593 19.0959C29.1151 18.8307 29.193 18.5473 29.193 18.2457V17.2614C29.14 17.3144 29.0372 17.3641 28.8848 17.4105C28.7356 17.4536 28.5649 17.4917 28.3727 17.5249C28.1805 17.5547 27.9932 17.5829 27.8109 17.6094C27.6286 17.6326 27.4761 17.6525 27.3535 17.669C27.0652 17.7055 26.8017 17.7668 26.563 17.853C26.3277 17.9392 26.1388 18.0634 25.9963 18.2259C25.8571 18.3849 25.7875 18.5971 25.7875 18.8622C25.7875 19.2301 25.9234 19.5085 26.1951 19.6974C26.4669 19.883 26.8133 19.9759 27.2342 19.9759ZM35.8612 24.0227C35.2546 24.0227 34.7326 23.9432 34.2951 23.7841C33.8609 23.625 33.5063 23.4145 33.2312 23.1527C32.9561 22.8909 32.7506 22.6042 32.6147 22.2926L33.8924 21.7656C33.9819 21.9115 34.1012 22.0656 34.2504 22.228C34.4028 22.3937 34.6083 22.5346 34.8668 22.6506C35.1287 22.7666 35.4651 22.8246 35.8761 22.8246C36.4395 22.8246 36.9052 22.687 37.2731 22.4119C37.641 22.1402 37.8249 21.706 37.8249 21.1094V19.608H37.7305C37.641 19.7704 37.5117 19.951 37.3427 20.1499C37.177 20.3487 36.9483 20.5211 36.6566 20.6669C36.3649 20.8127 35.9854 20.8857 35.5181 20.8857C34.9149 20.8857 34.3713 20.7448 33.8874 20.4631C33.4068 20.178 33.0257 19.7588 32.744 19.2053C32.4656 18.6484 32.3263 17.964 32.3263 17.152C32.3263 16.34 32.4639 15.6439 32.739 15.0639C33.0174 14.4839 33.3986 14.0398 33.8825 13.7315C34.3664 13.42 34.9149 13.2642 35.5281 13.2642C36.002 13.2642 36.3848 13.3438 36.6765 13.5028C36.9682 13.6586 37.1952 13.8409 37.3576 14.0497C37.5233 14.2585 37.6509 14.4425 37.7404 14.6016H37.8498V13.3636H39.3065V21.169C39.3065 21.8253 39.154 22.3639 38.8491 22.7848C38.5442 23.2057 38.1315 23.5173 37.6112 23.7195C37.0941 23.9216 36.5108 24.0227 35.8612 24.0227ZM35.8462 19.6527C36.2738 19.6527 36.6351 19.5533 36.93 19.3544C37.2283 19.1522 37.4537 18.8639 37.6062 18.4893C37.762 18.1115 37.8398 17.6591 37.8398 17.1321C37.8398 16.6184 37.7636 16.166 37.6112 15.7749C37.4587 15.3838 37.235 15.0788 36.94 14.8601C36.645 14.638 36.2804 14.527 35.8462 14.527C35.3988 14.527 35.0259 14.643 34.7276 14.875C34.4293 15.1037 34.204 15.4152 34.0515 15.8097C33.9023 16.2041 33.8278 16.6449 33.8278 17.1321C33.8278 17.6326 33.904 18.0717 34.0565 18.4496C34.2089 18.8274 34.4343 19.1224 34.7326 19.3345C35.0342 19.5466 35.4054 19.6527 35.8462 19.6527ZM44.5018 24.0227C43.8952 24.0227 43.3732 23.9432 42.9357 23.7841C42.5015 23.625 42.1469 23.4145 41.8718 23.1527C41.5967 22.8909 41.3912 22.6042 41.2553 22.2926L42.533 21.7656C42.6225 21.9115 42.7418 22.0656 42.891 22.228C43.0434 22.3937 43.2489 22.5346 43.5075 22.6506C43.7693 22.7666 44.1057 22.8246 44.5167 22.8246C45.0801 22.8246 45.5458 22.687 45.9137 22.4119C46.2816 22.1402 46.4656 21.706 46.4656 21.1094V19.608H46.3711C46.2816 19.7704 46.1523 19.951 45.9833 20.1499C45.8176 20.3487 45.5889 20.5211 45.2972 20.6669C45.0056 20.8127 44.6261 20.8857 44.1587 20.8857C43.5555 20.8857 43.012 20.7448 42.5281 20.4631C42.0475 20.178 41.6663 19.7588 41.3846 19.2053C41.1062 18.6484 40.967 17.964 40.967 17.152C40.967 16.34 41.1045 15.6439 41.3796 15.0639C41.658 14.4839 42.0392 14.0398 42.5231 13.7315C43.007 13.42 43.5555 13.2642 44.1687 13.2642C44.6426 13.2642 45.0254 13.3438 45.3171 13.5028C45.6088 13.6586 45.8358 13.8409 45.9982 14.0497C46.1639 14.2585 46.2915 14.4425 46.381 14.6016H46.4904V13.3636H47.9471V21.169C47.9471 21.8253 47.7946 22.3639 47.4897 22.7848C47.1848 23.2057 46.7721 23.5173 46.2518 23.7195C45.7347 23.9216 45.1514 24.0227 44.5018 24.0227ZM44.4869 19.6527C44.9144 19.6527 45.2757 19.5533 45.5707 19.3544C45.869 19.1522 46.0943 18.8639 46.2468 18.4893C46.4026 18.1115 46.4805 17.6591 46.4805 17.1321C46.4805 16.6184 46.4042 16.166 46.2518 15.7749C46.0993 15.3838 45.8756 15.0788 45.5806 14.8601C45.2856 14.638 44.921 14.527 44.4869 14.527C44.0394 14.527 43.6665 14.643 43.3683 14.875C43.07 15.1037 42.8446 15.4152 42.6921 15.8097C42.543 16.2041 42.4684 16.6449 42.4684 17.1321C42.4684 17.6326 42.5446 18.0717 42.6971 18.4496C42.8496 18.8274 43.0749 19.1224 43.3732 19.3345C43.6748 19.5466 44.046 19.6527 44.4869 19.6527ZM53.2319 21.1541C52.4795 21.1541 51.8316 20.9934 51.288 20.6719C50.7478 20.3471 50.3301 19.8913 50.0352 19.3047C49.7435 18.7147 49.5977 18.0237 49.5977 17.2315C49.5977 16.4493 49.7435 15.7599 50.0352 15.1634C50.3301 14.5668 50.7411 14.1011 51.2681 13.7663C51.7984 13.4316 52.4182 13.2642 53.1275 13.2642C53.5584 13.2642 53.976 13.3355 54.3803 13.478C54.7847 13.6205 55.1476 13.8442 55.4691 14.1491C55.7906 14.4541 56.0442 14.8501 56.2298 15.3374C56.4154 15.8213 56.5082 16.4096 56.5082 17.1023V17.6293H50.4379V16.5156H55.0515C55.0515 16.1245 54.9719 15.7782 54.8129 15.4766C54.6538 15.1716 54.43 14.9313 54.1417 14.7557C53.8567 14.58 53.5219 14.4922 53.1374 14.4922C52.7198 14.4922 52.3552 14.5949 52.0437 14.8004C51.7354 15.0026 51.4968 15.2678 51.3278 15.5959C51.1621 15.9207 51.0792 16.2737 51.0792 16.6548V17.5249C51.0792 18.0353 51.1687 18.4695 51.3477 18.8274C51.5299 19.1854 51.7835 19.4588 52.1083 19.6477C52.4331 19.8333 52.8126 19.9261 53.2468 19.9261C53.5285 19.9261 53.7854 19.8864 54.0174 19.8068C54.2494 19.724 54.4499 19.6013 54.619 19.4389C54.788 19.2765 54.9173 19.076 55.0067 18.8374L56.4137 19.0909C56.301 19.5052 56.0988 19.8681 55.8072 20.1797C55.5188 20.4879 55.1559 20.7282 54.7184 20.9006C54.2842 21.0696 53.7887 21.1541 53.2319 21.1541ZM61.0162 21.1491C60.3997 21.1491 59.8495 20.9917 59.3656 20.6768C58.885 20.3587 58.5072 19.9062 58.2321 19.3196C57.9603 18.7296 57.8244 18.022 57.8244 17.1967C57.8244 16.3714 57.9619 15.6655 58.237 15.0788C58.5154 14.4922 58.8966 14.0431 59.3805 13.7315C59.8644 13.42 60.4129 13.2642 61.0261 13.2642C61.5001 13.2642 61.8812 13.3438 62.1696 13.5028C62.4612 13.6586 62.6866 13.8409 62.8457 14.0497C63.0081 14.2585 63.1341 14.4425 63.2235 14.6016H63.313V10.8182H64.7995V21H63.3478V19.8118H63.2235C63.1341 19.9742 63.0048 20.1598 62.8358 20.3686C62.67 20.5774 62.4413 20.7597 62.1497 20.9155C61.858 21.0713 61.4802 21.1491 61.0162 21.1491ZM61.3443 19.8814C61.7718 19.8814 62.1331 19.7687 62.4281 19.5433C62.7264 19.3146 62.9518 18.9981 63.1042 18.5938C63.26 18.1894 63.3379 17.7187 63.3379 17.1818C63.3379 16.6515 63.2617 16.1875 63.1092 15.7898C62.9567 15.392 62.733 15.0821 62.438 14.8601C62.1431 14.638 61.7785 14.527 61.3443 14.527C60.8968 14.527 60.524 14.643 60.2257 14.875C59.9274 15.107 59.702 15.4235 59.5495 15.8246C59.4004 16.2256 59.3258 16.678 59.3258 17.1818C59.3258 17.6922 59.402 18.1513 59.5545 18.5589C59.707 18.9666 59.9324 19.2898 60.2306 19.5284C60.5323 19.7637 60.9035 19.8814 61.3443 19.8814Z" fill="#767676"/>
</svg>
