<svg width="18" height="18" viewBox="0 0 18 18" fill="none" xmlns="http://www.w3.org/2000/svg">
<path d="M14.55 10.5H11.7C11.28 10.5 11.0699 10.5 10.9095 10.5817C10.7684 10.6537 10.6537 10.7684 10.5817 10.9095C10.5 11.0699 10.5 11.28 10.5 11.7V13.8C10.5 14.22 10.5 14.4301 10.5817 14.5905C10.6537 14.7316 10.7684 14.8463 10.9095 14.9183C11.0699 15 11.28 15 11.7 15H14.55C14.97 15 15.1801 15 15.3405 14.9183C15.4816 14.8463 15.5963 14.7316 15.6683 14.5905C15.75 14.4301 15.75 14.22 15.75 13.8V11.7C15.75 11.28 15.75 11.0699 15.6683 10.9095C15.5963 10.7684 15.4816 10.6537 15.3405 10.5817C15.1801 10.5 14.97 10.5 14.55 10.5Z" stroke="#111111" stroke-width="1.2" stroke-linecap="round" stroke-linejoin="round"/>
<path d="M6.3 3H3.45C3.02996 3 2.81994 3 2.65951 3.08175C2.51839 3.15365 2.40365 3.26839 2.33175 3.40951C2.25 3.56994 2.25 3.77996 2.25 4.2V6.3C2.25 6.72004 2.25 6.93006 2.33175 7.09049C2.40365 7.23161 2.51839 7.34635 2.65951 7.41825C2.81994 7.5 3.02996 7.5 3.45 7.5H6.3C6.72004 7.5 6.93006 7.5 7.09049 7.41825C7.23161 7.34635 7.34635 7.23161 7.41825 7.09049C7.5 6.93006 7.5 6.72004 7.5 6.3V4.2C7.5 3.77996 7.5 3.56994 7.41825 3.40951C7.34635 3.26839 7.23161 3.15365 7.09049 3.08175C6.93006 3 6.72004 3 6.3 3Z" stroke="#111111" stroke-width="1.2" stroke-linecap="round" stroke-linejoin="round"/>
<path d="M14.55 3H11.7C11.28 3 11.0699 3 10.9095 3.08175C10.7684 3.15365 10.6537 3.26839 10.5817 3.40951C10.5 3.56994 10.5 3.77996 10.5 4.2V6.3C10.5 6.72004 10.5 6.93006 10.5817 7.09049C10.6537 7.23161 10.7684 7.34635 10.9095 7.41825C11.0699 7.5 11.28 7.5 11.7 7.5H14.55C14.97 7.5 15.1801 7.5 15.3405 7.41825C15.4816 7.34635 15.5963 7.23161 15.6683 7.09049C15.75 6.93006 15.75 6.72004 15.75 6.3V4.2C15.75 3.77996 15.75 3.56994 15.6683 3.40951C15.5963 3.26839 15.4816 3.15365 15.3405 3.08175C15.1801 3 14.97 3 14.55 3Z" stroke="#111111" stroke-width="1.2" stroke-linecap="round" stroke-linejoin="round"/>
<path d="M6.3 10.5H3.45C3.02996 10.5 2.81994 10.5 2.65951 10.5817C2.51839 10.6537 2.40365 10.7684 2.33175 10.9095C2.25 11.0699 2.25 11.28 2.25 11.7V13.8C2.25 14.22 2.25 14.4301 2.33175 14.5905C2.40365 14.7316 2.51839 14.8463 2.65951 14.9183C2.81994 15 3.02996 15 3.45 15H6.3C6.72004 15 6.93006 15 7.09049 14.9183C7.23161 14.8463 7.34635 14.7316 7.41825 14.5905C7.5 14.4301 7.5 14.22 7.5 13.8V11.7C7.5 11.28 7.5 11.0699 7.41825 10.9095C7.34635 10.7684 7.23161 10.6537 7.09049 10.5817C6.93006 10.5 6.72004 10.5 6.3 10.5Z" stroke="#111111" stroke-width="1.2" stroke-linecap="round" stroke-linejoin="round"/>
</svg>
