<svg width="16" height="16" viewBox="0 0 16 16" fill="none" xmlns="http://www.w3.org/2000/svg">
<path d="M1.25 6.92385C1.25 6.49308 1.25 6.2777 1.30552 6.07935C1.3547 5.90365 1.43552 5.73839 1.54402 5.5917C1.6665 5.4261 1.83652 5.29387 2.17654 5.0294L7.26327 1.07306C7.52677 0.86812 7.65851 0.765651 7.80399 0.726262C7.93235 0.691507 8.06765 0.691507 8.19601 0.726262C8.34149 0.765651 8.47324 0.868121 8.73673 1.07306L13.8235 5.02941C14.1635 5.29387 14.3335 5.4261 14.456 5.5917C14.5645 5.73839 14.6453 5.90365 14.6945 6.07935C14.75 6.2777 14.75 6.49308 14.75 6.92385V12.35C14.75 13.1901 14.75 13.6102 14.5865 13.931C14.4427 14.2133 14.2132 14.4427 13.931 14.5866C13.6101 14.75 13.1901 14.75 12.35 14.75H3.65C2.80992 14.75 2.38988 14.75 2.06901 14.5866C1.78677 14.4427 1.5573 14.2133 1.41349 13.931C1.25 13.6102 1.25 13.1901 1.25 12.35V6.92385Z" stroke="#111111" stroke-width="1.2" stroke-linecap="round" stroke-linejoin="round"/>
</svg>
