<svg width="45" height="31" viewBox="0 0 45 31" fill="none" xmlns="http://www.w3.org/2000/svg">
<path fill-rule="evenodd" clip-rule="evenodd" d="M8.71033 24.71C8.71033 24.71 8.70389 24.5527 8.70104 24.4726C8.69819 24.3925 8.7803 10.8692 8.7803 10.8692C8.84904 8.52413 9.22005 6.2132 10.1814 4.3765C11.1668 2.49407 12.7719 1.12157 15.1853 0.752141C19.7968 0.0462362 28.1264 0.660608 34.7191 4.68837C38.0363 6.715 40.9328 9.61882 42.6672 13.6645C45.7292 21.7234 43.7738 29.2234 43.7738 29.2234C43.7738 29.2234 43.5625 30.1692 43.5366 30.2997C43.5107 30.4302 43.4351 30.4658 43.3021 30.4658H35.8011C35.6472 30.4658 35.5224 30.341 35.5224 30.187V29.0252C35.5224 27.5207 34.8365 26.4283 33.7688 25.6833C32.6719 24.9179 31.1546 24.5161 29.584 24.5301C28.0139 24.5441 26.4903 24.9728 25.386 25.7498C24.3066 26.5093 23.6211 27.5915 23.6211 29.0252V30.187C23.6211 30.341 23.4963 30.4658 23.3424 30.4658L16.1185 30.4734C15.9415 30.4734 15.8185 30.3029 15.855 30.1297L16.0145 29.3709C16.2991 28.0178 16.5598 25.3969 16.6847 23.3323C16.7035 23.0221 16.2625 22.925 16.1277 23.205C13.5787 28.5 10.3957 29.6128 8.95264 30.1173C8.86166 30.1491 8.77759 30.1785 8.70104 30.2063C5.97228 31.1997 1.73941 29.5666 0.523255 26.9092C0.453676 26.7571 0.547293 26.585 0.710123 26.5471L2.82982 26.0533C2.96714 26.0213 3.10631 26.0977 3.15869 26.2286C3.85155 27.9604 5.3775 28.5145 6.76457 28.168C7.72794 27.8173 8.08617 27.1941 8.43653 26.4456C8.67506 25.9361 8.71033 24.71 8.71033 24.71ZM13.9687 13.0438C14.8922 13.0438 15.6409 12.295 15.6409 11.3713C15.6409 10.4476 14.8922 9.6988 13.9687 9.6988C13.0451 9.6988 12.2964 10.4476 12.2964 11.3713C12.2964 12.295 13.0451 13.0438 13.9687 13.0438Z" fill="url(#paint0_linear_9553_31646)"/>
<defs>
<linearGradient id="paint0_linear_9553_31646" x1="1.57424" y1="1.9252" x2="48.7157" y2="18.7738" gradientUnits="userSpaceOnUse">
<stop stop-color="#EC5A34"/>
<stop offset="1" stop-color="#B9075F"/>
</linearGradient>
</defs>
</svg>
