<svg width="20" height="20" viewBox="0 0 20 20" fill="none" xmlns="http://www.w3.org/2000/svg">
<path d="M9.76365 2.52447C9.64212 2.2085 9.33854 2 9 2C8.66146 2 8.35788 2.2085 8.23635 2.52447L6.59021 6.80445C6.34442 7.44349 6.26719 7.62764 6.16154 7.77621C6.05554 7.92529 5.92529 8.05554 5.77621 8.16154C5.62764 8.26719 5.44349 8.34442 4.80445 8.59021L0.524472 10.2364C0.208496 10.3579 0 10.6615 0 11C0 11.3385 0.208496 11.6421 0.524472 11.7636L4.80445 13.4098C5.44349 13.6556 5.62764 13.7328 5.77621 13.8385C5.92529 13.9445 6.05554 14.0747 6.16154 14.2238C6.26719 14.3724 6.34442 14.5565 6.59021 15.1956L8.23635 19.4755C8.35788 19.7915 8.66146 20 9 20C9.33854 20 9.64212 19.7915 9.76365 19.4755L11.4098 15.1956C11.6556 14.5565 11.7328 14.3724 11.8385 14.2238C11.9445 14.0747 12.0747 13.9445 12.2238 13.8385C12.3724 13.7328 12.5565 13.6556 13.1956 13.4098L17.4755 11.7636C17.7915 11.6421 18 11.3385 18 11C18 10.6615 17.7915 10.3579 17.4755 10.2364L13.1956 8.59021C12.5565 8.34443 12.3724 8.26719 12.2238 8.16154C12.0747 8.05554 11.9445 7.92529 11.8385 7.77621C11.7328 7.62764 11.6556 7.44349 11.4098 6.80445L9.76365 2.52447Z" fill="#F00040"/>
<path d="M17.2545 0.174824C17.214 0.0694987 17.1128 0 17 0C16.8872 0 16.786 0.0694988 16.7455 0.174824L16.1967 1.60148C16.1148 1.8145 16.0891 1.87588 16.0538 1.9254C16.0185 1.9751 15.9751 2.01851 15.9254 2.05385C15.8759 2.08906 15.8145 2.11481 15.6015 2.19674L14.1748 2.74545C14.0695 2.78596 14 2.88715 14 3C14 3.11285 14.0695 3.21404 14.1748 3.25455L15.6015 3.80326C15.8145 3.88519 15.8759 3.91094 15.9254 3.94615C15.9751 3.98149 16.0185 4.0249 16.0538 4.0746C16.0891 4.12412 16.1148 4.1855 16.1967 4.39852L16.7455 5.82518C16.786 5.9305 16.8872 6 17 6C17.1128 6 17.214 5.9305 17.2545 5.82518L17.8033 4.39852C17.8852 4.1855 17.9109 4.12412 17.9462 4.0746C17.9815 4.0249 18.0249 3.98149 18.0746 3.94615C18.1241 3.91094 18.1855 3.88519 18.3985 3.80326L19.8252 3.25455C19.9305 3.21404 20 3.11285 20 3C20 2.88715 19.9305 2.78596 19.8252 2.74545L18.3985 2.19674C18.1855 2.11481 18.1241 2.08906 18.0746 2.05385C18.0249 2.01851 17.9815 1.9751 17.9462 1.9254C17.9109 1.87588 17.8852 1.8145 17.8033 1.60148L17.2545 0.174824Z" fill="#F00040"/>
</svg>
