<svg width="14" height="14" viewBox="0 0 14 14" fill="none" xmlns="http://www.w3.org/2000/svg">
<path d="M6.84247 2.34961C6.76145 2.13896 6.55907 1.99996 6.33337 1.99996C6.10768 1.99996 5.9053 2.13896 5.82428 2.34961L4.72685 5.20293C4.56299 5.62895 4.5115 5.75172 4.44107 5.85077C4.3704 5.95015 4.28357 6.03699 4.18418 6.10766C4.08513 6.17809 3.96236 6.22958 3.53634 6.39343L0.683022 7.49086C0.472372 7.57188 0.333374 7.77427 0.333374 7.99996C0.333374 8.22565 0.472372 8.42804 0.683022 8.50906L3.53634 9.60649C3.96237 9.77034 4.08513 9.82183 4.18418 9.89226C4.28357 9.96293 4.3704 10.0498 4.44107 10.1492C4.5115 10.2482 4.56299 10.371 4.72685 10.797L5.82428 13.6503C5.9053 13.861 6.10768 14 6.33338 14C6.55907 14 6.76145 13.861 6.84247 13.6503L7.9399 10.797C8.10376 10.371 8.15525 10.2482 8.22568 10.1492C8.29635 10.0498 8.38318 9.96293 8.48257 9.89226C8.58162 9.82183 8.70438 9.77034 9.13041 9.60649L11.9837 8.50906C12.1944 8.42804 12.3334 8.22565 12.3334 7.99996C12.3334 7.77427 12.1944 7.57188 11.9837 7.49086L9.13041 6.39343C8.70438 6.22958 8.58162 6.17809 8.48257 6.10766C8.38318 6.03699 8.29635 5.95015 8.22568 5.85077C8.15525 5.75172 8.10376 5.62895 7.9399 5.20293L6.84247 2.34961Z" fill="white"/>
<path d="M11.8364 0.783175C11.8094 0.712958 11.7419 0.666626 11.6667 0.666626C11.5915 0.666626 11.524 0.712959 11.497 0.783175L11.1312 1.73428C11.0766 1.87629 11.0594 1.91721 11.0359 1.95023C11.0124 1.98336 10.9834 2.0123 10.9503 2.03586C10.9173 2.05933 10.8764 2.0765 10.7344 2.13112L9.78326 2.49693C9.71304 2.52393 9.66671 2.59139 9.66671 2.66663C9.66671 2.74186 9.71304 2.80932 9.78326 2.83633L10.7344 3.20214C10.8764 3.25675 10.9173 3.27392 10.9503 3.29739C10.9834 3.32095 11.0124 3.3499 11.0359 3.38302C11.0594 3.41604 11.0766 3.45696 11.1312 3.59897L11.497 4.55008C11.524 4.62029 11.5915 4.66663 11.6667 4.66663C11.7419 4.66663 11.8094 4.62029 11.8364 4.55008L12.2022 3.59897C12.2568 3.45696 12.274 3.41604 12.2975 3.38302C12.321 3.3499 12.35 3.32095 12.3831 3.29739C12.4161 3.27392 12.457 3.25675 12.5991 3.20214L13.5502 2.83633C13.6204 2.80932 13.6667 2.74186 13.6667 2.66663C13.6667 2.59139 13.6204 2.52393 13.5502 2.49693L12.5991 2.13112C12.457 2.0765 12.4161 2.05933 12.3831 2.03586C12.35 2.0123 12.321 1.98336 12.2975 1.95023C12.274 1.91721 12.2568 1.87629 12.2022 1.73428L11.8364 0.783175Z" fill="white"/>
</svg>
