<svg width="99" height="32" viewBox="0 0 99 32" fill="none" xmlns="http://www.w3.org/2000/svg">
<path d="M0 6C0 2.68629 2.68629 0 6 0H93C96.3137 0 99 2.68629 99 6V26C99 29.3137 96.3137 32 93 32H6C2.68629 32 0 29.3137 0 26V6Z" fill="#191919"/>
<path d="M21.3366 10.8182V21H19.9247L14.7493 13.5327H14.6548V21H13.1186V10.8182H14.5405L19.7209 18.2955H19.8153V10.8182H21.3366ZM26.7495 21.1541C25.9971 21.1541 25.3491 20.9934 24.8056 20.6719C24.2653 20.3471 23.8477 19.8913 23.5527 19.3047C23.2611 18.7147 23.1152 18.0237 23.1152 17.2315C23.1152 16.4493 23.2611 15.7599 23.5527 15.1634C23.8477 14.5668 24.2587 14.1011 24.7857 13.7663C25.316 13.4316 25.9358 13.2642 26.6451 13.2642C27.0759 13.2642 27.4935 13.3355 27.8979 13.478C28.3023 13.6205 28.6652 13.8442 28.9867 14.1491C29.3082 14.4541 29.5617 14.8501 29.7473 15.3374C29.9329 15.8213 30.0257 16.4096 30.0257 17.1023V17.6293H23.9554V16.5156H28.5691C28.5691 16.1245 28.4895 15.7782 28.3304 15.4766C28.1713 15.1716 27.9476 14.9313 27.6593 14.7557C27.3742 14.58 27.0395 14.4922 26.655 14.4922C26.2374 14.4922 25.8728 14.5949 25.5613 14.8004C25.253 15.0026 25.0144 15.2678 24.8453 15.5959C24.6796 15.9207 24.5968 16.2737 24.5968 16.6548V17.5249C24.5968 18.0353 24.6863 18.4695 24.8652 18.8274C25.0475 19.1854 25.3011 19.4588 25.6259 19.6477C25.9507 19.8333 26.3302 19.9261 26.7644 19.9261C27.0461 19.9261 27.303 19.8864 27.535 19.8068C27.767 19.724 27.9675 19.6013 28.1365 19.4389C28.3056 19.2765 28.4348 19.076 28.5243 18.8374L29.9313 19.0909C29.8186 19.5052 29.6164 19.8681 29.3248 20.1797C29.0364 20.4879 28.6735 20.7282 28.236 20.9006C27.8018 21.0696 27.3063 21.1541 26.7495 21.1541ZM33.3169 21L31.0698 13.3636H32.606L34.1025 18.9716H34.177L35.6784 13.3636H37.2147L38.7061 18.9467H38.7807L40.2672 13.3636H41.8034L39.5613 21H38.0449L36.4938 15.4865H36.3794L34.8283 21H33.3169ZM49.1415 21.169C48.6576 21.169 48.2201 21.0795 47.829 20.9006C47.4379 20.7183 47.128 20.4548 46.8993 20.1101C46.6739 19.7654 46.5613 19.3428 46.5613 18.8423C46.5613 18.4115 46.6441 18.0568 46.8098 17.7784C46.9756 17.5 47.1993 17.2796 47.481 17.1172C47.7627 16.9548 48.0776 16.8321 48.4256 16.7493C48.7736 16.6664 49.1283 16.6035 49.4895 16.5604C49.9469 16.5073 50.3181 16.4643 50.6032 16.4311C50.8882 16.3946 51.0953 16.3366 51.2246 16.2571C51.3539 16.1776 51.4185 16.0483 51.4185 15.8693V15.8345C51.4185 15.4003 51.2959 15.0639 51.0506 14.8253C50.8087 14.5866 50.4474 14.4673 49.9668 14.4673C49.4663 14.4673 49.0719 14.5784 48.7836 14.8004C48.4985 15.0192 48.3013 15.2628 48.1919 15.5312L46.7949 15.2131C46.9606 14.7491 47.2026 14.3745 47.5208 14.0895C47.8423 13.8011 48.2118 13.5923 48.6294 13.4631C49.0471 13.3305 49.4862 13.2642 49.9469 13.2642C50.2518 13.2642 50.575 13.3007 50.9164 13.3736C51.2611 13.4432 51.5826 13.5724 51.8809 13.7614C52.1825 13.9503 52.4294 14.2204 52.6216 14.5717C52.8139 14.9197 52.91 15.3722 52.91 15.929V21H51.4583V19.956H51.3986C51.3025 20.1482 51.1583 20.3371 50.9661 20.5227C50.7739 20.7083 50.5269 20.8625 50.2253 20.9851C49.9237 21.1077 49.5624 21.169 49.1415 21.169ZM49.4647 19.9759C49.8757 19.9759 50.227 19.8946 50.5186 19.7322C50.8136 19.5698 51.0373 19.3577 51.1898 19.0959C51.3456 18.8307 51.4235 18.5473 51.4235 18.2457V17.2614C51.3704 17.3144 51.2677 17.3641 51.1152 17.4105C50.9661 17.4536 50.7954 17.4917 50.6032 17.5249C50.4109 17.5547 50.2237 17.5829 50.0414 17.6094C49.8591 17.6326 49.7066 17.6525 49.584 17.669C49.2956 17.7055 49.0321 17.7668 48.7935 17.853C48.5582 17.9392 48.3693 18.0634 48.2267 18.2259C48.0875 18.3849 48.0179 18.5971 48.0179 18.8622C48.0179 19.2301 48.1538 19.5085 48.4256 19.6974C48.6974 19.883 49.0437 19.9759 49.4647 19.9759ZM56.3764 10.8182V21H54.8899V10.8182H56.3764ZM58.4956 21V10.8182H59.9821V14.6016H60.0716C60.1577 14.4425 60.282 14.2585 60.4444 14.0497C60.6068 13.8409 60.8322 13.6586 61.1206 13.5028C61.4089 13.3438 61.7901 13.2642 62.264 13.2642C62.8805 13.2642 63.4307 13.42 63.9146 13.7315C64.3985 14.0431 64.778 14.4922 65.0531 15.0788C65.3315 15.6655 65.4707 16.3714 65.4707 17.1967C65.4707 18.022 65.3332 18.7296 65.0581 19.3196C64.783 19.9062 64.4051 20.3587 63.9245 20.6768C63.444 20.9917 62.8954 21.1491 62.2789 21.1491C61.8149 21.1491 61.4354 21.0713 61.1404 20.9155C60.8488 20.7597 60.6201 20.5774 60.4544 20.3686C60.2886 20.1598 60.161 19.9742 60.0716 19.8118H59.9473V21H58.4956ZM59.9522 17.1818C59.9522 17.7187 60.0301 18.1894 60.1859 18.5938C60.3417 18.9981 60.5671 19.3146 60.862 19.5433C61.157 19.7687 61.5183 19.8814 61.9458 19.8814C62.39 19.8814 62.7612 19.7637 63.0595 19.5284C63.3578 19.2898 63.5832 18.9666 63.7356 18.5589C63.8914 18.1513 63.9693 17.6922 63.9693 17.1818C63.9693 16.678 63.8931 16.2256 63.7406 15.8246C63.5914 15.4235 63.3661 15.107 63.0645 14.875C62.7662 14.643 62.3933 14.527 61.9458 14.527C61.515 14.527 61.1504 14.638 60.8521 14.8601C60.5571 15.0821 60.3334 15.392 60.1809 15.7898C60.0285 16.1875 59.9522 16.6515 59.9522 17.1818ZM71.9773 17.8331V13.3636H73.4688V21H72.0071V19.6776H71.9276C71.7519 20.0852 71.4702 20.425 71.0824 20.6967C70.6979 20.9652 70.219 21.0994 69.6456 21.0994C69.1551 21.0994 68.7209 20.9917 68.343 20.7763C67.9685 20.5575 67.6735 20.2344 67.4581 19.8068C67.246 19.3793 67.1399 18.8506 67.1399 18.2209V13.3636H68.6264V18.0419C68.6264 18.5623 68.7706 18.9766 69.0589 19.2848C69.3473 19.593 69.7218 19.7472 70.1825 19.7472C70.4609 19.7472 70.7377 19.6776 71.0128 19.5384C71.2912 19.3991 71.5215 19.1887 71.7038 18.907C71.8894 18.6252 71.9806 18.2673 71.9773 17.8331ZM75.4661 21V13.3636H76.8929V14.6065H76.9874C77.1465 14.1856 77.4067 13.8575 77.7679 13.6222C78.1292 13.3835 78.5617 13.2642 79.0655 13.2642C79.5759 13.2642 80.0035 13.3835 80.3482 13.6222C80.6962 13.8608 80.9531 14.1889 81.1188 14.6065H81.1983C81.3806 14.1989 81.6706 13.8741 82.0684 13.6321C82.4661 13.3868 82.94 13.2642 83.4902 13.2642C84.1829 13.2642 84.748 13.4813 85.1855 13.9155C85.6264 14.3497 85.8468 15.0043 85.8468 15.8793V21H84.3603V16.0185C84.3603 15.5014 84.2194 15.1269 83.9377 14.8949C83.656 14.6629 83.3195 14.5469 82.9284 14.5469C82.4445 14.5469 82.0684 14.696 81.7999 14.9943C81.5314 15.2893 81.3972 15.6688 81.3972 16.1328V21H79.9157V15.924C79.9157 15.5097 79.7864 15.1766 79.5279 14.9247C79.2694 14.6728 78.9329 14.5469 78.5186 14.5469C78.2369 14.5469 77.9767 14.6214 77.7381 14.7706C77.5028 14.9164 77.3122 15.1203 77.1664 15.3821C77.0239 15.6439 76.9526 15.9472 76.9526 16.2919V21H75.4661Z" fill="white"/>
</svg>
