<svg width="98" height="32" viewBox="0 0 98 32" fill="none" xmlns="http://www.w3.org/2000/svg">
<path d="M0.5 6C0.5 2.96243 2.96243 0.5 6 0.5H92C95.0376 0.5 97.5 2.96243 97.5 6V26C97.5 29.0376 95.0376 31.5 92 31.5H6C2.96243 31.5 0.5 29.0376 0.5 26V6Z" fill="white"/>
<path d="M0.5 6C0.5 2.96243 2.96243 0.5 6 0.5H92C95.0376 0.5 97.5 2.96243 97.5 6V26C97.5 29.0376 95.0376 31.5 92 31.5H6C2.96243 31.5 0.5 29.0376 0.5 26V6Z" stroke="#E9E9E9"/>
<path d="M21.3366 10.8182V21H19.9247L14.7493 13.5327H14.6548V21H13.1186V10.8182H14.5405L19.7209 18.2955H19.8153V10.8182H21.3366ZM26.7495 21.1541C25.9971 21.1541 25.3491 20.9934 24.8056 20.6719C24.2653 20.3471 23.8477 19.8913 23.5527 19.3047C23.2611 18.7147 23.1152 18.0237 23.1152 17.2315C23.1152 16.4493 23.2611 15.7599 23.5527 15.1634C23.8477 14.5668 24.2587 14.1011 24.7857 13.7663C25.316 13.4316 25.9358 13.2642 26.6451 13.2642C27.0759 13.2642 27.4935 13.3355 27.8979 13.478C28.3023 13.6205 28.6652 13.8442 28.9867 14.1491C29.3082 14.4541 29.5617 14.8501 29.7473 15.3374C29.9329 15.8213 30.0257 16.4096 30.0257 17.1023V17.6293H23.9554V16.5156H28.5691C28.5691 16.1245 28.4895 15.7782 28.3304 15.4766C28.1713 15.1716 27.9476 14.9313 27.6593 14.7557C27.3742 14.58 27.0395 14.4922 26.655 14.4922C26.2374 14.4922 25.8728 14.5949 25.5613 14.8004C25.253 15.0026 25.0144 15.2678 24.8453 15.5959C24.6796 15.9207 24.5968 16.2737 24.5968 16.6548V17.5249C24.5968 18.0353 24.6863 18.4695 24.8652 18.8274C25.0475 19.1854 25.3011 19.4588 25.6259 19.6477C25.9507 19.8333 26.3302 19.9261 26.7644 19.9261C27.0461 19.9261 27.303 19.8864 27.535 19.8068C27.767 19.724 27.9675 19.6013 28.1365 19.4389C28.3056 19.2765 28.4348 19.076 28.5243 18.8374L29.9313 19.0909C29.8186 19.5052 29.6164 19.8681 29.3248 20.1797C29.0364 20.4879 28.6735 20.7282 28.236 20.9006C27.8018 21.0696 27.3063 21.1541 26.7495 21.1541ZM33.3169 21L31.0698 13.3636H32.606L34.1025 18.9716H34.177L35.6784 13.3636H37.2147L38.7061 18.9467H38.7807L40.2672 13.3636H41.8034L39.5613 21H38.0449L36.4938 15.4865H36.3794L34.8283 21H33.3169ZM50.1209 24.0227C49.5144 24.0227 48.9924 23.9432 48.5549 23.7841C48.1207 23.625 47.766 23.4145 47.4909 23.1527C47.2158 22.8909 47.0104 22.6042 46.8745 22.2926L48.1522 21.7656C48.2417 21.9115 48.361 22.0656 48.5101 22.228C48.6626 22.3937 48.8681 22.5346 49.1266 22.6506C49.3884 22.7666 49.7248 22.8246 50.1358 22.8246C50.6993 22.8246 51.165 22.687 51.5328 22.4119C51.9007 22.1402 52.0847 21.706 52.0847 21.1094V19.608H51.9902C51.9007 19.7704 51.7715 19.951 51.6025 20.1499C51.4367 20.3487 51.208 20.5211 50.9164 20.6669C50.6247 20.8127 50.2452 20.8857 49.7779 20.8857C49.1747 20.8857 48.6311 20.7448 48.1472 20.4631C47.6666 20.178 47.2855 19.7588 47.0037 19.2053C46.7253 18.6484 46.5861 17.964 46.5861 17.152C46.5861 16.34 46.7237 15.6439 46.9988 15.0639C47.2772 14.4839 47.6583 14.0398 48.1422 13.7315C48.6261 13.42 49.1747 13.2642 49.7878 13.2642C50.2618 13.2642 50.6446 13.3438 50.9363 13.5028C51.2279 13.6586 51.455 13.8409 51.6174 14.0497C51.7831 14.2585 51.9107 14.4425 52.0002 14.6016H52.1096V13.3636H53.5662V21.169C53.5662 21.8253 53.4138 22.3639 53.1088 22.7848C52.8039 23.2057 52.3913 23.5173 51.8709 23.7195C51.3539 23.9216 50.7705 24.0227 50.1209 24.0227ZM50.106 19.6527C50.5336 19.6527 50.8948 19.5533 51.1898 19.3544C51.4881 19.1522 51.7135 18.8639 51.8659 18.4893C52.0217 18.1115 52.0996 17.6591 52.0996 17.1321C52.0996 16.6184 52.0234 16.166 51.8709 15.7749C51.7185 15.3838 51.4947 15.0788 51.1998 14.8601C50.9048 14.638 50.5402 14.527 50.106 14.527C49.6586 14.527 49.2857 14.643 48.9874 14.875C48.6891 15.1037 48.4637 15.4152 48.3113 15.8097C48.1621 16.2041 48.0875 16.6449 48.0875 17.1321C48.0875 17.6326 48.1638 18.0717 48.3162 18.4496C48.4687 18.8274 48.6941 19.1224 48.9924 19.3345C49.294 19.5466 49.6652 19.6527 50.106 19.6527ZM55.5598 21V13.3636H56.9966V14.5767H57.0762C57.2154 14.1657 57.4606 13.8426 57.812 13.6072C58.1666 13.3686 58.5676 13.2493 59.0151 13.2493C59.1079 13.2493 59.2173 13.2526 59.3432 13.2592C59.4725 13.2659 59.5736 13.2741 59.6465 13.2841V14.706C59.5868 14.6894 59.4808 14.6712 59.3283 14.6513C59.1758 14.6281 59.0234 14.6165 58.8709 14.6165C58.5196 14.6165 58.2064 14.6911 57.9313 14.8402C57.6595 14.986 57.4441 15.1899 57.285 15.4517C57.1259 15.7102 57.0463 16.0052 57.0463 16.3366V21H55.5598ZM63.8761 21.1541C63.1602 21.1541 62.5354 20.9901 62.0018 20.6619C61.4682 20.3338 61.0539 19.8748 60.7589 19.2848C60.4639 18.6948 60.3164 18.0054 60.3164 17.2166C60.3164 16.4245 60.4639 15.7318 60.7589 15.1385C61.0539 14.5452 61.4682 14.0845 62.0018 13.7564C62.5354 13.4283 63.1602 13.2642 63.8761 13.2642C64.592 13.2642 65.2167 13.4283 65.7504 13.7564C66.284 14.0845 66.6983 14.5452 66.9933 15.1385C67.2882 15.7318 67.4357 16.4245 67.4357 17.2166C67.4357 18.0054 67.2882 18.6948 66.9933 19.2848C66.6983 19.8748 66.284 20.3338 65.7504 20.6619C65.2167 20.9901 64.592 21.1541 63.8761 21.1541ZM63.881 19.9062C64.3451 19.9062 64.7295 19.7836 65.0344 19.5384C65.3394 19.2931 65.5647 18.9666 65.7106 18.5589C65.8597 18.1513 65.9343 17.7022 65.9343 17.2116C65.9343 16.7244 65.8597 16.277 65.7106 15.8693C65.5647 15.4583 65.3394 15.1286 65.0344 14.88C64.7295 14.6314 64.3451 14.5071 63.881 14.5071C63.4137 14.5071 63.0259 14.6314 62.7177 14.88C62.4128 15.1286 62.1857 15.4583 62.0366 15.8693C61.8907 16.277 61.8178 16.7244 61.8178 17.2116C61.8178 17.7022 61.8907 18.1513 62.0366 18.5589C62.1857 18.9666 62.4128 19.2931 62.7177 19.5384C63.0259 19.7836 63.4137 19.9062 63.881 19.9062ZM73.9324 17.8331V13.3636H75.4238V21H73.9622V19.6776H73.8826C73.707 20.0852 73.4252 20.425 73.0375 20.6967C72.653 20.9652 72.1741 21.0994 71.6007 21.0994C71.1101 21.0994 70.676 20.9917 70.2981 20.7763C69.9236 20.5575 69.6286 20.2344 69.4132 19.8068C69.2011 19.3793 69.095 18.8506 69.095 18.2209V13.3636H70.5815V18.0419C70.5815 18.5623 70.7257 18.9766 71.014 19.2848C71.3024 19.593 71.6769 19.7472 72.1376 19.7472C72.416 19.7472 72.6928 19.6776 72.9679 19.5384C73.2463 19.3991 73.4766 19.1887 73.6589 18.907C73.8445 18.6252 73.9357 18.2673 73.9324 17.8331ZM77.4212 23.8636V13.3636H78.8729V14.6016H78.9972C79.0833 14.4425 79.2076 14.2585 79.37 14.0497C79.5324 13.8409 79.7578 13.6586 80.0462 13.5028C80.3345 13.3438 80.7157 13.2642 81.1896 13.2642C81.8061 13.2642 82.3563 13.42 82.8402 13.7315C83.3241 14.0431 83.7036 14.4922 83.9787 15.0788C84.2571 15.6655 84.3963 16.3714 84.3963 17.1967C84.3963 18.022 84.2588 18.7296 83.9837 19.3196C83.7086 19.9062 83.3307 20.3587 82.8501 20.6768C82.3696 20.9917 81.821 21.1491 81.2045 21.1491C80.7405 21.1491 80.361 21.0713 80.0661 20.9155C79.7744 20.7597 79.5457 20.5774 79.38 20.3686C79.2143 20.1598 79.0866 19.9742 78.9972 19.8118H78.9077V23.8636H77.4212ZM78.8778 17.1818C78.8778 17.7187 78.9557 18.1894 79.1115 18.5938C79.2673 18.9981 79.4927 19.3146 79.7876 19.5433C80.0826 19.7687 80.4439 19.8814 80.8714 19.8814C81.3156 19.8814 81.6868 19.7637 81.9851 19.5284C82.2834 19.2898 82.5088 18.9666 82.6612 18.5589C82.817 18.1513 82.8949 17.6922 82.8949 17.1818C82.8949 16.678 82.8187 16.2256 82.6662 15.8246C82.517 15.4235 82.2917 15.107 81.9901 14.875C81.6918 14.643 81.3189 14.527 80.8714 14.527C80.4406 14.527 80.076 14.638 79.7777 14.8601C79.4827 15.0821 79.259 15.392 79.1065 15.7898C78.9541 16.1875 78.8778 16.6515 78.8778 17.1818Z" fill="#111111"/>
</svg>
