<svg width="63" height="32" viewBox="0 0 63 32" fill="none" xmlns="http://www.w3.org/2000/svg">
<path d="M0 6C0 2.68629 2.68629 0 6 0H57C60.3137 0 63 2.68629 63 6V26C63 29.3137 60.3137 32 57 32H6C2.68629 32 0 29.3137 0 26V6Z" fill="black" fill-opacity="0.04"/>
<path d="M21.9631 15.9091C21.9631 16.9962 21.7642 17.9309 21.3665 18.7131C20.9688 19.492 20.4235 20.0919 19.7308 20.5128C19.0414 20.9304 18.2576 21.1392 17.3793 21.1392C16.4976 21.1392 15.7105 20.9304 15.0178 20.5128C14.3284 20.0919 13.7848 19.4903 13.3871 18.7081C12.9893 17.9259 12.7905 16.9929 12.7905 15.9091C12.7905 14.822 12.9893 13.889 13.3871 13.1101C13.7848 12.3279 14.3284 11.728 15.0178 11.3104C15.7105 10.8894 16.4976 10.679 17.3793 10.679C18.2576 10.679 19.0414 10.8894 19.7308 11.3104C20.4235 11.728 20.9688 12.3279 21.3665 13.1101C21.7642 13.889 21.9631 14.822 21.9631 15.9091ZM20.4418 15.9091C20.4418 15.0805 20.3075 14.3828 20.0391 13.8161C19.7739 13.246 19.4093 12.8151 18.9453 12.5234C18.4846 12.2285 17.9626 12.081 17.3793 12.081C16.7926 12.081 16.2689 12.2285 15.8082 12.5234C15.3475 12.8151 14.983 13.246 14.7145 13.8161C14.4493 14.3828 14.3168 15.0805 14.3168 15.9091C14.3168 16.7377 14.4493 17.437 14.7145 18.0071C14.983 18.5739 15.3475 19.0047 15.8082 19.2997C16.2689 19.5914 16.7926 19.7372 17.3793 19.7372C17.9626 19.7372 18.4846 19.5914 18.9453 19.2997C19.4093 19.0047 19.7739 18.5739 20.0391 18.0071C20.3075 17.437 20.4418 16.7377 20.4418 15.9091ZM27.3237 13.3636V14.5568H23.1525V13.3636H27.3237ZM24.2711 11.5341H25.7576V18.7578C25.7576 19.0462 25.8007 19.2633 25.8869 19.4091C25.9731 19.5516 26.0841 19.6494 26.22 19.7024C26.3592 19.7521 26.51 19.777 26.6724 19.777C26.7917 19.777 26.8961 19.7687 26.9856 19.7521C27.0751 19.7356 27.1447 19.7223 27.1944 19.7124L27.4629 20.9403C27.3767 20.9735 27.2541 21.0066 27.095 21.0398C26.9359 21.0762 26.737 21.0961 26.4984 21.0994C26.1073 21.1061 25.7427 21.0365 25.4047 20.8906C25.0666 20.7448 24.7931 20.5194 24.5843 20.2145C24.3755 19.9096 24.2711 19.5268 24.2711 19.0661V11.5341ZM30.6186 16.4659V21H29.1321V10.8182H30.5987V14.6065H30.6932C30.8722 14.1955 31.1456 13.8691 31.5135 13.6271C31.8814 13.3852 32.362 13.2642 32.9553 13.2642C33.4789 13.2642 33.9363 13.3719 34.3274 13.5874C34.7218 13.8028 35.0268 14.1243 35.2422 14.5518C35.4609 14.9761 35.5703 15.5064 35.5703 16.1428V21H34.0838V16.3217C34.0838 15.7616 33.9396 15.3274 33.6513 15.0192C33.3629 14.7076 32.9619 14.5518 32.4482 14.5518C32.0968 14.5518 31.782 14.6264 31.5036 14.7756C31.2285 14.9247 31.0114 15.1435 30.8523 15.4318C30.6965 15.7169 30.6186 16.0616 30.6186 16.4659ZM40.8452 21.1541C40.0928 21.1541 39.4448 20.9934 38.9013 20.6719C38.361 20.3471 37.9434 19.8913 37.6484 19.3047C37.3568 18.7147 37.2109 18.0237 37.2109 17.2315C37.2109 16.4493 37.3568 15.7599 37.6484 15.1634C37.9434 14.5668 38.3544 14.1011 38.8814 13.7663C39.4117 13.4316 40.0315 13.2642 40.7408 13.2642C41.1716 13.2642 41.5893 13.3355 41.9936 13.478C42.398 13.6205 42.7609 13.8442 43.0824 14.1491C43.4039 14.4541 43.6574 14.8501 43.843 15.3374C44.0286 15.8213 44.1214 16.4096 44.1214 17.1023V17.6293H38.0511V16.5156H42.6648C42.6648 16.1245 42.5852 15.7782 42.4261 15.4766C42.267 15.1716 42.0433 14.9313 41.755 14.7557C41.4699 14.58 41.1352 14.4922 40.7507 14.4922C40.3331 14.4922 39.9685 14.5949 39.657 14.8004C39.3487 15.0026 39.1101 15.2678 38.9411 15.5959C38.7753 15.9207 38.6925 16.2737 38.6925 16.6548V17.5249C38.6925 18.0353 38.782 18.4695 38.9609 18.8274C39.1432 19.1854 39.3968 19.4588 39.7216 19.6477C40.0464 19.8333 40.4259 19.9261 40.8601 19.9261C41.1418 19.9261 41.3987 19.8864 41.6307 19.8068C41.8627 19.724 42.0632 19.6013 42.2322 19.4389C42.4013 19.2765 42.5305 19.076 42.62 18.8374L44.027 19.0909C43.9143 19.5052 43.7121 19.8681 43.4205 20.1797C43.1321 20.4879 42.7692 20.7282 42.3317 20.9006C41.8975 21.0696 41.402 21.1541 40.8452 21.1541ZM45.7708 21V13.3636H47.2076V14.5767H47.2871C47.4263 14.1657 47.6716 13.8426 48.0229 13.6072C48.3775 13.3686 48.7786 13.2493 49.226 13.2493C49.3188 13.2493 49.4282 13.2526 49.5542 13.2592C49.6834 13.2659 49.7845 13.2741 49.8574 13.2841V14.706C49.7978 14.6894 49.6917 14.6712 49.5392 14.6513C49.3868 14.6281 49.2343 14.6165 49.0819 14.6165C48.7305 14.6165 48.4173 14.6911 48.1422 14.8402C47.8704 14.986 47.655 15.1899 47.4959 15.4517C47.3368 15.7102 47.2573 16.0052 47.2573 16.3366V21H45.7708Z" fill="#111111"/>
</svg>
