<svg width="56" height="56" viewBox="0 0 56 56" fill="none" xmlns="http://www.w3.org/2000/svg">
<path d="M0 8C0 3.58172 3.58172 0 8 0H48C52.4183 0 56 3.58172 56 8V48C56 52.4183 52.4183 56 48 56H8C3.58172 56 0 52.4183 0 48V8Z" fill="#F1F1F1"/>
<path d="M20.2721 36.7279L26.8686 30.1314C27.2646 29.7354 27.4627 29.5373 27.691 29.4632C27.8918 29.3979 28.1082 29.3979 28.309 29.4632C28.5373 29.5373 28.7354 29.7354 29.1314 30.1314L35.6839 36.6839M30 31L32.8686 28.1314C33.2646 27.7354 33.4627 27.5373 33.691 27.4632C33.8918 27.3979 34.1082 27.3979 34.309 27.4632C34.5373 27.5373 34.7354 27.7354 35.1314 28.1314L38 31M26 25C26 26.1046 25.1046 27 24 27C22.8954 27 22 26.1046 22 25C22 23.8954 22.8954 23 24 23C25.1046 23 26 23.8954 26 25ZM22.8 37H33.2C34.8802 37 35.7202 37 36.362 36.673C36.9265 36.3854 37.3854 35.9265 37.673 35.362C38 34.7202 38 33.8802 38 32.2V23.8C38 22.1198 38 21.2798 37.673 20.638C37.3854 20.0735 36.9265 19.6146 36.362 19.327C35.7202 19 34.8802 19 33.2 19H22.8C21.1198 19 20.2798 19 19.638 19.327C19.0735 19.6146 18.6146 20.0735 18.327 20.638C18 21.2798 18 22.1198 18 23.8V32.2C18 33.8802 18 34.7202 18.327 35.362C18.6146 35.9265 19.0735 36.3854 19.638 36.673C20.2798 37 21.1198 37 22.8 37Z" stroke="#111111" stroke-width="1.2" stroke-linecap="round" stroke-linejoin="round"/>
</svg>
