<svg width="16" height="16" viewBox="0 0 16 16" fill="none" xmlns="http://www.w3.org/2000/svg">
<path d="M11.15 14.75H4.19853C3.74417 14.75 3.51699 14.75 3.41179 14.6602C3.32051 14.5822 3.27207 14.4652 3.28149 14.3456C3.29234 14.2077 3.45298 14.047 3.77426 13.7257L10.1515 7.34853C10.4485 7.05152 10.597 6.90301 10.7682 6.84737C10.9189 6.79842 11.0811 6.79842 11.2318 6.84737C11.403 6.90301 11.5515 7.05152 11.8485 7.34853L14.75 10.25V11.15M11.15 14.75C12.4101 14.75 13.0402 14.75 13.5215 14.5048C13.9448 14.289 14.289 13.9448 14.5048 13.5215C14.75 13.0402 14.75 12.4101 14.75 11.15M11.15 14.75H4.85C3.58988 14.75 2.95982 14.75 2.47852 14.5048C2.05516 14.289 1.71095 13.9448 1.49524 13.5215C1.25 13.0402 1.25 12.4101 1.25 11.15V4.85C1.25 3.58988 1.25 2.95982 1.49524 2.47852C1.71095 2.05516 2.05516 1.71095 2.47852 1.49524C2.95982 1.25 3.58988 1.25 4.85 1.25H11.15C12.4101 1.25 13.0402 1.25 13.5215 1.49524C13.9448 1.71095 14.289 2.05516 14.5048 2.47852C14.75 2.95982 14.75 3.58988 14.75 4.85V11.15M6.875 5.375C6.875 6.20343 6.20343 6.875 5.375 6.875C4.54657 6.875 3.875 6.20343 3.875 5.375C3.875 4.54657 4.54657 3.875 5.375 3.875C6.20343 3.875 6.875 4.54657 6.875 5.375Z" stroke="#111111" stroke-width="1.2" stroke-linecap="round" stroke-linejoin="round"/>
</svg>
