<svg width="400" height="32" viewBox="0 0 400 32" fill="none" xmlns="http://www.w3.org/2000/svg">
<path d="M0 8C0 3.58172 3.58172 0 8 0H392C396.418 0 400 3.58172 400 8V24C400 28.4183 396.418 32 392 32H7.99999C3.58171 32 0 28.4183 0 24V8Z" fill="#F9F9F9"/>
<path d="M24.75 22.75L22.1251 20.125M24 15.625C24 19.1458 21.1458 22 17.625 22C14.1042 22 11.25 19.1458 11.25 15.625C11.25 12.1042 14.1042 9.25 17.625 9.25C21.1458 9.25 24 12.1042 24 15.625Z" stroke="#767676" stroke-width="1.2" stroke-linecap="round" stroke-linejoin="round"/>
<path d="M38.8011 13.3636C38.7415 12.8598 38.4995 12.4688 38.0753 12.1903C37.651 11.9119 37.1307 11.7727 36.5142 11.7727C36.0634 11.7727 35.669 11.8456 35.331 11.9915C34.9962 12.1373 34.7344 12.3378 34.5455 12.593C34.3598 12.8482 34.267 13.1383 34.267 13.4631C34.267 13.7348 34.3317 13.9685 34.4609 14.1641C34.5935 14.3563 34.7625 14.517 34.968 14.6463C35.1735 14.7723 35.389 14.8767 35.6143 14.9595C35.8397 15.0391 36.0469 15.1037 36.2358 15.1534L37.2699 15.4318C37.535 15.5014 37.83 15.5975 38.1548 15.7202C38.483 15.8428 38.7962 16.0102 39.0945 16.2223C39.3961 16.4311 39.6446 16.6996 39.8402 17.0277C40.0357 17.3558 40.1335 17.7585 40.1335 18.2358C40.1335 18.786 39.9893 19.2831 39.701 19.7273C39.416 20.1714 38.9983 20.5244 38.4482 20.7862C37.9013 21.0481 37.2367 21.179 36.4545 21.179C35.7254 21.179 35.094 21.0613 34.5604 20.826C34.0301 20.5907 33.6125 20.2625 33.3075 19.8416C33.0059 19.4207 32.8352 18.9318 32.7955 18.375H34.0682C34.1013 18.7595 34.2306 19.0777 34.456 19.3295C34.6847 19.5781 34.973 19.7637 35.321 19.8864C35.6723 20.0057 36.0502 20.0653 36.4545 20.0653C36.9252 20.0653 37.3478 19.9891 37.7223 19.8366C38.0968 19.6809 38.3935 19.4654 38.6122 19.1903C38.831 18.9119 38.9403 18.5871 38.9403 18.2159C38.9403 17.8778 38.8459 17.6027 38.657 17.3906C38.468 17.1785 38.2195 17.0062 37.9112 16.8736C37.603 16.741 37.2699 16.625 36.9119 16.5256L35.6591 16.1676C34.8636 15.9389 34.2339 15.6125 33.7699 15.1882C33.3059 14.764 33.0739 14.2088 33.0739 13.5227C33.0739 12.9527 33.228 12.4555 33.5362 12.0312C33.8478 11.6037 34.2654 11.2723 34.7891 11.0369C35.3161 10.7983 35.9044 10.679 36.554 10.679C37.2102 10.679 37.7936 10.7966 38.304 11.032C38.8144 11.264 39.2188 11.5821 39.517 11.9865C39.8187 12.3909 39.9777 12.8499 39.9943 13.3636H38.8011ZM45.2033 21.1591C44.4675 21.1591 43.8328 20.9967 43.2992 20.6719C42.7689 20.3438 42.3596 19.8864 42.0712 19.2997C41.7862 18.7098 41.6436 18.0237 41.6436 17.2415C41.6436 16.4593 41.7862 15.7699 42.0712 15.1733C42.3596 14.5734 42.7606 14.1061 43.2743 13.7713C43.7914 13.4332 44.3946 13.2642 45.084 13.2642C45.4817 13.2642 45.8745 13.3305 46.2623 13.4631C46.65 13.5956 47.003 13.8111 47.3212 14.1094C47.6394 14.4044 47.8929 14.7955 48.0819 15.2827C48.2708 15.7699 48.3652 16.3698 48.3652 17.0824V17.5795H42.4789V16.5653H47.1721C47.1721 16.1345 47.0859 15.75 46.9135 15.4119C46.7445 15.0739 46.5025 14.8071 46.1877 14.6115C45.8761 14.416 45.5082 14.3182 45.084 14.3182C44.6167 14.3182 44.2123 14.4342 43.8709 14.6662C43.5328 14.8949 43.2727 15.1932 43.0904 15.5611C42.9081 15.929 42.8169 16.3234 42.8169 16.7443V17.4205C42.8169 17.9972 42.9164 18.486 43.1152 18.8871C43.3174 19.2848 43.5975 19.5881 43.9554 19.7969C44.3134 20.0024 44.7293 20.1051 45.2033 20.1051C45.5115 20.1051 45.79 20.062 46.0385 19.9759C46.2904 19.8864 46.5075 19.7538 46.6898 19.5781C46.8721 19.3991 47.013 19.1771 47.1124 18.9119L48.2459 19.2301C48.1266 19.6146 47.9261 19.9527 47.6444 20.2443C47.3626 20.5327 47.0146 20.758 46.6003 20.9205C46.186 21.0795 45.7203 21.1591 45.2033 21.1591ZM52.3972 21.179C51.9133 21.179 51.4741 21.0878 51.0797 20.9055C50.6853 20.7199 50.3721 20.4531 50.1401 20.1051C49.9081 19.7538 49.7921 19.3295 49.7921 18.8324C49.7921 18.3949 49.8783 18.0402 50.0506 17.7685C50.223 17.4934 50.4533 17.2779 50.7417 17.1222C51.03 16.9664 51.3482 16.8504 51.6962 16.7741C52.0475 16.6946 52.4005 16.6316 52.7551 16.5852C53.2192 16.5256 53.5953 16.4808 53.8837 16.451C54.1754 16.4179 54.3875 16.3632 54.5201 16.2869C54.656 16.2107 54.7239 16.0781 54.7239 15.8892V15.8494C54.7239 15.3589 54.5897 14.9777 54.3212 14.706C54.056 14.4342 53.6534 14.2983 53.1131 14.2983C52.553 14.2983 52.1138 14.4209 51.7956 14.6662C51.4775 14.9115 51.2537 15.1733 51.1245 15.4517L50.0108 15.054C50.2097 14.59 50.4748 14.2287 50.8063 13.9702C51.141 13.7083 51.5056 13.526 51.9 13.4233C52.2978 13.3172 52.6889 13.2642 53.0733 13.2642C53.3186 13.2642 53.6003 13.294 53.9185 13.3537C54.24 13.41 54.5499 13.5277 54.8482 13.7067C55.1498 13.8857 55.4 14.1558 55.5989 14.517C55.7978 14.8783 55.8972 15.3622 55.8972 15.9688V21H54.7239V19.9659H54.6642C54.5847 20.1316 54.4521 20.3089 54.2665 20.4979C54.0809 20.6868 53.834 20.8475 53.5257 20.9801C53.2175 21.1127 52.8413 21.179 52.3972 21.179ZM52.5762 20.125C53.0402 20.125 53.4313 20.0339 53.7495 19.8516C54.071 19.6693 54.3129 19.4339 54.4753 19.1456C54.641 18.8572 54.7239 18.554 54.7239 18.2358V17.1619C54.6742 17.2216 54.5648 17.2763 54.3958 17.326C54.2301 17.3724 54.0378 17.4138 53.8191 17.4503C53.6036 17.4834 53.3932 17.5133 53.1877 17.5398C52.9855 17.563 52.8214 17.5829 52.6955 17.5994C52.3906 17.6392 52.1055 17.7038 51.8404 17.7933C51.5785 17.8795 51.3664 18.0104 51.204 18.1861C51.0449 18.3584 50.9654 18.5937 50.9654 18.892C50.9654 19.2997 51.1162 19.608 51.4178 19.8168C51.7227 20.0223 52.1088 20.125 52.5762 20.125ZM58.0387 21V13.3636H59.1722V14.517H59.2518C59.391 14.1392 59.6429 13.8326 60.0075 13.5973C60.372 13.362 60.783 13.2443 61.2404 13.2443C61.3266 13.2443 61.4343 13.246 61.5636 13.2493C61.6928 13.2526 61.7906 13.2576 61.8569 13.2642V14.4574C61.8171 14.4474 61.726 14.4325 61.5835 14.4126C61.4442 14.3894 61.2968 14.3778 61.141 14.3778C60.7698 14.3778 60.4383 14.4557 60.1467 14.6115C59.8583 14.764 59.6296 14.9761 59.4606 15.2479C59.2949 15.5163 59.212 15.8229 59.212 16.1676V21H58.0387ZM66.1175 21.1591C65.4016 21.1591 64.7852 20.9901 64.2681 20.652C63.7511 20.3139 63.3533 19.8482 63.0749 19.255C62.7965 18.6617 62.6573 17.9839 62.6573 17.2216C62.6573 16.446 62.7998 15.7616 63.0849 15.1683C63.3732 14.5717 63.7743 14.1061 64.288 13.7713C64.805 13.4332 65.4083 13.2642 66.0977 13.2642C66.6346 13.2642 67.1185 13.3636 67.5494 13.5625C67.9802 13.7614 68.3332 14.0398 68.6083 14.3977C68.8834 14.7557 69.0541 15.1733 69.1204 15.6506H67.9471C67.8576 15.3026 67.6587 14.9943 67.3505 14.7259C67.0456 14.4541 66.6346 14.3182 66.1175 14.3182C65.6602 14.3182 65.2591 14.4375 64.9144 14.6761C64.573 14.9115 64.3062 15.2446 64.114 15.6754C63.9251 16.103 63.8306 16.6051 63.8306 17.1818C63.8306 17.7718 63.9234 18.2855 64.109 18.723C64.2979 19.1605 64.5631 19.5002 64.9045 19.7422C65.2492 19.9841 65.6535 20.1051 66.1175 20.1051C66.4225 20.1051 66.6992 20.0521 66.9478 19.946C67.1964 19.84 67.4068 19.6875 67.5792 19.4886C67.7515 19.2898 67.8742 19.0511 67.9471 18.7727H69.1204C69.0541 19.2235 68.89 19.6295 68.6282 19.9908C68.3697 20.3487 68.0266 20.6338 67.5991 20.8459C67.1748 21.0547 66.681 21.1591 66.1175 21.1591ZM72.0089 16.4062V21H70.8356V10.8182H72.0089V14.5568H72.1083C72.2873 14.1624 72.5558 13.8492 72.9137 13.6172C73.275 13.3819 73.7556 13.2642 74.3555 13.2642C74.8758 13.2642 75.3316 13.3686 75.7227 13.5774C76.1138 13.7829 76.417 14.0994 76.6325 14.527C76.8512 14.9512 76.9606 15.4915 76.9606 16.1477V21H75.7873V16.2273C75.7873 15.6207 75.6299 15.1518 75.315 14.8203C75.0034 14.4856 74.5709 14.3182 74.0174 14.3182C73.6329 14.3182 73.2882 14.3994 72.9833 14.5618C72.6817 14.7242 72.4431 14.9612 72.2674 15.2727C72.0951 15.5843 72.0089 15.9621 72.0089 16.4062ZM83.0446 23.8636V13.3636H84.1781V14.5767H84.3173C84.4035 14.4441 84.5228 14.2751 84.6752 14.0696C84.831 13.8608 85.0531 13.6752 85.3414 13.5128C85.6331 13.3471 86.0275 13.2642 86.5247 13.2642C87.1677 13.2642 87.7344 13.425 88.225 13.7464C88.7155 14.0679 89.0983 14.5237 89.3734 15.1136C89.6485 15.7036 89.786 16.3996 89.786 17.2017C89.786 18.0104 89.6485 18.7114 89.3734 19.3047C89.0983 19.8946 88.7172 20.352 88.2299 20.6768C87.7427 20.9983 87.1809 21.1591 86.5446 21.1591C86.054 21.1591 85.6613 21.0779 85.3663 20.9155C85.0713 20.7498 84.8443 20.5625 84.6852 20.3537C84.5261 20.1416 84.4035 19.9659 84.3173 19.8267H84.2179V23.8636H83.0446ZM84.198 17.1818C84.198 17.7585 84.2825 18.2673 84.4515 18.7081C84.6206 19.1456 84.8675 19.4886 85.1923 19.7372C85.5171 19.9825 85.9148 20.1051 86.3855 20.1051C86.876 20.1051 87.2853 19.9759 87.6135 19.7173C87.9449 19.4555 88.1935 19.1042 88.3592 18.6634C88.5282 18.2192 88.6127 17.7254 88.6127 17.1818C88.6127 16.6449 88.5299 16.161 88.3642 15.7301C88.2018 15.2959 87.9548 14.9529 87.6234 14.701C87.2953 14.4458 86.8826 14.3182 86.3855 14.3182C85.9082 14.3182 85.5072 14.4392 85.1824 14.6811C84.8575 14.9197 84.6123 15.2545 84.4466 15.6854C84.2808 16.1129 84.198 16.6117 84.198 17.1818ZM92.7491 16.4062V21H91.5758V10.8182H92.7491V14.5568H92.8485C93.0275 14.1624 93.296 13.8492 93.6539 13.6172C94.0152 13.3819 94.4958 13.2642 95.0957 13.2642C95.6161 13.2642 96.0718 13.3686 96.4629 13.5774C96.854 13.7829 97.1573 14.0994 97.3727 14.527C97.5914 14.9512 97.7008 15.4915 97.7008 16.1477V21H96.5275V16.2273C96.5275 15.6207 96.3701 15.1518 96.0552 14.8203C95.7437 14.4856 95.3111 14.3182 94.7576 14.3182C94.3732 14.3182 94.0285 14.3994 93.7235 14.5618C93.4219 14.7242 93.1833 14.9612 93.0076 15.2727C92.8353 15.5843 92.7491 15.9621 92.7491 16.4062ZM102.95 21.1591C102.26 21.1591 101.655 20.995 101.135 20.6669C100.618 20.3388 100.214 19.8797 99.9219 19.2898C99.6335 18.6998 99.4893 18.0104 99.4893 17.2216C99.4893 16.4261 99.6335 15.7318 99.9219 15.1385C100.214 14.5452 100.618 14.0845 101.135 13.7564C101.655 13.4283 102.26 13.2642 102.95 13.2642C103.639 13.2642 104.242 13.4283 104.759 13.7564C105.28 14.0845 105.684 14.5452 105.972 15.1385C106.264 15.7318 106.41 16.4261 106.41 17.2216C106.41 18.0104 106.264 18.6998 105.972 19.2898C105.684 19.8797 105.28 20.3388 104.759 20.6669C104.242 20.995 103.639 21.1591 102.95 21.1591ZM102.95 20.1051C103.473 20.1051 103.904 19.9709 104.242 19.7024C104.58 19.4339 104.83 19.081 104.993 18.6435C105.155 18.206 105.237 17.732 105.237 17.2216C105.237 16.7112 105.155 16.2356 104.993 15.7947C104.83 15.3539 104.58 14.9976 104.242 14.7259C103.904 14.4541 103.473 14.3182 102.95 14.3182C102.426 14.3182 101.995 14.4541 101.657 14.7259C101.319 14.9976 101.069 15.3539 100.906 15.7947C100.744 16.2356 100.663 16.7112 100.663 17.2216C100.663 17.732 100.744 18.206 100.906 18.6435C101.069 19.081 101.319 19.4339 101.657 19.7024C101.995 19.9709 102.426 20.1051 102.95 20.1051ZM111.522 13.3636V14.358H107.564V13.3636H111.522ZM108.718 11.5341H109.891V18.8125C109.891 19.1439 109.939 19.3925 110.035 19.5582C110.135 19.7206 110.261 19.83 110.413 19.8864C110.569 19.9394 110.733 19.9659 110.905 19.9659C111.035 19.9659 111.141 19.9593 111.224 19.946C111.306 19.9295 111.373 19.9162 111.422 19.9062L111.661 20.9602C111.581 20.9901 111.47 21.0199 111.328 21.0497C111.185 21.0829 111.005 21.0994 110.786 21.0994C110.455 21.0994 110.13 21.0282 109.812 20.8857C109.497 20.7431 109.235 20.526 109.026 20.2344C108.821 19.9427 108.718 19.5748 108.718 19.1307V11.5341ZM116.307 21.1591C115.618 21.1591 115.013 20.995 114.492 20.6669C113.975 20.3388 113.571 19.8797 113.279 19.2898C112.991 18.6998 112.847 18.0104 112.847 17.2216C112.847 16.4261 112.991 15.7318 113.279 15.1385C113.571 14.5452 113.975 14.0845 114.492 13.7564C115.013 13.4283 115.618 13.2642 116.307 13.2642C116.996 13.2642 117.6 13.4283 118.117 13.7564C118.637 14.0845 119.041 14.5452 119.33 15.1385C119.621 15.7318 119.767 16.4261 119.767 17.2216C119.767 18.0104 119.621 18.6998 119.33 19.2898C119.041 19.8797 118.637 20.3388 118.117 20.6669C117.6 20.995 116.996 21.1591 116.307 21.1591ZM116.307 20.1051C116.831 20.1051 117.262 19.9709 117.6 19.7024C117.938 19.4339 118.188 19.081 118.35 18.6435C118.513 18.206 118.594 17.732 118.594 17.2216C118.594 16.7112 118.513 16.2356 118.35 15.7947C118.188 15.3539 117.938 14.9976 117.6 14.7259C117.262 14.4541 116.831 14.3182 116.307 14.3182C115.783 14.3182 115.352 14.4541 115.014 14.7259C114.676 14.9976 114.426 15.3539 114.264 15.7947C114.101 16.2356 114.02 16.7112 114.02 17.2216C114.02 17.732 114.101 18.206 114.264 18.6435C114.426 19.081 114.676 19.4339 115.014 19.7024C115.352 19.9709 115.783 20.1051 116.307 20.1051ZM126.967 15.0739L125.913 15.3722C125.847 15.1965 125.749 15.0258 125.62 14.8601C125.494 14.6911 125.322 14.5518 125.103 14.4425C124.884 14.3331 124.604 14.2784 124.263 14.2784C123.795 14.2784 123.406 14.3861 123.094 14.6016C122.786 14.8137 122.632 15.0838 122.632 15.4119C122.632 15.7036 122.738 15.9339 122.95 16.103C123.162 16.272 123.494 16.4129 123.945 16.5256L125.078 16.804C125.761 16.9697 126.27 17.2232 126.604 17.5646C126.939 17.9027 127.107 18.3385 127.107 18.8722C127.107 19.3097 126.981 19.7008 126.729 20.0455C126.48 20.3902 126.132 20.6619 125.685 20.8608C125.237 21.0597 124.717 21.1591 124.124 21.1591C123.345 21.1591 122.7 20.9901 122.19 20.652C121.679 20.3139 121.356 19.8201 121.22 19.1705L122.334 18.892C122.44 19.303 122.64 19.6113 122.935 19.8168C123.234 20.0223 123.623 20.125 124.104 20.125C124.651 20.125 125.085 20.009 125.406 19.777C125.731 19.5417 125.893 19.2599 125.893 18.9318C125.893 18.6667 125.801 18.4446 125.615 18.2656C125.429 18.0833 125.144 17.9474 124.76 17.858L123.487 17.5597C122.788 17.3939 122.274 17.1371 121.946 16.7891C121.621 16.4377 121.459 15.9986 121.459 15.4716C121.459 15.0407 121.58 14.6596 121.822 14.3281C122.067 13.9967 122.4 13.7365 122.821 13.5476C123.245 13.3587 123.726 13.2642 124.263 13.2642C125.018 13.2642 125.612 13.4299 126.043 13.7614C126.477 14.0928 126.785 14.5303 126.967 15.0739ZM130.623 19.608L130.543 20.1449C130.487 20.5227 130.401 20.9271 130.285 21.358C130.172 21.7888 130.054 22.1948 129.932 22.576C129.809 22.9571 129.708 23.2604 129.628 23.4858H128.733C128.777 23.2737 128.833 22.9936 128.903 22.6456C128.972 22.2976 129.042 21.9081 129.111 21.4773C129.184 21.0497 129.244 20.6122 129.29 20.1648L129.35 19.608H130.623ZM139.836 21.1591C139.12 21.1591 138.504 20.9901 137.987 20.652C137.47 20.3139 137.072 19.8482 136.794 19.255C136.515 18.6617 136.376 17.9839 136.376 17.2216C136.376 16.446 136.519 15.7616 136.804 15.1683C137.092 14.5717 137.493 14.1061 138.007 13.7713C138.524 13.4332 139.127 13.2642 139.816 13.2642C140.353 13.2642 140.837 13.3636 141.268 13.5625C141.699 13.7614 142.052 14.0398 142.327 14.3977C142.602 14.7557 142.773 15.1733 142.839 15.6506H141.666C141.576 15.3026 141.377 14.9943 141.069 14.7259C140.764 14.4541 140.353 14.3182 139.836 14.3182C139.379 14.3182 138.978 14.4375 138.633 14.6761C138.292 14.9115 138.025 15.2446 137.833 15.6754C137.644 16.103 137.549 16.6051 137.549 17.1818C137.549 17.7718 137.642 18.2855 137.828 18.723C138.017 19.1605 138.282 19.5002 138.623 19.7422C138.968 19.9841 139.372 20.1051 139.836 20.1051C140.141 20.1051 140.418 20.0521 140.667 19.946C140.915 19.84 141.126 19.6875 141.298 19.4886C141.47 19.2898 141.593 19.0511 141.666 18.7727H142.839C142.773 19.2235 142.609 19.6295 142.347 19.9908C142.088 20.3487 141.745 20.6338 141.318 20.8459C140.894 21.0547 140.4 21.1591 139.836 21.1591ZM146.801 21.179C146.318 21.179 145.878 21.0878 145.484 20.9055C145.09 20.7199 144.776 20.4531 144.544 20.1051C144.312 19.7538 144.196 19.3295 144.196 18.8324C144.196 18.3949 144.283 18.0402 144.455 17.7685C144.627 17.4934 144.858 17.2779 145.146 17.1222C145.434 16.9664 145.752 16.8504 146.1 16.7741C146.452 16.6946 146.805 16.6316 147.159 16.5852C147.623 16.5256 148 16.4808 148.288 16.451C148.58 16.4179 148.792 16.3632 148.924 16.2869C149.06 16.2107 149.128 16.0781 149.128 15.8892V15.8494C149.128 15.3589 148.994 14.9777 148.725 14.706C148.46 14.4342 148.058 14.2983 147.517 14.2983C146.957 14.2983 146.518 14.4209 146.2 14.6662C145.882 14.9115 145.658 15.1733 145.529 15.4517L144.415 15.054C144.614 14.59 144.879 14.2287 145.211 13.9702C145.545 13.7083 145.91 13.526 146.304 13.4233C146.702 13.3172 147.093 13.2642 147.478 13.2642C147.723 13.2642 148.005 13.294 148.323 13.3537C148.644 13.41 148.954 13.5277 149.252 13.7067C149.554 13.8857 149.804 14.1558 150.003 14.517C150.202 14.8783 150.301 15.3622 150.301 15.9688V21H149.128V19.9659H149.069C148.989 20.1316 148.856 20.3089 148.671 20.4979C148.485 20.6868 148.238 20.8475 147.93 20.9801C147.622 21.1127 147.246 21.179 146.801 21.179ZM146.98 20.125C147.444 20.125 147.836 20.0339 148.154 19.8516C148.475 19.6693 148.717 19.4339 148.88 19.1456C149.045 18.8572 149.128 18.554 149.128 18.2358V17.1619C149.078 17.2216 148.969 17.2763 148.8 17.326C148.634 17.3724 148.442 17.4138 148.223 17.4503C148.008 17.4834 147.797 17.5133 147.592 17.5398C147.39 17.563 147.226 17.5829 147.1 17.5994C146.795 17.6392 146.51 17.7038 146.245 17.7933C145.983 17.8795 145.771 18.0104 145.608 18.1861C145.449 18.3584 145.37 18.5937 145.37 18.892C145.37 19.2997 145.52 19.608 145.822 19.8168C146.127 20.0223 146.513 20.125 146.98 20.125ZM155.764 13.3636V14.358H151.807V13.3636H155.764ZM152.96 11.5341H154.133V18.8125C154.133 19.1439 154.181 19.3925 154.278 19.5582C154.377 19.7206 154.503 19.83 154.655 19.8864C154.811 19.9394 154.975 19.9659 155.148 19.9659C155.277 19.9659 155.383 19.9593 155.466 19.946C155.549 19.9295 155.615 19.9162 155.665 19.9062L155.903 20.9602C155.824 20.9901 155.713 21.0199 155.57 21.0497C155.428 21.0829 155.247 21.0994 155.028 21.0994C154.697 21.0994 154.372 21.0282 154.054 20.8857C153.739 20.7431 153.477 20.526 153.268 20.2344C153.063 19.9427 152.96 19.5748 152.96 19.1307V11.5341ZM160.649 21.1591C159.913 21.1591 159.278 20.9967 158.744 20.6719C158.214 20.3438 157.805 19.8864 157.517 19.2997C157.231 18.7098 157.089 18.0237 157.089 17.2415C157.089 16.4593 157.231 15.7699 157.517 15.1733C157.805 14.5734 158.206 14.1061 158.72 13.7713C159.237 13.4332 159.84 13.2642 160.529 13.2642C160.927 13.2642 161.32 13.3305 161.708 13.4631C162.095 13.5956 162.448 13.8111 162.767 14.1094C163.085 14.4044 163.338 14.7955 163.527 15.2827C163.716 15.7699 163.811 16.3698 163.811 17.0824V17.5795H157.924V16.5653H162.617C162.617 16.1345 162.531 15.75 162.359 15.4119C162.19 15.0739 161.948 14.8071 161.633 14.6115C161.321 14.416 160.954 14.3182 160.529 14.3182C160.062 14.3182 159.658 14.4342 159.316 14.6662C158.978 14.8949 158.718 15.1932 158.536 15.5611C158.353 15.929 158.262 16.3234 158.262 16.7443V17.4205C158.262 17.9972 158.362 18.486 158.561 18.8871C158.763 19.2848 159.043 19.5881 159.401 19.7969C159.759 20.0024 160.175 20.1051 160.649 20.1051C160.957 20.1051 161.235 20.062 161.484 19.9759C161.736 19.8864 161.953 19.7538 162.135 19.5781C162.317 19.3991 162.458 19.1771 162.558 18.9119L163.691 19.2301C163.572 19.6146 163.371 19.9527 163.09 20.2443C162.808 20.5327 162.46 20.758 162.046 20.9205C161.631 21.0795 161.166 21.1591 160.649 21.1591ZM168.678 24.0227C168.111 24.0227 167.624 23.9498 167.216 23.804C166.808 23.6615 166.469 23.4725 166.197 23.2372C165.928 23.0052 165.715 22.7566 165.556 22.4915L166.49 21.8352C166.596 21.9744 166.731 22.1335 166.893 22.3125C167.055 22.4948 167.277 22.6522 167.559 22.7848C167.844 22.9207 168.217 22.9886 168.678 22.9886C169.294 22.9886 169.803 22.8395 170.204 22.5412C170.605 22.2429 170.806 21.7756 170.806 21.1392V19.5881H170.706C170.62 19.7273 170.497 19.8996 170.338 20.1051C170.182 20.3073 169.957 20.4879 169.662 20.647C169.37 20.8028 168.976 20.8807 168.479 20.8807C167.862 20.8807 167.309 20.7348 166.818 20.4432C166.331 20.1515 165.945 19.7273 165.66 19.1705C165.378 18.6136 165.237 17.9375 165.237 17.142C165.237 16.3598 165.375 15.6787 165.65 15.0987C165.925 14.5154 166.308 14.0646 166.798 13.7464C167.289 13.425 167.856 13.2642 168.499 13.2642C168.996 13.2642 169.39 13.3471 169.682 13.5128C169.977 13.6752 170.202 13.8608 170.358 14.0696C170.517 14.2751 170.64 14.4441 170.726 14.5767H170.845V13.3636H171.979V21.2188C171.979 21.875 171.83 22.4086 171.531 22.8196C171.236 23.2339 170.839 23.5372 170.338 23.7294C169.841 23.925 169.288 24.0227 168.678 24.0227ZM168.638 19.8267C169.109 19.8267 169.506 19.719 169.831 19.5036C170.156 19.2881 170.403 18.9782 170.572 18.5739C170.741 18.1695 170.825 17.6856 170.825 17.1222C170.825 16.572 170.743 16.0864 170.577 15.6655C170.411 15.2446 170.166 14.9148 169.841 14.6761C169.516 14.4375 169.115 14.3182 168.638 14.3182C168.141 14.3182 167.727 14.4441 167.395 14.696C167.067 14.9479 166.82 15.286 166.654 15.7102C166.492 16.1345 166.411 16.6051 166.411 17.1222C166.411 17.6525 166.494 18.1214 166.659 18.5291C166.828 18.9335 167.077 19.2517 167.405 19.4837C167.736 19.7124 168.147 19.8267 168.638 19.8267ZM177.229 21.1591C176.539 21.1591 175.935 20.995 175.414 20.6669C174.897 20.3388 174.493 19.8797 174.201 19.2898C173.913 18.6998 173.769 18.0104 173.769 17.2216C173.769 16.4261 173.913 15.7318 174.201 15.1385C174.493 14.5452 174.897 14.0845 175.414 13.7564C175.935 13.4283 176.539 13.2642 177.229 13.2642C177.918 13.2642 178.521 13.4283 179.039 13.7564C179.559 14.0845 179.963 14.5452 180.252 15.1385C180.543 15.7318 180.689 16.4261 180.689 17.2216C180.689 18.0104 180.543 18.6998 180.252 19.2898C179.963 19.8797 179.559 20.3388 179.039 20.6669C178.521 20.995 177.918 21.1591 177.229 21.1591ZM177.229 20.1051C177.753 20.1051 178.183 19.9709 178.521 19.7024C178.86 19.4339 179.11 19.081 179.272 18.6435C179.435 18.206 179.516 17.732 179.516 17.2216C179.516 16.7112 179.435 16.2356 179.272 15.7947C179.11 15.3539 178.86 14.9976 178.521 14.7259C178.183 14.4541 177.753 14.3182 177.229 14.3182C176.705 14.3182 176.274 14.4541 175.936 14.7259C175.598 14.9976 175.348 15.3539 175.186 15.7947C175.023 16.2356 174.942 16.7112 174.942 17.2216C174.942 17.732 175.023 18.206 175.186 18.6435C175.348 19.081 175.598 19.4339 175.936 19.7024C176.274 19.9709 176.705 20.1051 177.229 20.1051ZM182.48 21V13.3636H183.614V14.517H183.693C183.832 14.1392 184.084 13.8326 184.449 13.5973C184.813 13.362 185.224 13.2443 185.682 13.2443C185.768 13.2443 185.876 13.246 186.005 13.2493C186.134 13.2526 186.232 13.2576 186.298 13.2642V14.4574C186.259 14.4474 186.167 14.4325 186.025 14.4126C185.886 14.3894 185.738 14.3778 185.582 14.3778C185.211 14.3778 184.88 14.4557 184.588 14.6115C184.3 14.764 184.071 14.9761 183.902 15.2479C183.736 15.5163 183.653 15.8229 183.653 16.1676V21H182.48ZM187.689 21V13.3636H188.862V21H187.689ZM188.286 12.0909C188.057 12.0909 187.86 12.013 187.694 11.8572C187.532 11.7015 187.45 11.5142 187.45 11.2955C187.45 11.0767 187.532 10.8894 187.694 10.7337C187.86 10.5779 188.057 10.5 188.286 10.5C188.514 10.5 188.71 10.5779 188.872 10.7337C189.038 10.8894 189.121 11.0767 189.121 11.2955C189.121 11.5142 189.038 11.7015 188.872 11.8572C188.71 12.013 188.514 12.0909 188.286 12.0909ZM194.213 21.1591C193.477 21.1591 192.843 20.9967 192.309 20.6719C191.779 20.3438 191.369 19.8864 191.081 19.2997C190.796 18.7098 190.653 18.0237 190.653 17.2415C190.653 16.4593 190.796 15.7699 191.081 15.1733C191.369 14.5734 191.77 14.1061 192.284 13.7713C192.801 13.4332 193.404 13.2642 194.094 13.2642C194.491 13.2642 194.884 13.3305 195.272 13.4631C195.66 13.5956 196.013 13.8111 196.331 14.1094C196.649 14.4044 196.903 14.7955 197.092 15.2827C197.281 15.7699 197.375 16.3698 197.375 17.0824V17.5795H191.489V16.5653H196.182C196.182 16.1345 196.096 15.75 195.923 15.4119C195.754 15.0739 195.512 14.8071 195.197 14.6115C194.886 14.416 194.518 14.3182 194.094 14.3182C193.626 14.3182 193.222 14.4342 192.881 14.6662C192.543 14.8949 192.282 15.1932 192.1 15.5611C191.918 15.929 191.827 16.3234 191.827 16.7443V17.4205C191.827 17.9972 191.926 18.486 192.125 18.8871C192.327 19.2848 192.607 19.5881 192.965 19.7969C193.323 20.0024 193.739 20.1051 194.213 20.1051C194.521 20.1051 194.8 20.062 195.048 19.9759C195.3 19.8864 195.517 19.7538 195.7 19.5781C195.882 19.3991 196.023 19.1771 196.122 18.9119L197.256 19.2301C197.136 19.6146 196.936 19.9527 196.654 20.2443C196.372 20.5327 196.024 20.758 195.61 20.9205C195.196 21.0795 194.73 21.1591 194.213 21.1591ZM204.569 15.0739L203.515 15.3722C203.449 15.1965 203.351 15.0258 203.222 14.8601C203.096 14.6911 202.923 14.5518 202.705 14.4425C202.486 14.3331 202.206 14.2784 201.864 14.2784C201.397 14.2784 201.008 14.3861 200.696 14.6016C200.388 14.8137 200.234 15.0838 200.234 15.4119C200.234 15.7036 200.34 15.9339 200.552 16.103C200.764 16.272 201.095 16.4129 201.546 16.5256L202.68 16.804C203.362 16.9697 203.871 17.2232 204.206 17.5646C204.541 17.9027 204.708 18.3385 204.708 18.8722C204.708 19.3097 204.582 19.7008 204.33 20.0455C204.082 20.3902 203.734 20.6619 203.286 20.8608C202.839 21.0597 202.318 21.1591 201.725 21.1591C200.946 21.1591 200.302 20.9901 199.791 20.652C199.281 20.3139 198.958 19.8201 198.822 19.1705L199.935 18.892C200.041 19.303 200.242 19.6113 200.537 19.8168C200.835 20.0223 201.225 20.125 201.705 20.125C202.252 20.125 202.686 20.009 203.008 19.777C203.333 19.5417 203.495 19.2599 203.495 18.9318C203.495 18.6667 203.402 18.4446 203.217 18.2656C203.031 18.0833 202.746 17.9474 202.362 17.858L201.089 17.5597C200.389 17.3939 199.876 17.1371 199.548 16.7891C199.223 16.4377 199.06 15.9986 199.06 15.4716C199.06 15.0407 199.181 14.6596 199.423 14.3281C199.669 13.9967 200.002 13.7365 200.423 13.5476C200.847 13.3587 201.327 13.2642 201.864 13.2642C202.62 13.2642 203.213 13.4299 203.644 13.7614C204.078 14.0928 204.387 14.5303 204.569 15.0739ZM212.659 21.179C212.175 21.179 211.736 21.0878 211.341 20.9055C210.947 20.7199 210.634 20.4531 210.402 20.1051C210.17 19.7538 210.054 19.3295 210.054 18.8324C210.054 18.3949 210.14 18.0402 210.312 17.7685C210.485 17.4934 210.715 17.2779 211.003 17.1222C211.292 16.9664 211.61 16.8504 211.958 16.7741C212.309 16.6946 212.662 16.6316 213.017 16.5852C213.481 16.5256 213.857 16.4808 214.145 16.451C214.437 16.4179 214.649 16.3632 214.782 16.2869C214.918 16.2107 214.986 16.0781 214.986 15.8892V15.8494C214.986 15.3589 214.851 14.9777 214.583 14.706C214.318 14.4342 213.915 14.2983 213.375 14.2983C212.815 14.2983 212.376 14.4209 212.057 14.6662C211.739 14.9115 211.515 15.1733 211.386 15.4517L210.273 15.054C210.471 14.59 210.737 14.2287 211.068 13.9702C211.403 13.7083 211.767 13.526 212.162 13.4233C212.559 13.3172 212.951 13.2642 213.335 13.2642C213.58 13.2642 213.862 13.294 214.18 13.3537C214.502 13.41 214.812 13.5277 215.11 13.7067C215.412 13.8857 215.662 14.1558 215.861 14.517C216.059 14.8783 216.159 15.3622 216.159 15.9688V21H214.986V19.9659H214.926C214.846 20.1316 214.714 20.3089 214.528 20.4979C214.343 20.6868 214.096 20.8475 213.787 20.9801C213.479 21.1127 213.103 21.179 212.659 21.179ZM212.838 20.125C213.302 20.125 213.693 20.0339 214.011 19.8516C214.333 19.6693 214.575 19.4339 214.737 19.1456C214.903 18.8572 214.986 18.554 214.986 18.2358V17.1619C214.936 17.2216 214.827 17.2763 214.657 17.326C214.492 17.3724 214.3 17.4138 214.081 17.4503C213.865 17.4834 213.655 17.5133 213.449 17.5398C213.247 17.563 213.083 17.5829 212.957 17.5994C212.652 17.6392 212.367 17.7038 212.102 17.7933C211.84 17.8795 211.628 18.0104 211.466 18.1861C211.307 18.3584 211.227 18.5937 211.227 18.892C211.227 19.2997 211.378 19.608 211.68 19.8168C211.984 20.0223 212.371 20.125 212.838 20.125ZM219.474 16.4062V21H218.3V13.3636H219.434V14.5568H219.533C219.712 14.169 219.984 13.8575 220.349 13.6222C220.713 13.3835 221.184 13.2642 221.761 13.2642C222.278 13.2642 222.73 13.3703 223.118 13.5824C223.506 13.7912 223.807 14.1094 224.023 14.5369C224.238 14.9612 224.346 15.4981 224.346 16.1477V21H223.173V16.2273C223.173 15.6274 223.017 15.16 222.705 14.8253C222.394 14.4872 221.966 14.3182 221.423 14.3182C221.048 14.3182 220.713 14.3994 220.418 14.5618C220.127 14.7242 219.896 14.9612 219.727 15.2727C219.558 15.5843 219.474 15.9621 219.474 16.4062ZM229.373 21.1591C228.737 21.1591 228.175 20.9983 227.688 20.6768C227.201 20.352 226.82 19.8946 226.545 19.3047C226.269 18.7114 226.132 18.0104 226.132 17.2017C226.132 16.3996 226.269 15.7036 226.545 15.1136C226.82 14.5237 227.202 14.0679 227.693 13.7464C228.184 13.425 228.75 13.2642 229.393 13.2642C229.89 13.2642 230.283 13.3471 230.572 13.5128C230.863 13.6752 231.085 13.8608 231.238 14.0696C231.394 14.2751 231.515 14.4441 231.601 14.5767H231.7V10.8182H232.873V21H231.74V19.8267H231.601C231.515 19.9659 231.392 20.1416 231.233 20.3537C231.074 20.5625 230.847 20.7498 230.552 20.9155C230.257 21.0779 229.864 21.1591 229.373 21.1591ZM229.532 20.1051C230.003 20.1051 230.401 19.9825 230.726 19.7372C231.05 19.4886 231.297 19.1456 231.466 18.7081C231.635 18.2673 231.72 17.7585 231.72 17.1818C231.72 16.6117 231.637 16.1129 231.471 15.6854C231.306 15.2545 231.06 14.9197 230.736 14.6811C230.411 14.4392 230.01 14.3182 229.532 14.3182C229.035 14.3182 228.621 14.4458 228.29 14.701C227.961 14.9529 227.715 15.2959 227.549 15.7301C227.386 16.161 227.305 16.6449 227.305 17.1818C227.305 17.7254 227.388 18.2192 227.554 18.6634C227.723 19.1042 227.971 19.4555 228.3 19.7173C228.631 19.9759 229.042 20.1051 229.532 20.1051ZM239.123 21V13.3636H240.256V14.5568H240.356C240.515 14.1491 240.772 13.8326 241.126 13.6072C241.481 13.3786 241.907 13.2642 242.404 13.2642C242.908 13.2642 243.327 13.3786 243.662 13.6072C244 13.8326 244.263 14.1491 244.452 14.5568H244.532C244.727 14.1624 245.021 13.8492 245.412 13.6172C245.803 13.3819 246.272 13.2642 246.819 13.2642C247.501 13.2642 248.06 13.478 248.494 13.9055C248.928 14.3298 249.145 14.991 249.145 15.8892V21H247.972V15.8892C247.972 15.3258 247.818 14.9231 247.51 14.6811C247.202 14.4392 246.839 14.3182 246.421 14.3182C245.884 14.3182 245.468 14.4806 245.173 14.8054C244.878 15.1269 244.731 15.5346 244.731 16.0284V21H243.537V15.7699C243.537 15.3357 243.397 14.986 243.115 14.7209C242.833 14.4524 242.47 14.3182 242.026 14.3182C241.721 14.3182 241.436 14.3994 241.171 14.5618C240.909 14.7242 240.697 14.9496 240.535 15.2379C240.376 15.523 240.296 15.8527 240.296 16.2273V21H239.123ZM254.393 21.1591C253.704 21.1591 253.099 20.995 252.578 20.6669C252.061 20.3388 251.657 19.8797 251.365 19.2898C251.077 18.6998 250.933 18.0104 250.933 17.2216C250.933 16.4261 251.077 15.7318 251.365 15.1385C251.657 14.5452 252.061 14.0845 252.578 13.7564C253.099 13.4283 253.704 13.2642 254.393 13.2642C255.082 13.2642 255.686 13.4283 256.203 13.7564C256.723 14.0845 257.127 14.5452 257.416 15.1385C257.707 15.7318 257.853 16.4261 257.853 17.2216C257.853 18.0104 257.707 18.6998 257.416 19.2898C257.127 19.8797 256.723 20.3388 256.203 20.6669C255.686 20.995 255.082 21.1591 254.393 21.1591ZM254.393 20.1051C254.917 20.1051 255.347 19.9709 255.686 19.7024C256.024 19.4339 256.274 19.081 256.436 18.6435C256.599 18.206 256.68 17.732 256.68 17.2216C256.68 16.7112 256.599 16.2356 256.436 15.7947C256.274 15.3539 256.024 14.9976 255.686 14.7259C255.347 14.4541 254.917 14.3182 254.393 14.3182C253.869 14.3182 253.438 14.4541 253.1 14.7259C252.762 14.9976 252.512 15.3539 252.35 15.7947C252.187 16.2356 252.106 16.7112 252.106 17.2216C252.106 17.732 252.187 18.206 252.35 18.6435C252.512 19.081 252.762 19.4339 253.1 19.7024C253.438 19.9709 253.869 20.1051 254.393 20.1051ZM259.644 21V13.3636H260.778V14.517H260.857C260.996 14.1392 261.248 13.8326 261.613 13.5973C261.978 13.362 262.388 13.2443 262.846 13.2443C262.932 13.2443 263.04 13.246 263.169 13.2493C263.298 13.2526 263.396 13.2576 263.462 13.2642V14.4574C263.423 14.4474 263.331 14.4325 263.189 14.4126C263.05 14.3894 262.902 14.3778 262.746 14.3778C262.375 14.3778 262.044 14.4557 261.752 14.6115C261.464 14.764 261.235 14.9761 261.066 15.2479C260.9 15.5163 260.817 15.8229 260.817 16.1676V21H259.644ZM267.822 21.1591C267.087 21.1591 266.452 20.9967 265.918 20.6719C265.388 20.3438 264.979 19.8864 264.69 19.2997C264.405 18.7098 264.263 18.0237 264.263 17.2415C264.263 16.4593 264.405 15.7699 264.69 15.1733C264.979 14.5734 265.38 14.1061 265.893 13.7713C266.411 13.4332 267.014 13.2642 267.703 13.2642C268.101 13.2642 268.494 13.3305 268.881 13.4631C269.269 13.5956 269.622 13.8111 269.94 14.1094C270.259 14.4044 270.512 14.7955 270.701 15.2827C270.89 15.7699 270.984 16.3698 270.984 17.0824V17.5795H265.098V16.5653H269.791C269.791 16.1345 269.705 15.75 269.533 15.4119C269.364 15.0739 269.122 14.8071 268.807 14.6115C268.495 14.416 268.127 14.3182 267.703 14.3182C267.236 14.3182 266.831 14.4342 266.49 14.6662C266.152 14.8949 265.892 15.1932 265.71 15.5611C265.527 15.929 265.436 16.3234 265.436 16.7443V17.4205C265.436 17.9972 265.536 18.486 265.734 18.8871C265.937 19.2848 266.217 19.5881 266.575 19.7969C266.933 20.0024 267.348 20.1051 267.822 20.1051C268.131 20.1051 268.409 20.062 268.658 19.9759C268.91 19.8864 269.127 19.7538 269.309 19.5781C269.491 19.3991 269.632 19.1771 269.732 18.9119L270.865 19.2301C270.746 19.6146 270.545 19.9527 270.263 20.2443C269.982 20.5327 269.634 20.758 269.219 20.9205C268.805 21.0795 268.339 21.1591 267.822 21.1591ZM273.624 21.0795C273.379 21.0795 273.169 20.9917 272.993 20.8161C272.817 20.6404 272.729 20.4299 272.729 20.1847C272.729 19.9394 272.817 19.7289 272.993 19.5533C273.169 19.3776 273.379 19.2898 273.624 19.2898C273.87 19.2898 274.08 19.3776 274.256 19.5533C274.431 19.7289 274.519 19.9394 274.519 20.1847C274.519 20.3471 274.478 20.4962 274.395 20.6321C274.315 20.768 274.208 20.8774 274.072 20.9602C273.939 21.0398 273.79 21.0795 273.624 21.0795ZM277.48 21.0795C277.234 21.0795 277.024 20.9917 276.848 20.8161C276.673 20.6404 276.585 20.4299 276.585 20.1847C276.585 19.9394 276.673 19.7289 276.848 19.5533C277.024 19.3776 277.234 19.2898 277.48 19.2898C277.725 19.2898 277.935 19.3776 278.111 19.5533C278.287 19.7289 278.375 19.9394 278.375 20.1847C278.375 20.3471 278.333 20.4962 278.25 20.6321C278.171 20.768 278.063 20.8774 277.927 20.9602C277.795 21.0398 277.645 21.0795 277.48 21.0795Z" fill="#767676"/>
</svg>
