<svg width="72" height="32" viewBox="0 0 72 32" fill="none" xmlns="http://www.w3.org/2000/svg">
<path d="M18.6719 13.4929C18.6188 13.0223 18.4001 12.6577 18.0156 12.3991C17.6312 12.1373 17.1473 12.0064 16.5639 12.0064C16.1463 12.0064 15.785 12.0727 15.4801 12.2053C15.1752 12.3345 14.9382 12.5135 14.7692 12.7422C14.6035 12.9676 14.5206 13.2244 14.5206 13.5128C14.5206 13.7547 14.5769 13.9635 14.6896 14.1392C14.8056 14.3149 14.9564 14.4624 15.142 14.5817C15.331 14.6977 15.5331 14.7955 15.7486 14.875C15.964 14.9512 16.1712 15.0142 16.37 15.0639L17.3643 15.3224C17.6892 15.402 18.0223 15.5097 18.3636 15.6456C18.705 15.7815 19.0215 15.9605 19.3132 16.1825C19.6049 16.4046 19.8402 16.6797 20.0192 17.0078C20.2015 17.3359 20.2926 17.7287 20.2926 18.1861C20.2926 18.7628 20.1435 19.2749 19.8452 19.7223C19.5502 20.1697 19.121 20.5227 18.5575 20.7812C17.9974 21.0398 17.3196 21.169 16.5241 21.169C15.7618 21.169 15.1023 21.0481 14.5455 20.8061C13.9886 20.5642 13.5528 20.2211 13.2379 19.777C12.9231 19.3295 12.7491 18.7992 12.7159 18.1861H14.2571C14.2869 18.554 14.4063 18.8606 14.6151 19.1058C14.8272 19.3478 15.0973 19.5284 15.4254 19.6477C15.7569 19.7637 16.1198 19.8217 16.5142 19.8217C16.9484 19.8217 17.3345 19.7538 17.6726 19.6179C18.014 19.4787 18.2824 19.2865 18.478 19.0412C18.6735 18.7926 18.7713 18.5026 18.7713 18.1712C18.7713 17.8696 18.6851 17.6226 18.5128 17.4304C18.3438 17.2382 18.1134 17.0791 17.8217 16.9531C17.5334 16.8272 17.2069 16.7161 16.8423 16.62L15.6392 16.2919C14.8239 16.0698 14.1776 15.7434 13.7003 15.3125C13.2263 14.8816 12.9893 14.3116 12.9893 13.6023C12.9893 13.0156 13.1484 12.5036 13.4666 12.0661C13.7848 11.6286 14.2157 11.2888 14.7592 11.0469C15.3028 10.8016 15.916 10.679 16.5987 10.679C17.2881 10.679 17.8963 10.8 18.4233 11.0419C18.9536 11.2839 19.3712 11.617 19.6761 12.0412C19.9811 12.4621 20.1402 12.946 20.1534 13.4929H18.6719ZM23.4956 16.4659V21H22.0091V10.8182H23.4757V14.6065H23.5701C23.7491 14.1955 24.0225 13.8691 24.3904 13.6271C24.7583 13.3852 25.2389 13.2642 25.8322 13.2642C26.3559 13.2642 26.8133 13.3719 27.2044 13.5874C27.5988 13.8028 27.9037 14.1243 28.1191 14.5518C28.3379 14.9761 28.4473 15.5064 28.4473 16.1428V21H26.9608V16.3217C26.9608 15.7616 26.8166 15.3274 26.5282 15.0192C26.2399 14.7076 25.8388 14.5518 25.3251 14.5518C24.9738 14.5518 24.6589 14.6264 24.3805 14.7756C24.1054 14.9247 23.8883 15.1435 23.7292 15.4318C23.5734 15.7169 23.4956 16.0616 23.4956 16.4659ZM32.6532 21.169C32.1693 21.169 31.7318 21.0795 31.3407 20.9006C30.9496 20.7183 30.6397 20.4548 30.411 20.1101C30.1857 19.7654 30.073 19.3428 30.073 18.8423C30.073 18.4115 30.1558 18.0568 30.3216 17.7784C30.4873 17.5 30.711 17.2796 30.9927 17.1172C31.2744 16.9548 31.5893 16.8321 31.9373 16.7493C32.2853 16.6664 32.64 16.6035 33.0012 16.5604C33.4586 16.5073 33.8298 16.4643 34.1149 16.4311C34.3999 16.3946 34.6071 16.3366 34.7363 16.2571C34.8656 16.1776 34.9302 16.0483 34.9302 15.8693V15.8345C34.9302 15.4003 34.8076 15.0639 34.5623 14.8253C34.3204 14.5866 33.9591 14.4673 33.4785 14.4673C32.978 14.4673 32.5836 14.5784 32.2953 14.8004C32.0102 15.0192 31.813 15.2628 31.7037 15.5312L30.3066 15.2131C30.4724 14.7491 30.7143 14.3745 31.0325 14.0895C31.354 13.8011 31.7235 13.5923 32.1412 13.4631C32.5588 13.3305 32.9979 13.2642 33.4586 13.2642C33.7636 13.2642 34.0867 13.3007 34.4281 13.3736C34.7728 13.4432 35.0943 13.5724 35.3926 13.7614C35.6942 13.9503 35.9411 14.2204 36.1333 14.5717C36.3256 14.9197 36.4217 15.3722 36.4217 15.929V21H34.97V19.956H34.9103C34.8142 20.1482 34.67 20.3371 34.4778 20.5227C34.2856 20.7083 34.0386 20.8625 33.737 20.9851C33.4354 21.1077 33.0742 21.169 32.6532 21.169ZM32.9764 19.9759C33.3874 19.9759 33.7387 19.8946 34.0304 19.7322C34.3253 19.5698 34.5491 19.3577 34.7015 19.0959C34.8573 18.8307 34.9352 18.5473 34.9352 18.2457V17.2614C34.8822 17.3144 34.7794 17.3641 34.627 17.4105C34.4778 17.4536 34.3071 17.4917 34.1149 17.5249C33.9226 17.5547 33.7354 17.5829 33.5531 17.6094C33.3708 17.6326 33.2183 17.6525 33.0957 17.669C32.8074 17.7055 32.5439 17.7668 32.3052 17.853C32.0699 17.9392 31.881 18.0634 31.7385 18.2259C31.5993 18.3849 31.5297 18.5971 31.5297 18.8622C31.5297 19.2301 31.6655 19.5085 31.9373 19.6974C32.2091 19.883 32.5555 19.9759 32.9764 19.9759ZM38.4016 21V13.3636H39.8384V14.5767H39.918C40.0572 14.1657 40.3024 13.8426 40.6538 13.6072C41.0084 13.3686 41.4094 13.2493 41.8569 13.2493C41.9497 13.2493 42.0591 13.2526 42.185 13.2592C42.3143 13.2659 42.4154 13.2741 42.4883 13.2841V14.706C42.4286 14.6894 42.3226 14.6712 42.1701 14.6513C42.0176 14.6281 41.8652 14.6165 41.7127 14.6165C41.3614 14.6165 41.0482 14.6911 40.7731 14.8402C40.5013 14.986 40.2859 15.1899 40.1268 15.4517C39.9677 15.7102 39.8881 16.0052 39.8881 16.3366V21H38.4016ZM46.7924 21.1541C46.0401 21.1541 45.3921 20.9934 44.8485 20.6719C44.3083 20.3471 43.8907 19.8913 43.5957 19.3047C43.304 18.7147 43.1582 18.0237 43.1582 17.2315C43.1582 16.4493 43.304 15.7599 43.5957 15.1634C43.8907 14.5668 44.3017 14.1011 44.8287 13.7663C45.359 13.4316 45.9788 13.2642 46.688 13.2642C47.1189 13.2642 47.5365 13.3355 47.9409 13.478C48.3452 13.6205 48.7082 13.8442 49.0297 14.1491C49.3511 14.4541 49.6047 14.8501 49.7903 15.3374C49.9759 15.8213 50.0687 16.4096 50.0687 17.1023V17.6293H43.9984V16.5156H48.612C48.612 16.1245 48.5325 15.7782 48.3734 15.4766C48.2143 15.1716 47.9906 14.9313 47.7022 14.7557C47.4172 14.58 47.0824 14.4922 46.698 14.4922C46.2804 14.4922 45.9158 14.5949 45.6042 14.8004C45.296 15.0026 45.0574 15.2678 44.8883 15.5959C44.7226 15.9207 44.6397 16.2737 44.6397 16.6548V17.5249C44.6397 18.0353 44.7292 18.4695 44.9082 18.8274C45.0905 19.1854 45.344 19.4588 45.6689 19.6477C45.9937 19.8333 46.3732 19.9261 46.8074 19.9261C47.0891 19.9261 47.3459 19.8864 47.5779 19.8068C47.81 19.724 48.0105 19.6013 48.1795 19.4389C48.3485 19.2765 48.4778 19.076 48.5673 18.8374L49.9743 19.0909C49.8616 19.5052 49.6594 19.8681 49.3677 20.1797C49.0794 20.4879 48.7164 20.7282 48.2789 20.9006C47.8448 21.0696 47.3493 21.1541 46.7924 21.1541ZM54.5767 21.1491C53.9602 21.1491 53.41 20.9917 52.9261 20.6768C52.4455 20.3587 52.0677 19.9062 51.7926 19.3196C51.5208 18.7296 51.3849 18.022 51.3849 17.1967C51.3849 16.3714 51.5225 15.6655 51.7976 15.0788C52.076 14.4922 52.4571 14.0431 52.9411 13.7315C53.425 13.42 53.9735 13.2642 54.5866 13.2642C55.0606 13.2642 55.4418 13.3438 55.7301 13.5028C56.0218 13.6586 56.2472 13.8409 56.4062 14.0497C56.5687 14.2585 56.6946 14.4425 56.7841 14.6016H56.8736V10.8182H58.3601V21H56.9084V19.8118H56.7841C56.6946 19.9742 56.5653 20.1598 56.3963 20.3686C56.2306 20.5774 56.0019 20.7597 55.7102 20.9155C55.4186 21.0713 55.0407 21.1491 54.5767 21.1491ZM54.9048 19.8814C55.3324 19.8814 55.6937 19.7687 55.9886 19.5433C56.2869 19.3146 56.5123 18.9981 56.6648 18.5938C56.8205 18.1894 56.8984 17.7187 56.8984 17.1818C56.8984 16.6515 56.8222 16.1875 56.6697 15.7898C56.5173 15.392 56.2936 15.0821 55.9986 14.8601C55.7036 14.638 55.339 14.527 54.9048 14.527C54.4574 14.527 54.0845 14.643 53.7862 14.875C53.4879 15.107 53.2625 15.4235 53.1101 15.8246C52.9609 16.2256 52.8864 16.678 52.8864 17.1818C52.8864 17.6922 52.9626 18.1513 53.1151 18.5589C53.2675 18.9666 53.4929 19.2898 53.7912 19.5284C54.0928 19.7637 54.464 19.8814 54.9048 19.8814Z" fill="#767676"/>
</svg>
