<svg width="100" height="34" viewBox="0 0 100 34" fill="none" xmlns="http://www.w3.org/2000/svg">
<g filter="url(#filter0_b_14527_4721)">
<path d="M0 8C0 3.58172 3.58172 0 8 0H92C96.4183 0 100 3.58172 100 8V26C100 30.4183 96.4183 34 92 34H8C3.58172 34 0 30.4183 0 26V8Z" fill="white"/>
<path d="M14.8425 11.3497C14.7615 11.1391 14.5591 11.0001 14.3334 11.0001C14.1077 11.0001 13.9053 11.1391 13.8243 11.3497L12.7268 14.203C12.563 14.6291 12.5115 14.7518 12.4411 14.8509C12.3704 14.9503 12.2836 15.0371 12.1842 15.1078C12.0851 15.1782 11.9624 15.2297 11.5363 15.3936L8.68302 16.491C8.47237 16.572 8.33337 16.7744 8.33337 17.0001C8.33337 17.2258 8.47237 17.4282 8.68302 17.5092L11.5363 18.6066C11.9624 18.7705 12.0851 18.822 12.1842 18.8924C12.2836 18.9631 12.3704 19.0499 12.4411 19.1493C12.5115 19.2483 12.563 19.3711 12.7268 19.7971L13.8243 22.6504C13.9053 22.8611 14.1077 23.0001 14.3334 23.0001C14.5591 23.0001 14.7615 22.8611 14.8425 22.6504L15.9399 19.7971C16.1038 19.3711 16.1552 19.2483 16.2257 19.1493C16.2963 19.0499 16.3832 18.9631 16.4826 18.8924C16.5816 18.822 16.7044 18.7705 17.1304 18.6066L19.9837 17.5092C20.1944 17.4282 20.3334 17.2258 20.3334 17.0001C20.3334 16.7744 20.1944 16.572 19.9837 16.491L17.1304 15.3936C16.7044 15.2297 16.5816 15.1782 16.4826 15.1078C16.3832 15.0371 16.2963 14.9503 16.2257 14.8509C16.1552 14.7518 16.1038 14.6291 15.9399 14.203L14.8425 11.3497Z" fill="#111111"/>
<path d="M19.8364 9.7833C19.8094 9.71308 19.7419 9.66675 19.6667 9.66675C19.5915 9.66675 19.524 9.71308 19.497 9.7833L19.1312 10.7344C19.0766 10.8764 19.0594 10.9173 19.0359 10.9504C19.0124 10.9835 18.9834 11.0124 18.9503 11.036C18.9173 11.0595 18.8764 11.0766 18.7344 11.1312L17.7833 11.497C17.713 11.5241 17.6667 11.5915 17.6667 11.6667C17.6667 11.742 17.713 11.8094 17.7833 11.8364L18.7344 12.2023C18.8764 12.2569 18.9173 12.274 18.9503 12.2975C18.9834 12.3211 19.0124 12.35 19.0359 12.3831C19.0594 12.4162 19.0766 12.4571 19.1312 12.5991L19.497 13.5502C19.524 13.6204 19.5915 13.6667 19.6667 13.6667C19.7419 13.6667 19.8094 13.6204 19.8364 13.5502L20.2022 12.5991C20.2568 12.4571 20.274 12.4162 20.2975 12.3831C20.321 12.35 20.35 12.3211 20.3831 12.2975C20.4161 12.274 20.457 12.2569 20.5991 12.2023L21.5502 11.8364C21.6204 11.8094 21.6667 11.742 21.6667 11.6667C21.6667 11.5915 21.6204 11.5241 21.5502 11.497L20.5991 11.1312C20.457 11.0766 20.4161 11.0595 20.3831 11.036C20.35 11.0124 20.321 10.9835 20.2975 10.9504C20.274 10.9173 20.2568 10.8764 20.2022 10.7344L19.8364 9.7833Z" fill="#111111"/>
<path d="M29.0085 11.8182L31.8423 20.1108H31.9567L34.7905 11.8182H36.451L32.7869 22H31.0121L27.348 11.8182H29.0085ZM37.802 22V14.3636H39.2885V22H37.802ZM38.5527 13.1854C38.2942 13.1854 38.0721 13.0992 37.8865 12.9268C37.7042 12.7512 37.6131 12.5424 37.6131 12.3004C37.6131 12.0552 37.7042 11.8464 37.8865 11.674C38.0721 11.4983 38.2942 11.4105 38.5527 11.4105C38.8113 11.4105 39.0317 11.4983 39.214 11.674C39.3996 11.8464 39.4924 12.0552 39.4924 12.3004C39.4924 12.5424 39.3996 12.7512 39.214 12.9268C39.0317 13.0992 38.8113 13.1854 38.5527 13.1854ZM44.5795 22.1541C43.8272 22.1541 43.1792 21.9934 42.6357 21.6719C42.0954 21.3471 41.6778 20.8913 41.3828 20.3047C41.0911 19.7147 40.9453 19.0237 40.9453 18.2315C40.9453 17.4493 41.0911 16.7599 41.3828 16.1634C41.6778 15.5668 42.0888 15.1011 42.6158 14.7663C43.1461 14.4316 43.7659 14.2642 44.4751 14.2642C44.906 14.2642 45.3236 14.3355 45.728 14.478C46.1323 14.6205 46.4953 14.8442 46.8168 15.1491C47.1383 15.4541 47.3918 15.8501 47.5774 16.3374C47.763 16.8213 47.8558 17.4096 47.8558 18.1023V18.6293H41.7855V17.5156H46.3991C46.3991 17.1245 46.3196 16.7782 46.1605 16.4766C46.0014 16.1716 45.7777 15.9313 45.4893 15.7557C45.2043 15.58 44.8696 15.4922 44.4851 15.4922C44.0675 15.4922 43.7029 15.5949 43.3913 15.8004C43.0831 16.0026 42.8445 16.2678 42.6754 16.5959C42.5097 16.9207 42.4268 17.2737 42.4268 17.6548V18.5249C42.4268 19.0353 42.5163 19.4695 42.6953 19.8274C42.8776 20.1854 43.1312 20.4588 43.456 20.6477C43.7808 20.8333 44.1603 20.9261 44.5945 20.9261C44.8762 20.9261 45.133 20.8864 45.3651 20.8068C45.5971 20.724 45.7976 20.6013 45.9666 20.4389C46.1357 20.2765 46.2649 20.076 46.3544 19.8374L47.7614 20.0909C47.6487 20.5052 47.4465 20.8681 47.1548 21.1797C46.8665 21.4879 46.5036 21.7282 46.0661 21.9006C45.6319 22.0696 45.1364 22.1541 44.5795 22.1541ZM51.147 22L48.8999 14.3636H50.4361L51.9325 19.9716H52.0071L53.5085 14.3636H55.0447L56.5362 19.9467H56.6108L58.0973 14.3636H59.6335L57.3913 22H55.875L54.3239 16.4865H54.2095L52.6584 22H51.147ZM66.4048 11.8182V22H64.8686V11.8182H66.4048ZM71.3814 22.1491C70.7649 22.1491 70.2147 21.9917 69.7308 21.6768C69.2502 21.3587 68.8724 20.9062 68.5973 20.3196C68.3255 19.7296 68.1896 19.022 68.1896 18.1967C68.1896 17.3714 68.3272 16.6655 68.6023 16.0788C68.8807 15.4922 69.2618 15.0431 69.7457 14.7315C70.2296 14.42 70.7782 14.2642 71.3913 14.2642C71.8653 14.2642 72.2464 14.3438 72.5348 14.5028C72.8265 14.6586 73.0518 14.8409 73.2109 15.0497C73.3733 15.2585 73.4993 15.4425 73.5888 15.6016H73.6783V11.8182H75.1648V22H73.7131V20.8118H73.5888C73.4993 20.9742 73.37 21.1598 73.201 21.3686C73.0353 21.5774 72.8066 21.7597 72.5149 21.9155C72.2232 22.0713 71.8454 22.1491 71.3814 22.1491ZM71.7095 20.8814C72.1371 20.8814 72.4983 20.7687 72.7933 20.5433C73.0916 20.3146 73.317 19.9981 73.4695 19.5938C73.6252 19.1894 73.7031 18.7187 73.7031 18.1818C73.7031 17.6515 73.6269 17.1875 73.4744 16.7898C73.322 16.392 73.0982 16.0821 72.8033 15.8601C72.5083 15.638 72.1437 15.527 71.7095 15.527C71.2621 15.527 70.8892 15.643 70.5909 15.875C70.2926 16.107 70.0672 16.4235 69.9148 16.8246C69.7656 17.2256 69.6911 17.678 69.6911 18.1818C69.6911 18.6922 69.7673 19.1513 69.9197 19.5589C70.0722 19.9666 70.2976 20.2898 70.5959 20.5284C70.8975 20.7637 71.2687 20.8814 71.7095 20.8814ZM80.5776 22.1541C79.8252 22.1541 79.1773 21.9934 78.6337 21.6719C78.0935 21.3471 77.6758 20.8913 77.3809 20.3047C77.0892 19.7147 76.9434 19.0237 76.9434 18.2315C76.9434 17.4493 77.0892 16.7599 77.3809 16.1634C77.6758 15.5668 78.0868 15.1011 78.6138 14.7663C79.1441 14.4316 79.7639 14.2642 80.4732 14.2642C80.9041 14.2642 81.3217 14.3355 81.726 14.478C82.1304 14.6205 82.4933 14.8442 82.8148 15.1491C83.1363 15.4541 83.3899 15.8501 83.5755 16.3374C83.7611 16.8213 83.8539 17.4096 83.8539 18.1023V18.6293H77.7836V17.5156H82.3972C82.3972 17.1245 82.3176 16.7782 82.1586 16.4766C81.9995 16.1716 81.7757 15.9313 81.4874 15.7557C81.2024 15.58 80.8676 15.4922 80.4831 15.4922C80.0655 15.4922 79.7009 15.5949 79.3894 15.8004C79.0811 16.0026 78.8425 16.2678 78.6735 16.5959C78.5078 16.9207 78.4249 17.2737 78.4249 17.6548V18.5249C78.4249 19.0353 78.5144 19.4695 78.6934 19.8274C78.8757 20.1854 79.1292 20.4588 79.454 20.6477C79.7788 20.8333 80.1583 20.9261 80.5925 20.9261C80.8742 20.9261 81.1311 20.8864 81.3631 20.8068C81.5951 20.724 81.7956 20.6013 81.9647 20.4389C82.1337 20.2765 82.263 20.076 82.3525 19.8374L83.7594 20.0909C83.6467 20.5052 83.4445 20.8681 83.1529 21.1797C82.8645 21.4879 82.5016 21.7282 82.0641 21.9006C81.6299 22.0696 81.1344 22.1541 80.5776 22.1541ZM87.7255 22.169C87.2416 22.169 86.8041 22.0795 86.413 21.9006C86.0219 21.7183 85.712 21.4548 85.4833 21.1101C85.2579 20.7654 85.1452 20.3428 85.1452 19.8423C85.1452 19.4115 85.2281 19.0568 85.3938 18.7784C85.5595 18.5 85.7833 18.2796 86.065 18.1172C86.3467 17.9548 86.6616 17.8321 87.0096 17.7493C87.3576 17.6664 87.7122 17.6035 88.0735 17.5604C88.5309 17.5073 88.9021 17.4643 89.1871 17.4311C89.4722 17.3946 89.6793 17.3366 89.8086 17.2571C89.9379 17.1776 90.0025 17.0483 90.0025 16.8693V16.8345C90.0025 16.4003 89.8799 16.0639 89.6346 15.8253C89.3926 15.5866 89.0314 15.4673 88.5508 15.4673C88.0503 15.4673 87.6559 15.5784 87.3675 15.8004C87.0825 16.0192 86.8853 16.2628 86.7759 16.5312L85.3789 16.2131C85.5446 15.7491 85.7866 15.3745 86.1048 15.0895C86.4263 14.8011 86.7958 14.5923 87.2134 14.4631C87.631 14.3305 88.0702 14.2642 88.5309 14.2642C88.8358 14.2642 89.159 14.3007 89.5004 14.3736C89.8451 14.4432 90.1665 14.5724 90.4648 14.7614C90.7665 14.9503 91.0134 15.2204 91.2056 15.5717C91.3978 15.9197 91.494 16.3722 91.494 16.929V22H90.0423V20.956H89.9826C89.8865 21.1482 89.7423 21.3371 89.5501 21.5227C89.3578 21.7083 89.1109 21.8625 88.8093 21.9851C88.5077 22.1077 88.1464 22.169 87.7255 22.169ZM88.0487 20.9759C88.4596 20.9759 88.811 20.8946 89.1026 20.7322C89.3976 20.5698 89.6213 20.3577 89.7738 20.0959C89.9296 19.8307 90.0075 19.5473 90.0075 19.2457V18.2614C89.9544 18.3144 89.8517 18.3641 89.6992 18.4105C89.5501 18.4536 89.3794 18.4917 89.1871 18.5249C88.9949 18.5547 88.8076 18.5829 88.6254 18.6094C88.4431 18.6326 88.2906 18.6525 88.168 18.669C87.8796 18.7055 87.6161 18.7668 87.3775 18.853C87.1422 18.9392 86.9532 19.0634 86.8107 19.2259C86.6715 19.3849 86.6019 19.5971 86.6019 19.8622C86.6019 20.2301 86.7378 20.5085 87.0096 20.6974C87.2814 20.883 87.6277 20.9759 88.0487 20.9759Z" fill="black"/>
</g>
<defs>
<filter id="filter0_b_14527_4721" x="-30" y="-30" width="160" height="94" filterUnits="userSpaceOnUse" color-interpolation-filters="sRGB">
<feFlood flood-opacity="0" result="BackgroundImageFix"/>
<feGaussianBlur in="BackgroundImageFix" stdDeviation="15"/>
<feComposite in2="SourceAlpha" operator="in" result="effect1_backgroundBlur_14527_4721"/>
<feBlend mode="normal" in="SourceGraphic" in2="effect1_backgroundBlur_14527_4721" result="shape"/>
</filter>
</defs>
</svg>
